<svg xmlns="http://www.w3.org/2000/svg" width="18" height="18" viewBox="0 0 18 18"><defs><style>.a{fill:none;}.b{fill:#212121;}</style></defs><rect class="a" width="18" height="18"/><g transform="translate(3.75 3.75)"><path class="b" d="M5.188,9.823,9.9,5.185a.65.65,0,0,1,.91,0,.626.626,0,0,1,0,.9l-4.258,4.19,4.215,4.148a.626.626,0,0,1,0,.9.652.652,0,0,1-.91,0l-4.67-4.6a.627.627,0,0,1,0-.9Z" transform="translate(-5 -5)"/><path class="b" d="M11,10.271a.628.628,0,0,1,.188-.448L15.9,5.185a.65.65,0,0,1,.91,0,.626.626,0,0,1,0,.9l-4.259,4.19,4.215,4.148a.626.626,0,0,1,0,.9.652.652,0,0,1-.91,0l-4.67-4.6A.628.628,0,0,1,11,10.271Z" transform="translate(-6.5 -5)"/></g></svg>