<svg xmlns="http://www.w3.org/2000/svg" xmlns:xlink="http://www.w3.org/1999/xlink" width="360" height="360" viewBox="0 0 360 360"><defs><style>.a{fill:#fff;stroke:#707070;}.b{fill:#212121;}.c{fill:none;}.d{fill:#ffd100;}.e{clip-path:url(#c);}.f{fill:rgba(255,209,0,0.3);}.g{clip-path:url(#h);}.h{clip-path:url(#i);}.i{clip-path:url(#k);}.j{clip-path:url(#q);}.k{clip-path:url(#r);}.l{fill:rgba(33,33,33,0.2);}.m{filter:url(#f);}.n{filter:url(#d);}.o{filter:url(#a);}</style><filter id="a" x="42" y="183" width="277" height="201" filterUnits="userSpaceOnUse"><feOffset input="SourceAlpha"/><feGaussianBlur stdDeviation="8" result="b"/><feFlood flood-opacity="0.6"/><feComposite operator="in" in2="b"/><feComposite in="SourceGraphic"/></filter><clipPath id="c"><rect class="a" width="360" height="360" transform="translate(519 580)"/></clipPath><filter id="d" x="42" y="183" width="277" height="201" filterUnits="userSpaceOnUse"><feOffset input="SourceAlpha"/><feGaussianBlur stdDeviation="8" result="e"/><feFlood flood-opacity="0.6"/><feComposite operator="in" in2="e"/><feComposite in="SourceGraphic"/></filter><filter id="f" x="78" y="17" width="207" height="207" filterUnits="userSpaceOnUse"><feOffset dy="6" input="SourceAlpha"/><feGaussianBlur stdDeviation="8" result="g"/><feFlood flood-opacity="0.6"/><feComposite operator="in" in2="g"/><feComposite in="SourceGraphic"/></filter><clipPath id="h"><g class="o" transform="matrix(1, 0, 0, 1, 0, 0)"><path class="b" d="M75,0h79a75,75,0,0,1,75,75v78a0,0,0,0,1,0,0H0a0,0,0,0,1,0,0V75A75,75,0,0,1,75,0Z" transform="translate(585 787)"/></g></clipPath><clipPath id="i"><rect class="c" width="256.506" height="24.71"/></clipPath><clipPath id="k"><rect class="c" width="256.506" height="7.71"/></clipPath><clipPath id="q"><path class="d" d="M-22935.113-5437.646a88.9,88.9,0,0,1,28.08-50.08,87.275,87.275,0,0,1,26.5-16.333,86.434,86.434,0,0,1,31.617-5.939,87.3,87.3,0,0,1,18.041,1.876,86.561,86.561,0,0,1,16.777,5.39,87.627,87.627,0,0,1,15.123,8.513,88.587,88.587,0,0,1,13.094,11.254l-146.738,49.105v.016l-64.387,22.278Z" transform="matrix(0.996, -0.087, 0.087, 0.996, 23939.359, 4105.102)"/></clipPath><clipPath id="r"><rect class="c" width="138.754" height="7.71"/></clipPath></defs><g class="e" transform="translate(-519 -580)"><rect class="b" width="360" height="360" transform="translate(519 580)"/><path class="f" d="M31.073,6.458,337.313,2.99,304.768,79.662H0Z" transform="matrix(0.921, -0.391, 0.391, 0.921, 527.604, 787.859)"/><path class="f" d="M31.2,6.458,338.692,2.99,306.013,79.662H0Z" transform="matrix(0.921, -0.391, 0.391, 0.921, 527.76, 913.041)"/><path class="f" d="M35.96,6.007,521.842,7.2,486.391,90.722H0Z" transform="matrix(0.921, -0.391, 0.391, 0.921, 453.924, 886.371)"/><path class="f" d="M31.073,6.458,337.313,2.99,304.768,79.662H0Z" transform="matrix(0.921, -0.391, 0.391, 0.921, 472.375, 625.859)"/><g class="n" transform="matrix(1, 0, 0, 1, 519, 580)"><path class="b" d="M75,0h79a75,75,0,0,1,75,75v78a0,0,0,0,1,0,0H0a0,0,0,0,1,0,0V75A75,75,0,0,1,75,0Z" transform="translate(66 207)"/></g><g class="m" transform="matrix(1, 0, 0, 1, 519, 580)"><circle class="b" cx="79.5" cy="79.5" r="79.5" transform="translate(102 35)"/></g><circle class="d" cx="19" cy="19" r="19" transform="translate(675 676)"/><circle class="d" cx="19" cy="19" r="19" transform="translate(731 676)"/><circle class="b" cx="12.5" cy="12.5" r="12.5" transform="translate(688 683)"/><circle class="b" cx="12.5" cy="12.5" r="12.5" transform="translate(744 683)"/><path class="d" d="M-22935.113-5437.646a88.9,88.9,0,0,1,28.08-50.08,87.275,87.275,0,0,1,26.5-16.333,86.434,86.434,0,0,1,31.617-5.939,87.3,87.3,0,0,1,18.041,1.876,86.561,86.561,0,0,1,16.777,5.39,87.627,87.627,0,0,1,15.123,8.513,88.587,88.587,0,0,1,13.094,11.254l-146.738,49.105v.016l-64.387,22.278Z" transform="matrix(0.996, -0.087, 0.087, 0.996, 23939.359, 4105.102)"/><path class="d" d="M-22977-5478a13.909,13.909,0,0,1-9.9-4.1,13.906,13.906,0,0,1-4.1-9.9h28a13.9,13.9,0,0,1-4.1,9.9A13.9,13.9,0,0,1-22977-5478Z" transform="translate(23701 6235)"/><circle class="d" cx="3" cy="3" r="3" transform="translate(759 688)"/><circle class="d" cx="3" cy="3" r="3" transform="translate(702 688)"/><path class="f" d="M35.96,6.007,521.842,7.523,486.391,113.217H0Z" transform="matrix(0.921, -0.391, 0.391, 0.921, 453.924, 1004.367)"/><path class="f" d="M31.073,6.458,337.313,2.99,304.768,79.662H0Z" transform="matrix(0.921, -0.391, 0.391, 0.921, 530.604, 622.171)"/><g class="g"><g transform="translate(0 7)"><g class="h" transform="translate(582.951 827.572)"><g transform="translate(-988.951 -749.572)"><path class="f" d="M.347,0,3.784.31,3.442,22.9,0,22.91Z" transform="matrix(0.921, -0.391, 0.391, 0.921, 990.022, 751.05)"/><path class="f" d="M.347,0,3.784.31,3.442,22.9,0,22.91Z" transform="matrix(0.921, -0.391, 0.391, 0.921, 988.951, 753.193)"/></g><g transform="translate(-964.951 -749.572)"><path class="f" d="M.347,0,3.784.31,3.442,22.9,0,22.91Z" transform="matrix(0.921, -0.391, 0.391, 0.921, 990.022, 751.05)"/><path class="f" d="M.347,0,3.784.31,3.442,22.9,0,22.91Z" transform="matrix(0.921, -0.391, 0.391, 0.921, 988.951, 753.193)"/></g><g transform="translate(-940.951 -749.572)"><path class="f" d="M.347,0,3.784.31,3.442,22.9,0,22.91Z" transform="matrix(0.921, -0.391, 0.391, 0.921, 990.022, 751.05)"/><path class="f" d="M.347,0,3.784.31,3.442,22.9,0,22.91Z" transform="matrix(0.921, -0.391, 0.391, 0.921, 988.951, 753.193)"/></g><g transform="translate(-916.951 -749.572)"><path class="f" d="M.347,0,3.784.31,3.442,22.9,0,22.91Z" transform="matrix(0.921, -0.391, 0.391, 0.921, 990.022, 751.05)"/><path class="f" d="M.347,0,3.784.31,3.442,22.9,0,22.91Z" transform="matrix(0.921, -0.391, 0.391, 0.921, 988.951, 753.193)"/></g><g transform="translate(-892.951 -749.572)"><path class="f" d="M.347,0,3.784.31,3.442,22.9,0,22.91Z" transform="matrix(0.921, -0.391, 0.391, 0.921, 990.022, 751.05)"/><path class="f" d="M.347,0,3.784.31,3.442,22.9,0,22.91Z" transform="matrix(0.921, -0.391, 0.391, 0.921, 988.951, 753.193)"/></g><g transform="translate(-868.951 -749.572)"><path class="f" d="M.347,0,3.784.31,3.442,22.9,0,22.91Z" transform="matrix(0.921, -0.391, 0.391, 0.921, 990.022, 751.05)"/><path class="f" d="M.347,0,3.784.31,3.442,22.9,0,22.91Z" transform="matrix(0.921, -0.391, 0.391, 0.921, 988.951, 753.193)"/></g><g transform="translate(-844.951 -749.572)"><path class="f" d="M.347,0,3.784.31,3.442,22.9,0,22.91Z" transform="matrix(0.921, -0.391, 0.391, 0.921, 990.022, 751.05)"/><path class="f" d="M.347,0,3.784.31,3.442,22.9,0,22.91Z" transform="matrix(0.921, -0.391, 0.391, 0.921, 988.951, 753.193)"/></g><g transform="translate(-820.951 -749.572)"><path class="f" d="M.347,0,3.784.31,3.442,22.9,0,22.91Z" transform="matrix(0.921, -0.391, 0.391, 0.921, 990.022, 751.05)"/><path class="f" d="M.347,0,3.784.31,3.442,22.9,0,22.91Z" transform="matrix(0.921, -0.391, 0.391, 0.921, 988.951, 753.193)"/></g><g transform="translate(-796.951 -749.572)"><path class="f" d="M.347,0,3.784.31,3.442,22.9,0,22.91Z" transform="matrix(0.921, -0.391, 0.391, 0.921, 990.022, 751.05)"/><path class="f" d="M.347,0,3.784.31,3.442,22.9,0,22.91Z" transform="matrix(0.921, -0.391, 0.391, 0.921, 988.951, 753.193)"/></g><g transform="translate(-772.951 -749.572)"><path class="f" d="M.347,0,3.784.31,3.442,22.9,0,22.91Z" transform="matrix(0.921, -0.391, 0.391, 0.921, 990.022, 751.05)"/><path class="f" d="M.347,0,3.784.31,3.442,22.9,0,22.91Z" transform="matrix(0.921, -0.391, 0.391, 0.921, 988.951, 753.193)"/></g><g transform="translate(-748.951 -749.572)"><path class="f" d="M.347,0,3.784.31,3.442,22.9,0,22.91Z" transform="matrix(0.921, -0.391, 0.391, 0.921, 990.022, 751.05)"/><path class="f" d="M.347,0,3.784.31,3.442,22.9,0,22.91Z" transform="matrix(0.921, -0.391, 0.391, 0.921, 988.951, 753.193)"/></g></g><g class="h" transform="translate(575.951 842.572)"><g transform="translate(-988.951 -749.572)"><path class="f" d="M.347,0,3.784.31,3.442,22.9,0,22.91Z" transform="matrix(0.921, -0.391, 0.391, 0.921, 990.022, 751.05)"/><path class="f" d="M.347,0,3.784.31,3.442,22.9,0,22.91Z" transform="matrix(0.921, -0.391, 0.391, 0.921, 988.951, 753.193)"/></g><g transform="translate(-964.951 -749.572)"><path class="f" d="M.347,0,3.784.31,3.442,22.9,0,22.91Z" transform="matrix(0.921, -0.391, 0.391, 0.921, 990.022, 751.05)"/><path class="f" d="M.347,0,3.784.31,3.442,22.9,0,22.91Z" transform="matrix(0.921, -0.391, 0.391, 0.921, 988.951, 753.193)"/></g><g transform="translate(-940.951 -749.572)"><path class="f" d="M.347,0,3.784.31,3.442,22.9,0,22.91Z" transform="matrix(0.921, -0.391, 0.391, 0.921, 990.022, 751.05)"/><path class="f" d="M.347,0,3.784.31,3.442,22.9,0,22.91Z" transform="matrix(0.921, -0.391, 0.391, 0.921, 988.951, 753.193)"/></g><g transform="translate(-916.951 -749.572)"><path class="f" d="M.347,0,3.784.31,3.442,22.9,0,22.91Z" transform="matrix(0.921, -0.391, 0.391, 0.921, 990.022, 751.05)"/><path class="f" d="M.347,0,3.784.31,3.442,22.9,0,22.91Z" transform="matrix(0.921, -0.391, 0.391, 0.921, 988.951, 753.193)"/></g><g transform="translate(-892.951 -749.572)"><path class="f" d="M.347,0,3.784.31,3.442,22.9,0,22.91Z" transform="matrix(0.921, -0.391, 0.391, 0.921, 990.022, 751.05)"/><path class="f" d="M.347,0,3.784.31,3.442,22.9,0,22.91Z" transform="matrix(0.921, -0.391, 0.391, 0.921, 988.951, 753.193)"/></g><g transform="translate(-868.951 -749.572)"><path class="f" d="M.347,0,3.784.31,3.442,22.9,0,22.91Z" transform="matrix(0.921, -0.391, 0.391, 0.921, 990.022, 751.05)"/><path class="f" d="M.347,0,3.784.31,3.442,22.9,0,22.91Z" transform="matrix(0.921, -0.391, 0.391, 0.921, 988.951, 753.193)"/></g><g transform="translate(-844.951 -749.572)"><path class="f" d="M.347,0,3.784.31,3.442,22.9,0,22.91Z" transform="matrix(0.921, -0.391, 0.391, 0.921, 990.022, 751.05)"/><path class="f" d="M.347,0,3.784.31,3.442,22.9,0,22.91Z" transform="matrix(0.921, -0.391, 0.391, 0.921, 988.951, 753.193)"/></g><g transform="translate(-820.951 -749.572)"><path class="f" d="M.347,0,3.784.31,3.442,22.9,0,22.91Z" transform="matrix(0.921, -0.391, 0.391, 0.921, 990.022, 751.05)"/><path class="f" d="M.347,0,3.784.31,3.442,22.9,0,22.91Z" transform="matrix(0.921, -0.391, 0.391, 0.921, 988.951, 753.193)"/></g><g transform="translate(-796.951 -749.572)"><path class="f" d="M.347,0,3.784.31,3.442,22.9,0,22.91Z" transform="matrix(0.921, -0.391, 0.391, 0.921, 990.022, 751.05)"/><path class="f" d="M.347,0,3.784.31,3.442,22.9,0,22.91Z" transform="matrix(0.921, -0.391, 0.391, 0.921, 988.951, 753.193)"/></g><g transform="translate(-772.951 -749.572)"><path class="f" d="M.347,0,3.784.31,3.442,22.9,0,22.91Z" transform="matrix(0.921, -0.391, 0.391, 0.921, 990.022, 751.05)"/><path class="f" d="M.347,0,3.784.31,3.442,22.9,0,22.91Z" transform="matrix(0.921, -0.391, 0.391, 0.921, 988.951, 753.193)"/></g><g transform="translate(-748.951 -749.572)"><path class="f" d="M.347,0,3.784.31,3.442,22.9,0,22.91Z" transform="matrix(0.921, -0.391, 0.391, 0.921, 990.022, 751.05)"/><path class="f" d="M.347,0,3.784.31,3.442,22.9,0,22.91Z" transform="matrix(0.921, -0.391, 0.391, 0.921, 988.951, 753.193)"/></g></g></g><g class="i" transform="translate(577.951 803.572)"><g transform="translate(-988.951 -749.572)"><path class="f" d="M0,0,1.128.159l.345,6.483L.35,6.576Z" transform="matrix(0.921, -0.391, 0.391, 0.921, 989.629, 749.963)"/><path class="f" d="M0,0,1.128.159l.345,6.483L.35,6.576Z" transform="matrix(0.921, -0.391, 0.391, 0.921, 989.27, 750.561)"/></g><g transform="translate(-964.951 -749.572)"><path class="f" d="M0,0,1.128.159l.345,6.483L.35,6.576Z" transform="matrix(0.921, -0.391, 0.391, 0.921, 989.629, 749.963)"/><path class="f" d="M0,0,1.128.159l.345,6.483L.35,6.576Z" transform="matrix(0.921, -0.391, 0.391, 0.921, 989.27, 750.561)"/></g><g transform="translate(-940.951 -749.572)"><path class="f" d="M0,0,1.128.159l.345,6.483L.35,6.576Z" transform="matrix(0.921, -0.391, 0.391, 0.921, 989.629, 749.963)"/><path class="f" d="M0,0,1.128.159l.345,6.483L.35,6.576Z" transform="matrix(0.921, -0.391, 0.391, 0.921, 989.27, 750.561)"/></g><g transform="translate(-916.951 -749.572)"><path class="f" d="M0,0,1.128.159l.345,6.483L.35,6.576Z" transform="matrix(0.921, -0.391, 0.391, 0.921, 989.629, 749.963)"/><path class="f" d="M0,0,1.128.159l.345,6.483L.35,6.576Z" transform="matrix(0.921, -0.391, 0.391, 0.921, 989.27, 750.561)"/></g><g transform="translate(-892.951 -749.572)"><path class="f" d="M0,0,1.128.159l.345,6.483L.35,6.576Z" transform="matrix(0.921, -0.391, 0.391, 0.921, 989.629, 749.963)"/><path class="f" d="M0,0,1.128.159l.345,6.483L.35,6.576Z" transform="matrix(0.921, -0.391, 0.391, 0.921, 989.27, 750.561)"/></g><g transform="translate(-868.951 -749.572)"><path class="f" d="M0,0,1.128.159l.345,6.483L.35,6.576Z" transform="matrix(0.921, -0.391, 0.391, 0.921, 989.629, 749.963)"/><path class="f" d="M0,0,1.128.159l.345,6.483L.35,6.576Z" transform="matrix(0.921, -0.391, 0.391, 0.921, 989.27, 750.561)"/></g><g transform="translate(-844.951 -749.572)"><path class="f" d="M0,0,1.128.159l.345,6.483L.35,6.576Z" transform="matrix(0.921, -0.391, 0.391, 0.921, 989.629, 749.963)"/><path class="f" d="M0,0,1.128.159l.345,6.483L.35,6.576Z" transform="matrix(0.921, -0.391, 0.391, 0.921, 989.27, 750.561)"/></g><g transform="translate(-820.951 -749.572)"><path class="f" d="M0,0,1.128.159l.345,6.483L.35,6.576Z" transform="matrix(0.921, -0.391, 0.391, 0.921, 989.629, 749.963)"/><path class="f" d="M0,0,1.128.159l.345,6.483L.35,6.576Z" transform="matrix(0.921, -0.391, 0.391, 0.921, 989.27, 750.561)"/></g><g transform="translate(-796.951 -749.572)"><path class="f" d="M0,0,1.128.159l.345,6.483L.35,6.576Z" transform="matrix(0.921, -0.391, 0.391, 0.921, 989.629, 749.963)"/><path class="f" d="M0,0,1.128.159l.345,6.483L.35,6.576Z" transform="matrix(0.921, -0.391, 0.391, 0.921, 989.27, 750.561)"/></g><g transform="translate(-772.951 -749.572)"><path class="f" d="M0,0,1.128.159l.345,6.483L.35,6.576Z" transform="matrix(0.921, -0.391, 0.391, 0.921, 989.629, 749.963)"/><path class="f" d="M0,0,1.128.159l.345,6.483L.35,6.576Z" transform="matrix(0.921, -0.391, 0.391, 0.921, 989.27, 750.561)"/></g><g transform="translate(-748.951 -749.572)"><path class="f" d="M0,0,1.128.159l.345,6.483L.35,6.576Z" transform="matrix(0.921, -0.391, 0.391, 0.921, 989.629, 749.963)"/><path class="f" d="M0,0,1.128.159l.345,6.483L.35,6.576Z" transform="matrix(0.921, -0.391, 0.391, 0.921, 989.27, 750.561)"/></g></g><g class="i" transform="translate(573.951 907.572)"><g transform="translate(-988.951 -749.572)"><path class="f" d="M0,0,1.128.159l.345,6.483L.35,6.576Z" transform="matrix(0.921, -0.391, 0.391, 0.921, 989.629, 749.963)"/><path class="f" d="M0,0,1.128.159l.345,6.483L.35,6.576Z" transform="matrix(0.921, -0.391, 0.391, 0.921, 989.27, 750.561)"/></g><g transform="translate(-964.951 -749.572)"><path class="f" d="M0,0,1.128.159l.345,6.483L.35,6.576Z" transform="matrix(0.921, -0.391, 0.391, 0.921, 989.629, 749.963)"/><path class="f" d="M0,0,1.128.159l.345,6.483L.35,6.576Z" transform="matrix(0.921, -0.391, 0.391, 0.921, 989.27, 750.561)"/></g><g transform="translate(-940.951 -749.572)"><path class="f" d="M0,0,1.128.159l.345,6.483L.35,6.576Z" transform="matrix(0.921, -0.391, 0.391, 0.921, 989.629, 749.963)"/><path class="f" d="M0,0,1.128.159l.345,6.483L.35,6.576Z" transform="matrix(0.921, -0.391, 0.391, 0.921, 989.27, 750.561)"/></g><g transform="translate(-916.951 -749.572)"><path class="f" d="M0,0,1.128.159l.345,6.483L.35,6.576Z" transform="matrix(0.921, -0.391, 0.391, 0.921, 989.629, 749.963)"/><path class="f" d="M0,0,1.128.159l.345,6.483L.35,6.576Z" transform="matrix(0.921, -0.391, 0.391, 0.921, 989.27, 750.561)"/></g><g transform="translate(-892.951 -749.572)"><path class="f" d="M0,0,1.128.159l.345,6.483L.35,6.576Z" transform="matrix(0.921, -0.391, 0.391, 0.921, 989.629, 749.963)"/><path class="f" d="M0,0,1.128.159l.345,6.483L.35,6.576Z" transform="matrix(0.921, -0.391, 0.391, 0.921, 989.27, 750.561)"/></g><g transform="translate(-868.951 -749.572)"><path class="f" d="M0,0,1.128.159l.345,6.483L.35,6.576Z" transform="matrix(0.921, -0.391, 0.391, 0.921, 989.629, 749.963)"/><path class="f" d="M0,0,1.128.159l.345,6.483L.35,6.576Z" transform="matrix(0.921, -0.391, 0.391, 0.921, 989.27, 750.561)"/></g><g transform="translate(-844.951 -749.572)"><path class="f" d="M0,0,1.128.159l.345,6.483L.35,6.576Z" transform="matrix(0.921, -0.391, 0.391, 0.921, 989.629, 749.963)"/><path class="f" d="M0,0,1.128.159l.345,6.483L.35,6.576Z" transform="matrix(0.921, -0.391, 0.391, 0.921, 989.27, 750.561)"/></g><g transform="translate(-820.951 -749.572)"><path class="f" d="M0,0,1.128.159l.345,6.483L.35,6.576Z" transform="matrix(0.921, -0.391, 0.391, 0.921, 989.629, 749.963)"/><path class="f" d="M0,0,1.128.159l.345,6.483L.35,6.576Z" transform="matrix(0.921, -0.391, 0.391, 0.921, 989.27, 750.561)"/></g><g transform="translate(-796.951 -749.572)"><path class="f" d="M0,0,1.128.159l.345,6.483L.35,6.576Z" transform="matrix(0.921, -0.391, 0.391, 0.921, 989.629, 749.963)"/><path class="f" d="M0,0,1.128.159l.345,6.483L.35,6.576Z" transform="matrix(0.921, -0.391, 0.391, 0.921, 989.27, 750.561)"/></g><g transform="translate(-772.951 -749.572)"><path class="f" d="M0,0,1.128.159l.345,6.483L.35,6.576Z" transform="matrix(0.921, -0.391, 0.391, 0.921, 989.629, 749.963)"/><path class="f" d="M0,0,1.128.159l.345,6.483L.35,6.576Z" transform="matrix(0.921, -0.391, 0.391, 0.921, 989.27, 750.561)"/></g><g transform="translate(-748.951 -749.572)"><path class="f" d="M0,0,1.128.159l.345,6.483L.35,6.576Z" transform="matrix(0.921, -0.391, 0.391, 0.921, 989.629, 749.963)"/><path class="f" d="M0,0,1.128.159l.345,6.483L.35,6.576Z" transform="matrix(0.921, -0.391, 0.391, 0.921, 989.27, 750.561)"/></g></g><g class="i" transform="translate(560.951 935.572)"><g transform="translate(-988.951 -749.572)"><path class="f" d="M0,0,1.128.159l.345,6.483L.35,6.576Z" transform="matrix(0.921, -0.391, 0.391, 0.921, 989.629, 749.963)"/><path class="f" d="M0,0,1.128.159l.345,6.483L.35,6.576Z" transform="matrix(0.921, -0.391, 0.391, 0.921, 989.27, 750.561)"/></g><g transform="translate(-964.951 -749.572)"><path class="f" d="M0,0,1.128.159l.345,6.483L.35,6.576Z" transform="matrix(0.921, -0.391, 0.391, 0.921, 989.629, 749.963)"/><path class="f" d="M0,0,1.128.159l.345,6.483L.35,6.576Z" transform="matrix(0.921, -0.391, 0.391, 0.921, 989.27, 750.561)"/></g><g transform="translate(-940.951 -749.572)"><path class="f" d="M0,0,1.128.159l.345,6.483L.35,6.576Z" transform="matrix(0.921, -0.391, 0.391, 0.921, 989.629, 749.963)"/><path class="f" d="M0,0,1.128.159l.345,6.483L.35,6.576Z" transform="matrix(0.921, -0.391, 0.391, 0.921, 989.27, 750.561)"/></g><g transform="translate(-916.951 -749.572)"><path class="f" d="M0,0,1.128.159l.345,6.483L.35,6.576Z" transform="matrix(0.921, -0.391, 0.391, 0.921, 989.629, 749.963)"/><path class="f" d="M0,0,1.128.159l.345,6.483L.35,6.576Z" transform="matrix(0.921, -0.391, 0.391, 0.921, 989.27, 750.561)"/></g><g transform="translate(-892.951 -749.572)"><path class="f" d="M0,0,1.128.159l.345,6.483L.35,6.576Z" transform="matrix(0.921, -0.391, 0.391, 0.921, 989.629, 749.963)"/><path class="f" d="M0,0,1.128.159l.345,6.483L.35,6.576Z" transform="matrix(0.921, -0.391, 0.391, 0.921, 989.27, 750.561)"/></g><g transform="translate(-868.951 -749.572)"><path class="f" d="M0,0,1.128.159l.345,6.483L.35,6.576Z" transform="matrix(0.921, -0.391, 0.391, 0.921, 989.629, 749.963)"/><path class="f" d="M0,0,1.128.159l.345,6.483L.35,6.576Z" transform="matrix(0.921, -0.391, 0.391, 0.921, 989.27, 750.561)"/></g><g transform="translate(-844.951 -749.572)"><path class="f" d="M0,0,1.128.159l.345,6.483L.35,6.576Z" transform="matrix(0.921, -0.391, 0.391, 0.921, 989.629, 749.963)"/><path class="f" d="M0,0,1.128.159l.345,6.483L.35,6.576Z" transform="matrix(0.921, -0.391, 0.391, 0.921, 989.27, 750.561)"/></g><g transform="translate(-820.951 -749.572)"><path class="f" d="M0,0,1.128.159l.345,6.483L.35,6.576Z" transform="matrix(0.921, -0.391, 0.391, 0.921, 989.629, 749.963)"/><path class="f" d="M0,0,1.128.159l.345,6.483L.35,6.576Z" transform="matrix(0.921, -0.391, 0.391, 0.921, 989.27, 750.561)"/></g><g transform="translate(-796.951 -749.572)"><path class="f" d="M0,0,1.128.159l.345,6.483L.35,6.576Z" transform="matrix(0.921, -0.391, 0.391, 0.921, 989.629, 749.963)"/><path class="f" d="M0,0,1.128.159l.345,6.483L.35,6.576Z" transform="matrix(0.921, -0.391, 0.391, 0.921, 989.27, 750.561)"/></g><g transform="translate(-772.951 -749.572)"><path class="f" d="M0,0,1.128.159l.345,6.483L.35,6.576Z" transform="matrix(0.921, -0.391, 0.391, 0.921, 989.629, 749.963)"/><path class="f" d="M0,0,1.128.159l.345,6.483L.35,6.576Z" transform="matrix(0.921, -0.391, 0.391, 0.921, 989.27, 750.561)"/></g><g transform="translate(-748.951 -749.572)"><path class="f" d="M0,0,1.128.159l.345,6.483L.35,6.576Z" transform="matrix(0.921, -0.391, 0.391, 0.921, 989.629, 749.963)"/><path class="f" d="M0,0,1.128.159l.345,6.483L.35,6.576Z" transform="matrix(0.921, -0.391, 0.391, 0.921, 989.27, 750.561)"/></g></g><g class="i" transform="translate(589 789.572)"><g transform="translate(-988.951 -749.572)"><path class="f" d="M0,0,1.128.159l.345,6.483L.35,6.576Z" transform="matrix(0.921, -0.391, 0.391, 0.921, 989.629, 749.963)"/><path class="f" d="M0,0,1.128.159l.345,6.483L.35,6.576Z" transform="matrix(0.921, -0.391, 0.391, 0.921, 989.27, 750.561)"/></g><g transform="translate(-964.951 -749.572)"><path class="f" d="M0,0,1.128.159l.345,6.483L.35,6.576Z" transform="matrix(0.921, -0.391, 0.391, 0.921, 989.629, 749.963)"/><path class="f" d="M0,0,1.128.159l.345,6.483L.35,6.576Z" transform="matrix(0.921, -0.391, 0.391, 0.921, 989.27, 750.561)"/></g><g transform="translate(-940.951 -749.572)"><path class="f" d="M0,0,1.128.159l.345,6.483L.35,6.576Z" transform="matrix(0.921, -0.391, 0.391, 0.921, 989.629, 749.963)"/><path class="f" d="M0,0,1.128.159l.345,6.483L.35,6.576Z" transform="matrix(0.921, -0.391, 0.391, 0.921, 989.27, 750.561)"/></g><g transform="translate(-916.951 -749.572)"><path class="f" d="M0,0,1.128.159l.345,6.483L.35,6.576Z" transform="matrix(0.921, -0.391, 0.391, 0.921, 989.629, 749.963)"/><path class="f" d="M0,0,1.128.159l.345,6.483L.35,6.576Z" transform="matrix(0.921, -0.391, 0.391, 0.921, 989.27, 750.561)"/></g><g transform="translate(-892.951 -749.572)"><path class="f" d="M0,0,1.128.159l.345,6.483L.35,6.576Z" transform="matrix(0.921, -0.391, 0.391, 0.921, 989.629, 749.963)"/><path class="f" d="M0,0,1.128.159l.345,6.483L.35,6.576Z" transform="matrix(0.921, -0.391, 0.391, 0.921, 989.27, 750.561)"/></g><g transform="translate(-868.951 -749.572)"><path class="f" d="M0,0,1.128.159l.345,6.483L.35,6.576Z" transform="matrix(0.921, -0.391, 0.391, 0.921, 989.629, 749.963)"/><path class="f" d="M0,0,1.128.159l.345,6.483L.35,6.576Z" transform="matrix(0.921, -0.391, 0.391, 0.921, 989.27, 750.561)"/></g><g transform="translate(-844.951 -749.572)"><path class="f" d="M0,0,1.128.159l.345,6.483L.35,6.576Z" transform="matrix(0.921, -0.391, 0.391, 0.921, 989.629, 749.963)"/><path class="f" d="M0,0,1.128.159l.345,6.483L.35,6.576Z" transform="matrix(0.921, -0.391, 0.391, 0.921, 989.27, 750.561)"/></g><g transform="translate(-820.951 -749.572)"><path class="f" d="M0,0,1.128.159l.345,6.483L.35,6.576Z" transform="matrix(0.921, -0.391, 0.391, 0.921, 989.629, 749.963)"/><path class="f" d="M0,0,1.128.159l.345,6.483L.35,6.576Z" transform="matrix(0.921, -0.391, 0.391, 0.921, 989.27, 750.561)"/></g><g transform="translate(-796.951 -749.572)"><path class="f" d="M0,0,1.128.159l.345,6.483L.35,6.576Z" transform="matrix(0.921, -0.391, 0.391, 0.921, 989.629, 749.963)"/><path class="f" d="M0,0,1.128.159l.345,6.483L.35,6.576Z" transform="matrix(0.921, -0.391, 0.391, 0.921, 989.27, 750.561)"/></g><g transform="translate(-772.951 -749.572)"><path class="f" d="M0,0,1.128.159l.345,6.483L.35,6.576Z" transform="matrix(0.921, -0.391, 0.391, 0.921, 989.629, 749.963)"/><path class="f" d="M0,0,1.128.159l.345,6.483L.35,6.576Z" transform="matrix(0.921, -0.391, 0.391, 0.921, 989.27, 750.561)"/></g><g transform="translate(-748.951 -749.572)"><path class="f" d="M0,0,1.128.159l.345,6.483L.35,6.576Z" transform="matrix(0.921, -0.391, 0.391, 0.921, 989.629, 749.963)"/><path class="f" d="M0,0,1.128.159l.345,6.483L.35,6.576Z" transform="matrix(0.921, -0.391, 0.391, 0.921, 989.27, 750.561)"/></g></g><g class="i" transform="translate(581 893.572)"><g transform="translate(-988.951 -749.572)"><path class="f" d="M0,0,1.128.159l.345,6.483L.35,6.576Z" transform="matrix(0.921, -0.391, 0.391, 0.921, 989.629, 749.963)"/><path class="f" d="M0,0,1.128.159l.345,6.483L.35,6.576Z" transform="matrix(0.921, -0.391, 0.391, 0.921, 989.27, 750.561)"/></g><g transform="translate(-964.951 -749.572)"><path class="f" d="M0,0,1.128.159l.345,6.483L.35,6.576Z" transform="matrix(0.921, -0.391, 0.391, 0.921, 989.629, 749.963)"/><path class="f" d="M0,0,1.128.159l.345,6.483L.35,6.576Z" transform="matrix(0.921, -0.391, 0.391, 0.921, 989.27, 750.561)"/></g><g transform="translate(-940.951 -749.572)"><path class="f" d="M0,0,1.128.159l.345,6.483L.35,6.576Z" transform="matrix(0.921, -0.391, 0.391, 0.921, 989.629, 749.963)"/><path class="f" d="M0,0,1.128.159l.345,6.483L.35,6.576Z" transform="matrix(0.921, -0.391, 0.391, 0.921, 989.27, 750.561)"/></g><g transform="translate(-916.951 -749.572)"><path class="f" d="M0,0,1.128.159l.345,6.483L.35,6.576Z" transform="matrix(0.921, -0.391, 0.391, 0.921, 989.629, 749.963)"/><path class="f" d="M0,0,1.128.159l.345,6.483L.35,6.576Z" transform="matrix(0.921, -0.391, 0.391, 0.921, 989.27, 750.561)"/></g><g transform="translate(-892.951 -749.572)"><path class="f" d="M0,0,1.128.159l.345,6.483L.35,6.576Z" transform="matrix(0.921, -0.391, 0.391, 0.921, 989.629, 749.963)"/><path class="f" d="M0,0,1.128.159l.345,6.483L.35,6.576Z" transform="matrix(0.921, -0.391, 0.391, 0.921, 989.27, 750.561)"/></g><g transform="translate(-868.951 -749.572)"><path class="f" d="M0,0,1.128.159l.345,6.483L.35,6.576Z" transform="matrix(0.921, -0.391, 0.391, 0.921, 989.629, 749.963)"/><path class="f" d="M0,0,1.128.159l.345,6.483L.35,6.576Z" transform="matrix(0.921, -0.391, 0.391, 0.921, 989.27, 750.561)"/></g><g transform="translate(-844.951 -749.572)"><path class="f" d="M0,0,1.128.159l.345,6.483L.35,6.576Z" transform="matrix(0.921, -0.391, 0.391, 0.921, 989.629, 749.963)"/><path class="f" d="M0,0,1.128.159l.345,6.483L.35,6.576Z" transform="matrix(0.921, -0.391, 0.391, 0.921, 989.27, 750.561)"/></g><g transform="translate(-820.951 -749.572)"><path class="f" d="M0,0,1.128.159l.345,6.483L.35,6.576Z" transform="matrix(0.921, -0.391, 0.391, 0.921, 989.629, 749.963)"/><path class="f" d="M0,0,1.128.159l.345,6.483L.35,6.576Z" transform="matrix(0.921, -0.391, 0.391, 0.921, 989.27, 750.561)"/></g><g transform="translate(-796.951 -749.572)"><path class="f" d="M0,0,1.128.159l.345,6.483L.35,6.576Z" transform="matrix(0.921, -0.391, 0.391, 0.921, 989.629, 749.963)"/><path class="f" d="M0,0,1.128.159l.345,6.483L.35,6.576Z" transform="matrix(0.921, -0.391, 0.391, 0.921, 989.27, 750.561)"/></g><g transform="translate(-772.951 -749.572)"><path class="f" d="M0,0,1.128.159l.345,6.483L.35,6.576Z" transform="matrix(0.921, -0.391, 0.391, 0.921, 989.629, 749.963)"/><path class="f" d="M0,0,1.128.159l.345,6.483L.35,6.576Z" transform="matrix(0.921, -0.391, 0.391, 0.921, 989.27, 750.561)"/></g><g transform="translate(-748.951 -749.572)"><path class="f" d="M0,0,1.128.159l.345,6.483L.35,6.576Z" transform="matrix(0.921, -0.391, 0.391, 0.921, 989.629, 749.963)"/><path class="f" d="M0,0,1.128.159l.345,6.483L.35,6.576Z" transform="matrix(0.921, -0.391, 0.391, 0.921, 989.27, 750.561)"/></g></g><g class="i" transform="translate(568 921.572)"><g transform="translate(-988.951 -749.572)"><path class="f" d="M0,0,1.128.159l.345,6.483L.35,6.576Z" transform="matrix(0.921, -0.391, 0.391, 0.921, 989.629, 749.963)"/><path class="f" d="M0,0,1.128.159l.345,6.483L.35,6.576Z" transform="matrix(0.921, -0.391, 0.391, 0.921, 989.27, 750.561)"/></g><g transform="translate(-964.951 -749.572)"><path class="f" d="M0,0,1.128.159l.345,6.483L.35,6.576Z" transform="matrix(0.921, -0.391, 0.391, 0.921, 989.629, 749.963)"/><path class="f" d="M0,0,1.128.159l.345,6.483L.35,6.576Z" transform="matrix(0.921, -0.391, 0.391, 0.921, 989.27, 750.561)"/></g><g transform="translate(-940.951 -749.572)"><path class="f" d="M0,0,1.128.159l.345,6.483L.35,6.576Z" transform="matrix(0.921, -0.391, 0.391, 0.921, 989.629, 749.963)"/><path class="f" d="M0,0,1.128.159l.345,6.483L.35,6.576Z" transform="matrix(0.921, -0.391, 0.391, 0.921, 989.27, 750.561)"/></g><g transform="translate(-916.951 -749.572)"><path class="f" d="M0,0,1.128.159l.345,6.483L.35,6.576Z" transform="matrix(0.921, -0.391, 0.391, 0.921, 989.629, 749.963)"/><path class="f" d="M0,0,1.128.159l.345,6.483L.35,6.576Z" transform="matrix(0.921, -0.391, 0.391, 0.921, 989.27, 750.561)"/></g><g transform="translate(-892.951 -749.572)"><path class="f" d="M0,0,1.128.159l.345,6.483L.35,6.576Z" transform="matrix(0.921, -0.391, 0.391, 0.921, 989.629, 749.963)"/><path class="f" d="M0,0,1.128.159l.345,6.483L.35,6.576Z" transform="matrix(0.921, -0.391, 0.391, 0.921, 989.27, 750.561)"/></g><g transform="translate(-868.951 -749.572)"><path class="f" d="M0,0,1.128.159l.345,6.483L.35,6.576Z" transform="matrix(0.921, -0.391, 0.391, 0.921, 989.629, 749.963)"/><path class="f" d="M0,0,1.128.159l.345,6.483L.35,6.576Z" transform="matrix(0.921, -0.391, 0.391, 0.921, 989.27, 750.561)"/></g><g transform="translate(-844.951 -749.572)"><path class="f" d="M0,0,1.128.159l.345,6.483L.35,6.576Z" transform="matrix(0.921, -0.391, 0.391, 0.921, 989.629, 749.963)"/><path class="f" d="M0,0,1.128.159l.345,6.483L.35,6.576Z" transform="matrix(0.921, -0.391, 0.391, 0.921, 989.27, 750.561)"/></g><g transform="translate(-820.951 -749.572)"><path class="f" d="M0,0,1.128.159l.345,6.483L.35,6.576Z" transform="matrix(0.921, -0.391, 0.391, 0.921, 989.629, 749.963)"/><path class="f" d="M0,0,1.128.159l.345,6.483L.35,6.576Z" transform="matrix(0.921, -0.391, 0.391, 0.921, 989.27, 750.561)"/></g><g transform="translate(-796.951 -749.572)"><path class="f" d="M0,0,1.128.159l.345,6.483L.35,6.576Z" transform="matrix(0.921, -0.391, 0.391, 0.921, 989.629, 749.963)"/><path class="f" d="M0,0,1.128.159l.345,6.483L.35,6.576Z" transform="matrix(0.921, -0.391, 0.391, 0.921, 989.27, 750.561)"/></g><g transform="translate(-772.951 -749.572)"><path class="f" d="M0,0,1.128.159l.345,6.483L.35,6.576Z" transform="matrix(0.921, -0.391, 0.391, 0.921, 989.629, 749.963)"/><path class="f" d="M0,0,1.128.159l.345,6.483L.35,6.576Z" transform="matrix(0.921, -0.391, 0.391, 0.921, 989.27, 750.561)"/></g><g transform="translate(-748.951 -749.572)"><path class="f" d="M0,0,1.128.159l.345,6.483L.35,6.576Z" transform="matrix(0.921, -0.391, 0.391, 0.921, 989.629, 749.963)"/><path class="f" d="M0,0,1.128.159l.345,6.483L.35,6.576Z" transform="matrix(0.921, -0.391, 0.391, 0.921, 989.27, 750.561)"/></g></g></g><g class="j"><g class="k" transform="translate(632.248 608.29)"><g transform="translate(-988.951 -749.572)"><path class="l" d="M0,0,1.128.159l.345,6.483L.35,6.576Z" transform="matrix(0.921, -0.391, 0.391, 0.921, 989.629, 749.963)"/><path class="l" d="M0,0,1.128.159l.345,6.483L.35,6.576Z" transform="matrix(0.921, -0.391, 0.391, 0.921, 989.27, 750.561)"/></g><g transform="translate(-964.951 -749.572)"><path class="l" d="M0,0,1.128.159l.345,6.483L.35,6.576Z" transform="matrix(0.921, -0.391, 0.391, 0.921, 989.629, 749.963)"/><path class="l" d="M0,0,1.128.159l.345,6.483L.35,6.576Z" transform="matrix(0.921, -0.391, 0.391, 0.921, 989.27, 750.561)"/></g><g transform="translate(-940.951 -749.572)"><path class="l" d="M0,0,1.128.159l.345,6.483L.35,6.576Z" transform="matrix(0.921, -0.391, 0.391, 0.921, 989.629, 749.963)"/><path class="l" d="M0,0,1.128.159l.345,6.483L.35,6.576Z" transform="matrix(0.921, -0.391, 0.391, 0.921, 989.27, 750.561)"/></g><g transform="translate(-916.951 -749.572)"><path class="l" d="M0,0,1.128.159l.345,6.483L.35,6.576Z" transform="matrix(0.921, -0.391, 0.391, 0.921, 989.629, 749.963)"/><path class="l" d="M0,0,1.128.159l.345,6.483L.35,6.576Z" transform="matrix(0.921, -0.391, 0.391, 0.921, 989.27, 750.561)"/></g><g transform="translate(-892.951 -749.572)"><path class="l" d="M0,0,1.128.159l.345,6.483L.35,6.576Z" transform="matrix(0.921, -0.391, 0.391, 0.921, 989.629, 749.963)"/><path class="l" d="M0,0,1.128.159l.345,6.483L.35,6.576Z" transform="matrix(0.921, -0.391, 0.391, 0.921, 989.27, 750.561)"/></g><g transform="translate(-868.951 -749.572)"><path class="l" d="M0,0,1.128.159l.345,6.483L.35,6.576Z" transform="matrix(0.921, -0.391, 0.391, 0.921, 989.629, 749.963)"/><path class="l" d="M0,0,1.128.159l.345,6.483L.35,6.576Z" transform="matrix(0.921, -0.391, 0.391, 0.921, 989.27, 750.561)"/></g></g><g class="k" transform="translate(634.873 656.29)"><g transform="translate(-988.951 -749.572)"><path class="l" d="M0,0,1.128.159l.345,6.483L.35,6.576Z" transform="matrix(0.921, -0.391, 0.391, 0.921, 989.629, 749.963)"/><path class="l" d="M0,0,1.128.159l.345,6.483L.35,6.576Z" transform="matrix(0.921, -0.391, 0.391, 0.921, 989.27, 750.561)"/></g><g transform="translate(-964.951 -749.572)"><path class="l" d="M0,0,1.128.159l.345,6.483L.35,6.576Z" transform="matrix(0.921, -0.391, 0.391, 0.921, 989.629, 749.963)"/><path class="l" d="M0,0,1.128.159l.345,6.483L.35,6.576Z" transform="matrix(0.921, -0.391, 0.391, 0.921, 989.27, 750.561)"/></g><g transform="translate(-940.951 -749.572)"><path class="l" d="M0,0,1.128.159l.345,6.483L.35,6.576Z" transform="matrix(0.921, -0.391, 0.391, 0.921, 989.629, 749.963)"/><path class="l" d="M0,0,1.128.159l.345,6.483L.35,6.576Z" transform="matrix(0.921, -0.391, 0.391, 0.921, 989.27, 750.561)"/></g><g transform="translate(-916.951 -749.572)"><path class="l" d="M0,0,1.128.159l.345,6.483L.35,6.576Z" transform="matrix(0.921, -0.391, 0.391, 0.921, 989.629, 749.963)"/><path class="l" d="M0,0,1.128.159l.345,6.483L.35,6.576Z" transform="matrix(0.921, -0.391, 0.391, 0.921, 989.27, 750.561)"/></g><g transform="translate(-892.951 -749.572)"><path class="l" d="M0,0,1.128.159l.345,6.483L.35,6.576Z" transform="matrix(0.921, -0.391, 0.391, 0.921, 989.629, 749.963)"/><path class="l" d="M0,0,1.128.159l.345,6.483L.35,6.576Z" transform="matrix(0.921, -0.391, 0.391, 0.921, 989.27, 750.561)"/></g><g transform="translate(-868.951 -749.572)"><path class="l" d="M0,0,1.128.159l.345,6.483L.35,6.576Z" transform="matrix(0.921, -0.391, 0.391, 0.921, 989.629, 749.963)"/><path class="l" d="M0,0,1.128.159l.345,6.483L.35,6.576Z" transform="matrix(0.921, -0.391, 0.391, 0.921, 989.27, 750.561)"/></g></g><g class="k" transform="translate(623.998 621.29)"><g transform="translate(-988.951 -749.572)"><path class="l" d="M0,0,1.128.159l.345,6.483L.35,6.576Z" transform="matrix(0.921, -0.391, 0.391, 0.921, 989.629, 749.963)"/><path class="l" d="M0,0,1.128.159l.345,6.483L.35,6.576Z" transform="matrix(0.921, -0.391, 0.391, 0.921, 989.27, 750.561)"/></g><g transform="translate(-964.951 -749.572)"><path class="l" d="M0,0,1.128.159l.345,6.483L.35,6.576Z" transform="matrix(0.921, -0.391, 0.391, 0.921, 989.629, 749.963)"/><path class="l" d="M0,0,1.128.159l.345,6.483L.35,6.576Z" transform="matrix(0.921, -0.391, 0.391, 0.921, 989.27, 750.561)"/></g><g transform="translate(-940.951 -749.572)"><path class="l" d="M0,0,1.128.159l.345,6.483L.35,6.576Z" transform="matrix(0.921, -0.391, 0.391, 0.921, 989.629, 749.963)"/><path class="l" d="M0,0,1.128.159l.345,6.483L.35,6.576Z" transform="matrix(0.921, -0.391, 0.391, 0.921, 989.27, 750.561)"/></g><g transform="translate(-916.951 -749.572)"><path class="l" d="M0,0,1.128.159l.345,6.483L.35,6.576Z" transform="matrix(0.921, -0.391, 0.391, 0.921, 989.629, 749.963)"/><path class="l" d="M0,0,1.128.159l.345,6.483L.35,6.576Z" transform="matrix(0.921, -0.391, 0.391, 0.921, 989.27, 750.561)"/></g><g transform="translate(-892.951 -749.572)"><path class="l" d="M0,0,1.128.159l.345,6.483L.35,6.576Z" transform="matrix(0.921, -0.391, 0.391, 0.921, 989.629, 749.963)"/><path class="l" d="M0,0,1.128.159l.345,6.483L.35,6.576Z" transform="matrix(0.921, -0.391, 0.391, 0.921, 989.27, 750.561)"/></g><g transform="translate(-868.951 -749.572)"><path class="l" d="M0,0,1.128.159l.345,6.483L.35,6.576Z" transform="matrix(0.921, -0.391, 0.391, 0.921, 989.629, 749.963)"/><path class="l" d="M0,0,1.128.159l.345,6.483L.35,6.576Z" transform="matrix(0.921, -0.391, 0.391, 0.921, 989.27, 750.561)"/></g></g><g class="k" transform="translate(626.623 669.29)"><g transform="translate(-988.951 -749.572)"><path class="l" d="M0,0,1.128.159l.345,6.483L.35,6.576Z" transform="matrix(0.921, -0.391, 0.391, 0.921, 989.629, 749.963)"/><path class="l" d="M0,0,1.128.159l.345,6.483L.35,6.576Z" transform="matrix(0.921, -0.391, 0.391, 0.921, 989.27, 750.561)"/></g><g transform="translate(-964.951 -749.572)"><path class="l" d="M0,0,1.128.159l.345,6.483L.35,6.576Z" transform="matrix(0.921, -0.391, 0.391, 0.921, 989.629, 749.963)"/><path class="l" d="M0,0,1.128.159l.345,6.483L.35,6.576Z" transform="matrix(0.921, -0.391, 0.391, 0.921, 989.27, 750.561)"/></g><g transform="translate(-940.951 -749.572)"><path class="l" d="M0,0,1.128.159l.345,6.483L.35,6.576Z" transform="matrix(0.921, -0.391, 0.391, 0.921, 989.629, 749.963)"/><path class="l" d="M0,0,1.128.159l.345,6.483L.35,6.576Z" transform="matrix(0.921, -0.391, 0.391, 0.921, 989.27, 750.561)"/></g><g transform="translate(-916.951 -749.572)"><path class="l" d="M0,0,1.128.159l.345,6.483L.35,6.576Z" transform="matrix(0.921, -0.391, 0.391, 0.921, 989.629, 749.963)"/><path class="l" d="M0,0,1.128.159l.345,6.483L.35,6.576Z" transform="matrix(0.921, -0.391, 0.391, 0.921, 989.27, 750.561)"/></g><g transform="translate(-892.951 -749.572)"><path class="l" d="M0,0,1.128.159l.345,6.483L.35,6.576Z" transform="matrix(0.921, -0.391, 0.391, 0.921, 989.629, 749.963)"/><path class="l" d="M0,0,1.128.159l.345,6.483L.35,6.576Z" transform="matrix(0.921, -0.391, 0.391, 0.921, 989.27, 750.561)"/></g><g transform="translate(-868.951 -749.572)"><path class="l" d="M0,0,1.128.159l.345,6.483L.35,6.576Z" transform="matrix(0.921, -0.391, 0.391, 0.921, 989.629, 749.963)"/><path class="l" d="M0,0,1.128.159l.345,6.483L.35,6.576Z" transform="matrix(0.921, -0.391, 0.391, 0.921, 989.27, 750.561)"/></g></g><g class="k" transform="translate(635.248 634.29)"><g transform="translate(-988.951 -749.572)"><path class="l" d="M0,0,1.128.159l.345,6.483L.35,6.576Z" transform="matrix(0.921, -0.391, 0.391, 0.921, 989.629, 749.963)"/><path class="l" d="M0,0,1.128.159l.345,6.483L.35,6.576Z" transform="matrix(0.921, -0.391, 0.391, 0.921, 989.27, 750.561)"/></g><g transform="translate(-964.951 -749.572)"><path class="l" d="M0,0,1.128.159l.345,6.483L.35,6.576Z" transform="matrix(0.921, -0.391, 0.391, 0.921, 989.629, 749.963)"/><path class="l" d="M0,0,1.128.159l.345,6.483L.35,6.576Z" transform="matrix(0.921, -0.391, 0.391, 0.921, 989.27, 750.561)"/></g><g transform="translate(-940.951 -749.572)"><path class="l" d="M0,0,1.128.159l.345,6.483L.35,6.576Z" transform="matrix(0.921, -0.391, 0.391, 0.921, 989.629, 749.963)"/><path class="l" d="M0,0,1.128.159l.345,6.483L.35,6.576Z" transform="matrix(0.921, -0.391, 0.391, 0.921, 989.27, 750.561)"/></g><g transform="translate(-916.951 -749.572)"><path class="l" d="M0,0,1.128.159l.345,6.483L.35,6.576Z" transform="matrix(0.921, -0.391, 0.391, 0.921, 989.629, 749.963)"/><path class="l" d="M0,0,1.128.159l.345,6.483L.35,6.576Z" transform="matrix(0.921, -0.391, 0.391, 0.921, 989.27, 750.561)"/></g><g transform="translate(-892.951 -749.572)"><path class="l" d="M0,0,1.128.159l.345,6.483L.35,6.576Z" transform="matrix(0.921, -0.391, 0.391, 0.921, 989.629, 749.963)"/><path class="l" d="M0,0,1.128.159l.345,6.483L.35,6.576Z" transform="matrix(0.921, -0.391, 0.391, 0.921, 989.27, 750.561)"/></g><g transform="translate(-868.951 -749.572)"><path class="l" d="M0,0,1.128.159l.345,6.483L.35,6.576Z" transform="matrix(0.921, -0.391, 0.391, 0.921, 989.629, 749.963)"/><path class="l" d="M0,0,1.128.159l.345,6.483L.35,6.576Z" transform="matrix(0.921, -0.391, 0.391, 0.921, 989.27, 750.561)"/></g></g><g class="k" transform="translate(623.998 645.29)"><g transform="translate(-988.951 -749.572)"><path class="l" d="M0,0,1.128.159l.345,6.483L.35,6.576Z" transform="matrix(0.921, -0.391, 0.391, 0.921, 989.629, 749.963)"/><path class="l" d="M0,0,1.128.159l.345,6.483L.35,6.576Z" transform="matrix(0.921, -0.391, 0.391, 0.921, 989.27, 750.561)"/></g><g transform="translate(-964.951 -749.572)"><path class="l" d="M0,0,1.128.159l.345,6.483L.35,6.576Z" transform="matrix(0.921, -0.391, 0.391, 0.921, 989.629, 749.963)"/><path class="l" d="M0,0,1.128.159l.345,6.483L.35,6.576Z" transform="matrix(0.921, -0.391, 0.391, 0.921, 989.27, 750.561)"/></g><g transform="translate(-940.951 -749.572)"><path class="l" d="M0,0,1.128.159l.345,6.483L.35,6.576Z" transform="matrix(0.921, -0.391, 0.391, 0.921, 989.629, 749.963)"/><path class="l" d="M0,0,1.128.159l.345,6.483L.35,6.576Z" transform="matrix(0.921, -0.391, 0.391, 0.921, 989.27, 750.561)"/></g><g transform="translate(-916.951 -749.572)"><path class="l" d="M0,0,1.128.159l.345,6.483L.35,6.576Z" transform="matrix(0.921, -0.391, 0.391, 0.921, 989.629, 749.963)"/><path class="l" d="M0,0,1.128.159l.345,6.483L.35,6.576Z" transform="matrix(0.921, -0.391, 0.391, 0.921, 989.27, 750.561)"/></g><g transform="translate(-892.951 -749.572)"><path class="l" d="M0,0,1.128.159l.345,6.483L.35,6.576Z" transform="matrix(0.921, -0.391, 0.391, 0.921, 989.629, 749.963)"/><path class="l" d="M0,0,1.128.159l.345,6.483L.35,6.576Z" transform="matrix(0.921, -0.391, 0.391, 0.921, 989.27, 750.561)"/></g><g transform="translate(-868.951 -749.572)"><path class="l" d="M0,0,1.128.159l.345,6.483L.35,6.576Z" transform="matrix(0.921, -0.391, 0.391, 0.921, 989.629, 749.963)"/><path class="l" d="M0,0,1.128.159l.345,6.483L.35,6.576Z" transform="matrix(0.921, -0.391, 0.391, 0.921, 989.27, 750.561)"/></g></g></g></g></svg>