<svg xmlns="http://www.w3.org/2000/svg" width="24" height="24" viewBox="0 0 24 24"><defs><style>.a{fill:none;}.b{fill:#999;}</style></defs><g transform="translate(-701 -3122)"><rect class="a" width="24" height="24" transform="translate(701 3122)"/><path class="b" d="M14,18a1,1,0,0,1-1-1V11a1,1,0,0,1,2,0v6A1,1,0,0,1,14,18Z" transform="translate(701 3122)"/><path class="b" d="M10,18a1,1,0,0,1-1-1V11a1,1,0,0,1,2,0v6A1,1,0,0,1,10,18Z" transform="translate(701 3122)"/><path class="b" d="M16,4H8A1,1,0,0,1,8,2h8a1,1,0,0,1,0,2Z" transform="translate(701 3122)"/><path class="b" d="M21,5H3A1,1,0,0,0,3,7H4.533L5.41,19.279A2.4,2.4,0,0,0,7.8,21.5H16.2a2.4,2.4,0,0,0,2.386-2.222L19.467,7H21a1,1,0,0,0,0-2ZM16.6,19.135a.4.4,0,0,1-.392.365H7.8a.4.4,0,0,1-.392-.364L6.574,7H17.426Z" transform="translate(701 3122)"/></g></svg>