<svg xmlns="http://www.w3.org/2000/svg" width="20" height="20" viewBox="0 0 20 20"><defs><style>.a{fill:none;}.b{fill:#212121;}</style></defs><rect class="a" width="20" height="20"/><path class="b" d="M14.17,1.17a2.431,2.431,0,0,0-1.814,2.39v1.4a.486.486,0,0,1-.369.489L6.654,6.831H5.028A2.075,2.075,0,0,0,2.993,8.365a2.2,2.2,0,0,0,0,.873.879.879,0,0,1-.228.816,2.29,2.29,0,0,0-.526,1.575c0,.759.7.987.9,1.632.079.294-.212.571-.212.889,0,.759.785,1.093,1,1.762.126.432-.275.873-.149,1.379a2.076,2.076,0,0,0,2.034,1.55h4.878a2.335,2.335,0,0,0,2.026-1.134,1.82,1.82,0,0,0,.2-1.362,4.741,4.741,0,0,0,3.959-4.715V3.47a2.386,2.386,0,0,0-.83-1.817A2.2,2.2,0,0,0,14.17,1.17ZM11.028,17.437H5.68a.593.593,0,0,1-.581-.6.645.645,0,0,1,.094-.31,1.186,1.186,0,0,0-.11-1.33c-.2-.228-.73-.71-.73-1.052a.631.631,0,0,1,.055-.237,1.066,1.066,0,0,0-.165-1.3,1.306,1.306,0,0,1-.621-1.077,1.345,1.345,0,0,1,.448-1.052,1.238,1.238,0,0,0,.338-1.3A.649.649,0,0,1,4.352,8.9a.593.593,0,0,1,.581-.6h6.88a.593.593,0,0,1,.581.6.6.6,0,0,1-.581.62H7.549a.71.71,0,0,0,0,1.42H12.56a.6.6,0,0,1,.581.62.593.593,0,0,1-.581.6H7.549a.718.718,0,0,0,0,1.436h4.226a.593.593,0,0,1,.581.6.6.6,0,0,1-.581.62H8.334a.71.71,0,0,0,0,1.42h2.655a.6.6,0,0,1,.581.62.591.591,0,0,1-.581.571ZM15.5,11.628a3.366,3.366,0,0,1-1.822,3.01,1.792,1.792,0,0,0,.063-.465,2,2,0,0,0-.212-.914,2.045,2.045,0,0,0,0-3.516,2.037,2.037,0,0,0-1.359-2.888h.141A1.921,1.921,0,0,0,13.73,4.979V3.47a.88.88,0,1,1,1.759,0Z" transform="translate(0)"/></svg>