<svg xmlns="http://www.w3.org/2000/svg" width="24" height="24" viewBox="0 0 24 24"><defs><style>.a{fill:none;}.b{fill:#fff;}</style></defs><rect class="a" width="24" height="24"/><g transform="translate(2 2.25)"><path class="b" d="M3,22a1,1,0,0,1-1-1V16a1,1,0,0,1,.293-.707l13-13a1,1,0,0,1,1.414,0l5,5a1,1,0,0,1,0,1.414l-12.5,12.5a1,1,0,0,1-.616.289l-5.5.5C3.061,22,3.03,22,3,22Zm1-5.586v3.491l4.049-.368L19.586,8,16,4.414Z" transform="translate(-2 -2)"/><path class="b" d="M15.75,10.75a1,1,0,0,1-.707-.293l-1.5-1.5a1,1,0,0,1,1.414-1.414l1.5,1.5a1,1,0,0,1-.707,1.707Z" transform="translate(-2 -2)"/></g></svg>