<svg id="Layer_1" data-name="Layer 1" xmlns="http://www.w3.org/2000/svg" viewBox="0 0 24 24"><defs><style>.cls-1{fill:none;}.cls-2{fill:#3c424e;}</style></defs><rect class="cls-1" width="24" height="24"/><path class="cls-2" d="M8,12a3.93,3.93,0,0,0,.65,2.17L12.07,8H12A4,4,0,0,0,8,12Z"/><path class="cls-2" d="M3,12a11.11,11.11,0,0,1,9-5c.21,0,.41,0,.62,0l1.05-1.9A13,13,0,0,0,12,5C5.56,5,1,10.31,1,12c0,1.17,2.19,4.07,5.66,5.75l1-1.76A10.85,10.85,0,0,1,3,12Z"/><path class="cls-2" d="M17.33,6.26l1.54-2.77a1,1,0,0,0-1.74-1l-10,18a1,1,0,0,0,.38,1.36A1,1,0,0,0,8,22a1,1,0,0,0,.87-.51l1.45-2.62A11.66,11.66,0,0,0,12,19c6.44,0,11-5.31,11-7C23,10.83,20.81,7.94,17.33,6.26ZM12,17c-.21,0-.41,0-.61,0l.53-1H12a4,4,0,0,0,3.35-6.16l1-1.82A10.9,10.9,0,0,1,21,12,11.11,11.11,0,0,1,12,17Z"/></svg>