<svg xmlns="http://www.w3.org/2000/svg" width="18" height="18" viewBox="0 0 18 18"><defs><style>.a{fill:none;}.b{fill:#212121;}</style></defs><rect class="a" width="18" height="18"/><g transform="translate(3.75 3.75)"><path class="b" d="M-31.188,9.823-35.9,5.185a.65.65,0,0,0-.91,0,.626.626,0,0,0,0,.9l4.258,4.19-4.215,4.148a.626.626,0,0,0,0,.9.652.652,0,0,0,.91,0l4.67-4.6A.628.628,0,0,0-31,10.271.628.628,0,0,0-31.188,9.823Z" transform="translate(41.5 -5)"/><path class="b" d="M-37,10.271a.628.628,0,0,0-.188-.448L-41.9,5.185a.65.65,0,0,0-.91,0,.626.626,0,0,0,0,.9l4.258,4.19-4.215,4.148a.626.626,0,0,0,0,.9.652.652,0,0,0,.91,0l4.67-4.6A.628.628,0,0,0-37,10.271Z" transform="translate(43 -5)"/></g></svg>