<svg xmlns="http://www.w3.org/2000/svg" width="397" height="156" viewBox="0 0 397 156"><defs><style>.a,.b{fill:#ffd100;}.b{font-size:42px;font-family:Montserrat-Black, Montserrat;font-weight:800;}.c{fill:#6e7075;}</style></defs><path class="a" d="M383,46H364.274a12.01,12.01,0,0,0,5.331-3.436,9.967,9.967,0,0,0,2.132-4.255,12.206,12.206,0,0,0,.08-5.15l0-.011c-.149-.646-3.692-15.935-5.932-25.7A18.414,18.414,0,0,0,362.55,0H383Zm-46.633,0H0V0H334.394a15.487,15.487,0,0,0-4.876,4.945A14.08,14.08,0,0,0,327.686,10a14.707,14.707,0,0,0,.136,5.523l.012.053c.548,2.531,3.389,15.606,5.437,24.469a12.512,12.512,0,0,0,3.1,5.951Z" transform="translate(2.501 54.501)"/><path class="a" d="M1,85.5c0-2.737,7.8-5,18.022-5.43V59.646a7.5,7.5,0,0,0,6.854-.949v21.37C36.146,80.481,44,82.755,44,85.5c0,3.037-9.626,5.5-21.5,5.5S1,88.538,1,85.5ZM18.645,57.082a3.951,3.951,0,0,1-1.082-1.851q-1.308-4.379-2.614-8.759c-.063-.222-.156-.281-.39-.27A10.7,10.7,0,0,1,9.9,45.558a6.573,6.573,0,0,1-3.651-3.733,24.681,24.681,0,0,1-.784-2.569c-.065-.231.053-.376.254-.512a30.562,30.562,0,0,1,4.827-2.521.991.991,0,0,0,.606-1.33.981.981,0,0,0-1.391-.448q-1.787.836-3.562,1.692c-.274.131-.523.317-.8.453a.411.411,0,0,1-.618-.313c-.084-.362-.154-.727-.24-1.087a.476.476,0,0,1,.29-.537c.958-.6,1.911-1.2,2.893-1.758.647-.365,1.343-.643,2.014-.969a.97.97,0,1,0-.8-1.767q-2.158,1.087-4.285,2.231c-.487.258-.688.2-.8-.347a2.221,2.221,0,0,0-.084-.385A1.009,1.009,0,0,1,4.2,30.342,21.76,21.76,0,0,1,8.151,28c.224-.111.455-.213.682-.324a.973.973,0,0,0,.5-1.3.95.95,0,0,0-1.271-.48,26.124,26.124,0,0,0-4.3,2.335c-.474.328-.706.238-.829-.315a.752.752,0,0,0-.024-.131c-.345-.754.022-1.25.582-1.717a18.339,18.339,0,0,1,3.356-2.125c.36-.188.729-.356,1.092-.541a.986.986,0,0,0,.484-1.307.967.967,0,0,0-1.317-.446,24.246,24.246,0,0,0-4.3,2.476c-.388.288-.6.179-.771-.26a1.571,1.571,0,0,1,.544-1.889,16.127,16.127,0,0,1,3.655-2.437c.281-.15.573-.279.85-.435A.967.967,0,0,0,6.2,17.388a20.47,20.47,0,0,0-4.3,2.6c-.344.285-.6.165-.759-.251a1.593,1.593,0,0,1,.51-1.873A16.667,16.667,0,0,1,5.5,15.2c.2-.109.41-.213.616-.312a1,1,0,0,0,.489-1.327.964.964,0,0,0-1.316-.444c-.452.222-.9.464-1.336.709A15.268,15.268,0,0,0,.437,16.365a9.767,9.767,0,0,1,.2-6.374,12.267,12.267,0,0,1,4.532-5.42A28.462,28.462,0,0,1,12.117.947a3.588,3.588,0,0,1,2.354.179,3.633,3.633,0,0,1,2.342,2.41,14.146,14.146,0,0,1,.539,2.1c.131.7.487,1.015,1.119.951a1.015,1.015,0,0,0,.89-1.243C19.18,4.686,19.109,4,18.926,3.35A4.873,4.873,0,0,0,16.5.043a5.648,5.648,0,0,1,4.254,1.214,7.313,7.313,0,0,1,2.294,4.5c.027.14.05.281.084.419a.849.849,0,0,0,.946.711.859.859,0,0,0,.8-.974A8.017,8.017,0,0,0,22.452.693,4.532,4.532,0,0,0,22,.369c-.144-.1-.29-.186-.437-.276L21.589,0c.436.086.884.138,1.308.265a5.842,5.842,0,0,1,3.813,4.158,16.675,16.675,0,0,1,.47,1.948.768.768,0,0,0,.9.693.748.748,0,0,0,.646-.96c-.1-.5-.193-.994-.333-1.475s-.345-.942-.46-1.459c.364.544.757,1.074,1.092,1.633a11.765,11.765,0,0,1,1.291,3.778c.059.292-.041.356-.349.3-1.015-.167-2.032-.337-3.054-.469a.942.942,0,0,0-1.12.845.97.97,0,0,0,.909,1.076c1,.156,2,.29,2.979.5a1.847,1.847,0,0,1,1.5,1.7c.063.453-.018.519-.471.455-1-.143-1.993-.285-3-.385a.948.948,0,0,0-1.1.908c-.031.559.385.949,1.013,1.026,1,.12,2,.231,2.989.435a1.715,1.715,0,0,1,1.477,1.7c.053.428-.045.5-.464.453-1.023-.12-2.05-.231-3.076-.313a.953.953,0,0,0-1.1.913,1,1,0,0,0,1.02,1.021c.97.088,1.943.17,2.908.319A1.712,1.712,0,0,1,33,20.811c.043.419-.057.5-.476.469-1.037-.088-2.075-.174-3.114-.242a.958.958,0,0,0-1.107.908.976.976,0,0,0,1,1.031c1.015.082,2.036.134,3.047.256a1.62,1.62,0,0,1,1.561,1.717c.014.4-.072.487-.476.469-1.073-.052-2.147-.127-3.221-.141a1.43,1.43,0,0,0-.793.3.808.808,0,0,0-.229.933.86.86,0,0,0,.709.657c.321.05.654.032.982.054.906.068,1.819.1,2.719.224.972.129,1.214,1.01,1.211,1.771,0,.308-.235.36-.489.353-.69-.025-1.379-.054-2.072-.07-.417-.009-.833-.009-1.25,0a.976.976,0,1,0,.027,1.95c1.207.016,2.412.025,3.621.048.553.009.743.131.868.664.267,1.142.555,2.281.735,3.438a5.634,5.634,0,0,1-2.577,5.758,18.93,18.93,0,0,1-4.733,2.34c-1,.36-2.025.641-3.047.936-.264.075-.336.179-.293.453.391,2.446.782,4.892,1.138,7.345a4.5,4.5,0,0,1-.63,3.06,5.32,5.32,0,0,1-3.6,2.514,5.456,5.456,0,0,1-1.145.127A3.911,3.911,0,0,1,18.645,57.082Zm1.031-3.812a2.171,2.171,0,0,0,.04,2.627,1.41,1.41,0,0,0,2.209.075,2.173,2.173,0,0,0,.56-1.42,5.884,5.884,0,0,0-.2-.824,1.564,1.564,0,0,0-1.207-1.051,1.534,1.534,0,0,0-.263-.025A1.445,1.445,0,0,0,19.676,53.27Zm4.933-19.438a1,1,0,0,0-.781,1.237c.138.942.283,1.887.367,2.833a4.24,4.24,0,0,1-.3,2.03,4.192,4.192,0,0,1-2.046,2.057c-.754.4-1.549.716-2.328,1.067-.273.122-.525.283-.5.618a.609.609,0,0,0,.563.559,2.541,2.541,0,0,0,1.035.018,15.776,15.776,0,0,0,2.175-.82c2.138-1.01,3.53-2.543,3.388-5.094h.1c-.172-1.2-.342-2.4-.518-3.6a1,1,0,0,0-.98-.915A1.077,1.077,0,0,0,24.608,33.832Zm4.438.02a1.822,1.822,0,0,0,.009.682,15.052,15.052,0,0,1,.349,3.622A3.946,3.946,0,0,1,28.245,40.8a8.333,8.333,0,0,1-2.417,1.558,2.38,2.38,0,0,0-.552.342.449.449,0,0,0-.136.362c.034.093.213.17.34.188a1.024,1.024,0,0,0,.483-.039,18.8,18.8,0,0,0,1.8-.709c2.172-1.049,3.518-2.655,3.372-5.219h.093c-.165-1.115-.319-2.231-.5-3.343a.838.838,0,0,0-.807-.7h-.038A.851.851,0,0,0,29.047,33.852Zm4.206-.933a.8.8,0,0,0-.57.942,16.547,16.547,0,0,1,.421,4.21,4.447,4.447,0,0,1-.644,2.082A5.387,5.387,0,0,1,30.322,42c-.242.134-.48.279-.723.417l.038.077a1.007,1.007,0,0,0,.238-.052c.752-.383,1.526-.727,2.242-1.166a4.8,4.8,0,0,0,2.342-3.309,11.551,11.551,0,0,0-.256-4.5.743.743,0,0,0-.745-.573A.8.8,0,0,0,33.253,32.919ZM21.688,30.471c-2.052.548-4.083,1.171-6.122,1.769a.932.932,0,0,0-.718.849.973.973,0,0,0,1.368.988c1.121-.349,2.23-.725,3.354-1.053a34.176,34.176,0,0,1,7.838-1.45.965.965,0,0,0,.954-1.01.981.981,0,0,0-.9-.945h-.013A28.229,28.229,0,0,0,21.688,30.471ZM24.8,25.413A41.551,41.551,0,0,0,14.55,27.941a.893.893,0,0,0-.63.876.988.988,0,0,0,1.4.924c1.422-.473,2.845-.956,4.287-1.37a28.055,28.055,0,0,1,6.638-1.092c.852-.034,1.273-.394,1.255-1.022-.016-.6-.437-.924-1.219-.924h-.1C25.723,25.352,25.261,25.372,24.8,25.413Zm-1.466-4.279a28.152,28.152,0,0,0-5.95,1.185c-1.243.39-2.471.831-3.7,1.264a.934.934,0,0,0-.682.938.961.961,0,0,0,1.31.906c.362-.125.718-.265,1.08-.4A36.4,36.4,0,0,1,21.2,23.39a29.492,29.492,0,0,1,4.479-.424.972.972,0,0,0,.01-1.943h-.022C24.892,21.042,24.112,21.067,23.338,21.135Zm-2.772-4.127a32.106,32.106,0,0,0-7.821,2.236.978.978,0,1,0,.759,1.8c.6-.235,1.205-.473,1.814-.693a25.109,25.109,0,0,1,6.872-1.552c.852-.057,1.705-.054,2.56-.084a1.052,1.052,0,0,0,1.063-.956A1.014,1.014,0,0,0,24.658,16.7c-.383.025-.764.054-1.146.082l-.007-.075C22.524,16.808,21.542,16.883,20.565,17.008Zm-4.727-3.579c-1.389.435-2.741.978-4.1,1.5a.941.941,0,0,0-.521,1.257.985.985,0,0,0,1.26.532c.145-.052.285-.111.426-.172A23.839,23.839,0,0,1,22.5,14.412c.5,0,1.008.011,1.513,0A.965.965,0,0,0,24,12.48c-.311-.007-.62-.011-.931-.011A23.959,23.959,0,0,0,15.839,13.429ZM17.956,8.4a23.807,23.807,0,0,0-7.171,2.181.943.943,0,0,0-.553,1.024.965.965,0,0,0,1.459.691,21.134,21.134,0,0,1,9.638-2.134c.591,0,1.185.007,1.775,0a.972.972,0,1,0,.009-1.943c-.421-.007-.842-.011-1.264-.011A32.913,32.913,0,0,0,17.956,8.4Z" transform="translate(334 54)"/><text class="b" transform="translate(0 41)"><tspan x="0" y="0">MAKE YOURSELF </tspan><tspan class="c"><tspan x="0" y="52" xml:space="preserve"> HEARD </tspan></tspan><tspan x="0" y="104">EVERYWHERE</tspan></text></svg>