<svg xmlns="http://www.w3.org/2000/svg" xmlns:xlink="http://www.w3.org/1999/xlink" width="496.038" height="484.042" viewBox="0 0 496.038 484.042"><defs><style>.a{fill:#ffd214;}.a,.c,.g,.h,.i,.j,.k{stroke:#263238;}.a,.g,.h{stroke-miterlimit:10;}.a,.c,.g,.h{stroke-width:0.97px;}.b{fill:#ffe885;}.c,.g,.j{fill:none;}.c,.i,.j,.k{stroke-linecap:round;stroke-linejoin:round;}.d{fill:#212121;}.e,.k{fill:#ffd100;}.f{clip-path:url(#c);}.h{fill:#263238;}.i{fill:#fff;}.i,.j,.k{stroke-width:1.025px;}.l{filter:url(#d);}.m{filter:url(#a);}</style><filter id="a" x="0" y="2.107" width="496.038" height="436.289" filterUnits="userSpaceOnUse"><feOffset dy="20" input="SourceAlpha"/><feGaussianBlur stdDeviation="15" result="b"/><feFlood flood-color="#ffd214" flood-opacity="0.239"/><feComposite operator="in" in2="b"/><feComposite in="SourceGraphic"/></filter><clipPath id="c"><path class="a" d="M402.017,252.7a30.926,30.926,0,1,0-61.853,0v61.853a30.926,30.926,0,0,0,61.853,0Z" transform="translate(-340.164 -221.773)"/></clipPath><filter id="d" x="78.803" y="363.778" width="327.29" height="120.264" filterUnits="userSpaceOnUse"><feOffset dy="20" input="SourceAlpha"/><feGaussianBlur stdDeviation="15" result="e"/><feFlood flood-color="#ffd214" flood-opacity="0.361"/><feComposite operator="in" in2="e"/><feComposite in="SourceGraphic"/></filter></defs><g transform="translate(-723.599 -103.487)"><g transform="translate(773.599 104)"><g transform="translate(0 0)"><g transform="translate(0 21.594)"><g class="m" transform="matrix(1, 0, 0, 1, -50, -22.11)"><path class="b" d="M428.361,139.137c-18.7-15.645-44.413-37.213-66.5-55.893a112.918,112.918,0,0,0-79.7-26.7C249.895,58.512,209.7,69.795,181.24,107.976c-55.181,74.043-30.536,247.311,75.8,280.01s202.028,7.752,258.7-46.474S565.434,184.3,538.42,171.867c-14-6.441-36.07-9.172-54.093-10.31A96.736,96.736,0,0,1,428.361,139.137Z" transform="translate(-107.71 -29.23)"/></g></g><g transform="translate(78.405 79.511)"><g transform="translate(76.206 76.769)"><path class="c" d="M393.867,215.19a43.431,43.431,0,0,0-61.624,58.174" transform="translate(-326.165 -207.774)"/><path class="c" d="M418.948,236.062a43.281,43.281,0,0,0-2.933-5.508" transform="translate(-335.809 -210.219)"/><path class="c" d="M415.145,279.627a43.544,43.544,0,0,0,6.506-33.166" transform="translate(-335.716 -211.926)"/></g><g transform="translate(58.553 59.224)"><path class="c" d="M325.565,208.123a61.257,61.257,0,0,0-7.9,9.713" transform="translate(-307.599 -190.266)"/><path class="c" d="M419.171,286.407A60.977,60.977,0,0,0,338.9,197.214" transform="translate(-309.879 -188.119)"/><path class="c" d="M319.142,291.522a61.086,61.086,0,0,1-9.917-55.749" transform="translate(-306.389 -193.234)"/></g><g transform="translate(34.026 34.589)"><path class="c" d="M299.271,315.5a86.086,86.086,0,0,0,12.837,13.2" transform="translate(-281.098 -177.157)"/><path class="c" d="M412.94,175.525A85.634,85.634,0,0,0,285.745,279.694" transform="translate(-278.913 -160.522)"/><path class="c" d="M463.2,219.748a85.378,85.378,0,0,0-8.812-16.861" transform="translate(-297.747 -165.069)"/><path class="c" d="M441.1,318.271a85.354,85.354,0,0,0,26.425-61.853" transform="translate(-296.322 -170.815)"/></g><path class="c" d="M240.8,256.418A120.225,120.225,0,0,0,341,374.955" transform="translate(-240.796 -136.226)"/><path class="c" d="M468.059,313.5A120.253,120.253,0,0,0,343.632,125.013" transform="translate(-251.834 -121.774)"/><path class="c" d="M240.8,242.371a120.24,120.24,0,0,1,91.829-116.827" transform="translate(-240.796 -122.179)"/><path class="c" d="M257.038,320.583" transform="translate(-242.539 -143.113)"/><path class="c" d="M454.389,364.182q4.575-3.357,8.813-7.128" transform="translate(-263.722 -147.028)"/><path class="c" d="M397.206,387.555a119.389,119.389,0,0,0,38.913-13.745" transform="translate(-257.584 -148.826)"/><g transform="translate(71.208 164.083)"><g transform="translate(2.499)"><path class="d" d="M369.288,369.471a45.974,45.974,0,0,1-45.922-45.922V308.085a2.5,2.5,0,0,1,2.5-2.5h6.249a2.5,2.5,0,1,1,0,5h-3.749v12.964a40.923,40.923,0,1,0,81.847,0V310.584h-3.748a2.5,2.5,0,1,1,0-5h6.248a2.5,2.5,0,0,1,2.5,2.5v15.463A45.974,45.974,0,0,1,369.288,369.471Z" transform="translate(-323.366 -305.586)"/></g><g transform="translate(0 92.303)"><path class="d" d="M417.409,418.984v-5a5,5,0,0,0-5-5H325.564a5,5,0,0,0-5,5v5Z" transform="translate(-320.566 -408.987)"/><path class="d" d="M423.453,420.186" transform="translate(-331.609 -410.189)"/></g><path class="d" d="M379.083,411.361a5.012,5.012,0,0,0,.124-1.094V374.353h-10v35.915a5.014,5.014,0,0,0,.123,1.094Z" transform="translate(-325.787 -312.967)"/></g><g transform="translate(88.702 89.266)"><path class="c" d="M402.017,252.7a30.926,30.926,0,1,0-61.853,0v61.853a30.926,30.926,0,0,0,61.853,0Z" transform="translate(-340.164 -221.773)"/><path class="e" d="M402.017,252.7a30.926,30.926,0,1,0-61.853,0v61.853a30.926,30.926,0,0,0,61.853,0Z" transform="translate(-340.164 -221.773)"/><g class="f"><path class="d" d="M358.283,260.075H340.164v7.5h18.119a3.749,3.749,0,1,0,0-7.5Z" transform="translate(-340.164 -225.884)"/><path class="d" d="M406.825,260.075H388.705a3.749,3.749,0,0,0,0,7.5h18.119Z" transform="translate(-344.972 -225.884)"/><path class="d" d="M374.358,260.075a3.749,3.749,0,1,0,3.749,3.748A3.748,3.748,0,0,0,374.358,260.075Z" transform="translate(-343.432 -225.884)"/><path class="d" d="M374.358,277.049a3.749,3.749,0,1,0,3.749,3.749A3.749,3.749,0,0,0,374.358,277.049Z" transform="translate(-343.432 -227.706)"/><path class="d" d="M374.358,294.023a3.749,3.749,0,1,0,3.749,3.749A3.749,3.749,0,0,0,374.358,294.023Z" transform="translate(-343.432 -229.528)"/><path class="d" d="M358.283,277.049H340.164v7.5h18.119a3.749,3.749,0,1,0,0-7.5Z" transform="translate(-340.164 -227.706)"/><path class="d" d="M406.825,277.049H388.705a3.749,3.749,0,0,0,0,7.5h18.119Z" transform="translate(-344.972 -227.706)"/><path class="d" d="M358.283,294.023H340.164v7.5h18.119a3.749,3.749,0,1,0,0-7.5Z" transform="translate(-340.164 -229.528)"/><path class="d" d="M406.825,294.023H388.705a3.749,3.749,0,0,0,0,7.5h18.119Z" transform="translate(-344.972 -229.528)"/></g><path class="g" d="M402.017,252.7a30.926,30.926,0,1,0-61.853,0v61.853a30.926,30.926,0,0,0,61.853,0Z" transform="translate(-340.164 -221.773)"/><path class="h" d="M340.164,325.708a30.926,30.926,0,0,0,61.853,0Z" transform="translate(-340.164 -232.929)"/></g></g><g transform="translate(71.882 0)"><g transform="translate(89.502 67.913)"><path class="i" d="M407.394,153.254V115.167a6.946,6.946,0,0,0-6.946-6.946H340.7a6.946,6.946,0,0,0-6.946,6.946v38.087A6.946,6.946,0,0,0,340.7,160.2h20.8l-1.68,14.5h10.753v13.685l12.708-22.324H372.853l1.1-5.858h26.492A6.946,6.946,0,0,0,407.394,153.254Z" transform="translate(-333.751 -108.221)"/><g transform="translate(11.405 13.035)"><line class="j" x2="40.406"/><line class="j" x2="50.833" transform="translate(0 10.791)"/><line class="j" x2="43.013" transform="translate(0 21.582)"/></g></g><g transform="translate(0 276.043)"><g transform="translate(208.787)"><path class="k" d="M467.378,341.377l36.1,12.035-8.959,8.959,16.715,16.715-36.1-12.035,8.959-8.959Z" transform="translate(-467.378 -341.377)"/></g><path class="k" d="M277.348,341.377l-36.1,12.035,8.959,8.959-16.715,16.715,36.1-12.035-8.959-8.959Z" transform="translate(-233.487 -341.377)"/></g><g transform="translate(108.293)"><path class="k" d="M371.822,32.143,354.8,66.183h12.67V89.821l17.02-34.04h-12.67Z" transform="translate(-354.802 -32.143)"/></g></g></g></g><g class="l" transform="matrix(1, 0, 0, 1, 723.6, 103.49)"><path class="d" d="M3.252-4.131a1.446,1.446,0,0,1-.593.117,1.077,1.077,0,0,1-.732-.469A4.958,4.958,0,0,1,1.2-5.654,7.58,7.58,0,0,1,.5-8.745a2.716,2.716,0,0,1,.366-1.509l1.362-1.494a9.081,9.081,0,0,1,1.392-1.289q8.643-6.3,17.5-6.768,1.245-.073,1.934-.073a2.711,2.711,0,0,1,1.121.2,4,4,0,0,1,.828.513,6.316,6.316,0,0,1,.747.7,7.572,7.572,0,0,1,.615.769,2.46,2.46,0,0,1,.557,1.1,2.638,2.638,0,0,1-.132.754q-.132.432-.308.938t-.381,1l-.322.85A67.008,67.008,0,0,1,20.6-2.461Q19.6-.806,18.933.1T17.82,1.538q-.447.542-.959,1.069a12.7,12.7,0,0,1-1.1,1,10.09,10.09,0,0,1-1.2.842,5.239,5.239,0,0,1-2.666.791A3.3,3.3,0,0,1,9.9,4.321,2.7,2.7,0,0,1,8.73,2.329q0-1.641,3.208-4.79A31.172,31.172,0,0,1,15-5.149q1.377-1.033,1.992-1.4Q19.292-10.9,19.819-12l.82-1.743a7.089,7.089,0,0,0,.615-1.626q0-.659-.7-.659a6.434,6.434,0,0,0-1.8.337,19.14,19.14,0,0,0-2.358.916q-1.26.579-2.615,1.348T11.125-11.8q-1.3.857-2.476,1.765T6.563-8.276q-2.007,1.86-2.2,2.871A1.689,1.689,0,0,1,3.252-4.131ZM45.41-7.368q0,1.479,1.3,1.479t4.512-2.5l1.289-1.055A3.894,3.894,0,0,1,54.946-10.5a.592.592,0,0,1,.557.227,1.124,1.124,0,0,1,.132.571,2.267,2.267,0,0,1-.125.718,5.057,5.057,0,0,1-.344.784,7.3,7.3,0,0,1-.937,1.436,13.594,13.594,0,0,1-1.062,1.062q-.608.549-1.443,1.23T49.878-3.083q-1.011.71-2.036,1.3A8.13,8.13,0,0,1,44.033-.439a3.389,3.389,0,0,1-2.8-1.26,5.35,5.35,0,0,1-1.069-3.135A20.683,20.683,0,0,1,34.585-.659a7.173,7.173,0,0,1-3.047.894,7.168,7.168,0,0,1-2.183-.3,4.7,4.7,0,0,1-1.641-.9,4.37,4.37,0,0,1-1.523-3.545,10.14,10.14,0,0,1,2.329-6.27,9.316,9.316,0,0,1,1.641-1.641,7.7,7.7,0,0,1,4.16-1.23,1.546,1.546,0,0,1,1.377.6,1.052,1.052,0,0,1,.161.608,2.225,2.225,0,0,1-.212.864,10.157,10.157,0,0,1-.52,1.025q-.308.535-.681,1.106t-.681,1.113a4.577,4.577,0,0,0-.732,1.853,1.008,1.008,0,0,0,.322.828,1.208,1.208,0,0,0,.791.264A3.044,3.044,0,0,0,35.918-5.9a13.407,13.407,0,0,0,1.45-1.165l1.377-1.348,1.333-1.377a9.527,9.527,0,0,1,2.161-1.809,1.793,1.793,0,0,1,1.077-.271A2.389,2.389,0,0,1,44-11.55a4.649,4.649,0,0,1,.688.549,2.6,2.6,0,0,1,.879,1.377,6.618,6.618,0,0,1-.066,1.179A10.725,10.725,0,0,0,45.41-7.368Zm16.318-6.9a1.726,1.726,0,0,1,.146.769,1.805,1.805,0,0,1-.483,1.077q.381.4.974.916a13.975,13.975,0,0,1,1.15,1.135,4.45,4.45,0,0,1,1.348,2.886,3.607,3.607,0,0,1-1.245,2.212,6.9,6.9,0,0,1-.835.762,14.4,14.4,0,0,0,3.662-2.329l1.714-1.406a9.959,9.959,0,0,1,2-1.436,2.625,2.625,0,0,1,.916-.19,1.689,1.689,0,0,1,.8.205A.7.7,0,0,1,72.261-9a2.765,2.765,0,0,1-.146.894,4.753,4.753,0,0,1-.352.8,5.007,5.007,0,0,1-.85,1.084q-1.538,1.45-2.981,2.659a19.6,19.6,0,0,1-2.981,2.073A14.526,14.526,0,0,1,57.744.322,6.564,6.564,0,0,1,53.906-.806a4.161,4.161,0,0,1-1.033-.974,1.566,1.566,0,0,1-.359-.791,1.166,1.166,0,0,1,.19-.6,3.817,3.817,0,0,1,.513-.652,7.806,7.806,0,0,1,.74-.674,7.551,7.551,0,0,1,.857-.6,3.545,3.545,0,0,1,1.531-.6,1.863,1.863,0,0,1,.769.125A3.78,3.78,0,0,1,57.6-5.3a1.945,1.945,0,0,0,.85.41q.6,0,.6-.82a3.267,3.267,0,0,0-.806-1.831q-.322-.439-.674-.864a5.947,5.947,0,0,1-.586-.835A9.3,9.3,0,0,1,55.811-8.13l-1.421,1.2A4.061,4.061,0,0,1,51.65-5.713q-.732-.059-.732-1.626a3.292,3.292,0,0,1,.044-.542,2.141,2.141,0,0,1,.894-1.1q.82-.645,1.194-.886t.637-.432l1.553-1.055a3.454,3.454,0,0,1,1.729-2.739,5.585,5.585,0,0,1,3.252-1.172A1.587,1.587,0,0,1,61.729-14.268ZM86.06-10.034q1.436,0,1.436,1a4.251,4.251,0,0,1-1.348,2.461l-.718.747a25.539,25.539,0,0,1-3.04,2.622,30.5,30.5,0,0,1-3.054,2.036,11.655,11.655,0,0,1-5.552,1.7A5.322,5.322,0,0,1,69.961-.879a3.546,3.546,0,0,1-1.274-2.563,13.783,13.783,0,0,1,.264-2.681,21.317,21.317,0,0,1,.688-2.607A25.37,25.37,0,0,1,71.5-13.14a2,2,0,0,0,.264-.645h-1.89a2.482,2.482,0,0,1-1.655-.5,1.459,1.459,0,0,1-.586-1.128,1.473,1.473,0,0,1,.234-.923,1.339,1.339,0,0,1,.586-.425,4.027,4.027,0,0,1,1.465-.205l3.589.015a1.991,1.991,0,0,0,.469-.63l.894-1.538a5.356,5.356,0,0,1,1.15-1.509,2.059,2.059,0,0,1,1.362-.483,5.066,5.066,0,0,1,1.318.146,3.6,3.6,0,0,1,.9.366,1.287,1.287,0,0,1,.718,1.025,1.793,1.793,0,0,1-.161.63l-.82,1.992,6.958-.015a.816.816,0,0,1,.908.938q0,2.227-3.97,2.227l-5.361.015a2.621,2.621,0,0,0-.6.85l-.659,1.216q-.249.454-.352.688l-.322.718a9.292,9.292,0,0,0-.981,3.193,2.567,2.567,0,0,0,.52,1.641,1.674,1.674,0,0,0,1.384.659,4.45,4.45,0,0,0,1.692-.337,11.2,11.2,0,0,0,1.619-.82,15.064,15.064,0,0,0,2.256-1.655,15.908,15.908,0,0,1,1.362-1.157l1.025-.718A2.535,2.535,0,0,1,86.06-10.034Zm35.244-4.7a2.036,2.036,0,0,1-2.021-1.377,12.38,12.38,0,0,0-4.629,1.025,6.872,6.872,0,0,0-2.109,1.187,1.788,1.788,0,0,0-.579.85.529.529,0,0,0,.3.52,4.129,4.129,0,0,0,.945.4q.608.19,1.414.381,4.219.981,5.347,1.362a11.019,11.019,0,0,1,3.354,1.641,3.02,3.02,0,0,1,1.055,2.432A3.119,3.119,0,0,1,123.6-4.16a7.428,7.428,0,0,1-2.073,1.567,18.893,18.893,0,0,1-2.878,1.223,31.069,31.069,0,0,1-3.354.916q-1.765.381-3.479.63a42.368,42.368,0,0,1-5.728.469A16.946,16.946,0,0,1,99.419-.4a3.165,3.165,0,0,1-1.436-1.978,7.035,7.035,0,0,1-.439-2.146q0-.842.146-.93a1,1,0,0,1,.6-.007q.454.081,1.187.271l1.758.469a35.4,35.4,0,0,0,8.643,1.025,23.093,23.093,0,0,0,5.684-.6q1.377-.366,1.465-.82.059-.4-2.168-.981-1.011-.278-2.344-.586-6.46-1.567-7.793-2.021a5.845,5.845,0,0,1-1.736-.806,3.433,3.433,0,0,1-.667-.776,3.185,3.185,0,0,1-.483-1.589,6.419,6.419,0,0,1,.081-1.165,3.961,3.961,0,0,1,.227-.762,1.951,1.951,0,0,1,.776-.981,41.729,41.729,0,0,1,11.06-3.706,51.458,51.458,0,0,1,10.679-1.436,2.255,2.255,0,0,1,1.274.293,1.244,1.244,0,0,1,.645,1.157,3.309,3.309,0,0,1-.374,1.135,4.024,4.024,0,0,1-.71.938,5.144,5.144,0,0,1-.945.732,6.238,6.238,0,0,1-1.077.52A6.251,6.251,0,0,1,121.3-14.736Zm11.03,11.074q.483-.205,1.348-.645,5.288-2.71,5.8-2.988l.615-.337q.952-.615.879-.967-.161-.747-.806-.608a12.418,12.418,0,0,0-1.34.374q-.7.234-1.472.571A29.482,29.482,0,0,0,134.5-6.914q-4.307,2.476-5.186,3-.63,1.421-1.128,2.827l-1.772,5.01a8.6,8.6,0,0,1-1.685,3.149,1.4,1.4,0,0,1-1.011.454,2.659,2.659,0,0,1-2.168-.959,3.7,3.7,0,0,1-.791-2.432,11.209,11.209,0,0,1,.381-2.9A18.071,18.071,0,0,1,122.2-1.655a22.286,22.286,0,0,1,3.647-5.522,22.266,22.266,0,0,1,4.629-7.251,14.13,14.13,0,0,1,3.677-3.018,3.293,3.293,0,0,1,1.45-.439,1.337,1.337,0,0,1,.908.271.862.862,0,0,1,.308.674,2.848,2.848,0,0,1-.249,1.018,12.52,12.52,0,0,1-.674,1.377q-.425.762-1,1.626l-1.216,1.772a.735.735,0,0,0-.146.4q0,.278.337.278a4.2,4.2,0,0,0,1.406-.483l2.344-1.084a14.281,14.281,0,0,1,5.889-1.392,3.749,3.749,0,0,1,2.754,1.392,4.377,4.377,0,0,1,1.3,3.018,4.335,4.335,0,0,1-2.036,3.838l-1.816,1.2q-.981.615-2.021,1.216l-2.109,1.157a13.339,13.339,0,0,1-5.5,1.846,6.149,6.149,0,0,1-2.82-.483,1.5,1.5,0,0,1-.879-1.362Q130.386-2.8,132.334-3.662Zm35.068-7.1q.7,0,.7.791a3.4,3.4,0,0,1-.359,1.326,5.233,5.233,0,0,1-1.033,1.494q-.674.7-1.545,1.443t-2.036,1.567q-1.165.82-2.571,1.626a24.9,24.9,0,0,1-2.988,1.45A17.829,17.829,0,0,1,150.791.366a7.48,7.48,0,0,1-4.38-1.3,3.962,3.962,0,0,1-1.963-3.311q0-3.062,3.3-5.815a20.65,20.65,0,0,1,6.694-3.677,12.827,12.827,0,0,1,3.97-.791,3.748,3.748,0,0,1,2.227.645A2.219,2.219,0,0,1,161.6-12q0,1.86-2.944,4.116-.469.366-.85.615l-.527.352a25.785,25.785,0,0,1-4.453,2.3,3.738,3.738,0,0,0,1.721.483,5.009,5.009,0,0,0,1.436-.19,12.916,12.916,0,0,0,1.443-.542q.806-.352,1.721-.842T161-6.782a26.951,26.951,0,0,0,3.633-2.666,5.819,5.819,0,0,1,2.051-1.187A2.393,2.393,0,0,1,167.4-10.767ZM151.245-6.65l.806-.41q.4-.205.7-.381a28.753,28.753,0,0,0,3.369-2.095q.41-.4.41-.549a.934.934,0,0,0-.088-.359,1.3,1.3,0,0,0-.234-.366.994.994,0,0,0-.747-.41,2.985,2.985,0,0,0-.872.146,5.508,5.508,0,0,0-.959.4,5.894,5.894,0,0,0-.93.615,5.321,5.321,0,0,0-.784.769,2.684,2.684,0,0,0-.776,1.6A4.064,4.064,0,0,0,151.245-6.65ZM190.02-11q.469,0,.469.791,0,1.362-1.9,3.53l-.835.85A21.109,21.109,0,0,1,180.6-.776q-2.08.776-2.988-.073a5.024,5.024,0,0,1-1.187-2.314l-.352-1.274-3.12,1.919-1.8,1.025A11.654,11.654,0,0,1,166.318.264a4.359,4.359,0,0,1-3.442-1.6,5.159,5.159,0,0,1-1.318-3.5,4.782,4.782,0,0,1,1.567-3.5,20.572,20.572,0,0,1,7.075-4.028,22.312,22.312,0,0,1,7.383-1.714.835.835,0,0,1,.952.938,1.567,1.567,0,0,1-.249.967,2.666,2.666,0,0,1-1.025.659l-1.846.791a19.577,19.577,0,0,0-6.006,3.56,1.429,1.429,0,0,0-.542,1q0,.483.776.483a10.777,10.777,0,0,0,3.545-1.641l1.216-.718a9.782,9.782,0,0,1,4.731-1.7,2.071,2.071,0,0,1,2.139,1.421q.132.381.249.769t.234.7q.264.718.476.718a1.446,1.446,0,0,0,.608-.212,9.215,9.215,0,0,0,.872-.542q.476-.33.989-.725l1.772-1.421Q188.833-11,190.02-11ZM200.171.7q-3,0-5.918-3.838l-1.7,1.26q-2.71,1.934-3.6,1.934A2.783,2.783,0,0,1,187.075-.7a1.463,1.463,0,0,1-.366-.469q-.542-.542-.542-2.834a17.322,17.322,0,0,1,.513-4.3,20.148,20.148,0,0,1,1.333-3.721,28.815,28.815,0,0,1,4-5.918,12.991,12.991,0,0,1,3.735-3.6,6.276,6.276,0,0,1,3.135-1.187,2.1,2.1,0,0,1,1.165.308.949.949,0,0,1,.476.835,2.165,2.165,0,0,1-.41,1.157q-4.819,7.031-5.566,8.2a20.117,20.117,0,0,0-1.055,1.8q-.308.63-.454.959t-.278.681a3.93,3.93,0,0,0-.308,1.187q0,.366.557.366.513,0,2.681-2.651l1.963-2.432a6.135,6.135,0,0,1,2.249-1.875,5.173,5.173,0,0,1,2.029-.513q2.446,0,2.446,1.187a5.577,5.577,0,0,1-1.626,3q-.176.205-.527.557l-1.963,1.816-1.3,1.157a8.922,8.922,0,0,0,2.71,2.271,1.263,1.263,0,0,0,.52.146,4.647,4.647,0,0,0,.769-.271s.789-.415,1.252-.7.955-.613,1.472-.974l4.014-2.93a1.716,1.716,0,0,1,1.055-.41q1.1,0,1.1.908a4.948,4.948,0,0,1-1.157,2.769,7.407,7.407,0,0,1-.674.791l-.937.85A23.2,23.2,0,0,1,201.958.322,4.907,4.907,0,0,1,200.171.7Zm27.3-6.855a1.384,1.384,0,0,1-.337.015.734.734,0,0,1-.249-.073.391.391,0,0,1-.278-.374,1.161,1.161,0,0,1,.088-.461l3.516-7.837.894-1.846a18.678,18.678,0,0,1,1.208-2.2q.271-.337.425-.5a1.953,1.953,0,0,1,.359-.293,1.87,1.87,0,0,1,.967-.278,5.662,5.662,0,0,1,1.113.125,9.089,9.089,0,0,1,1.2.33q1.406.527,1.406,1.113,0,.967-2.109,4.849a22.026,22.026,0,0,1-3.809,5.464A8.211,8.211,0,0,1,227.476-6.152ZM224.37-1.377a1.738,1.738,0,0,1,.1-.63,3.344,3.344,0,0,1,.33-.608,5.814,5.814,0,0,1,.586-.732,3.808,3.808,0,0,1,.886-.7,5.153,5.153,0,0,1,2.754-.747,3.136,3.136,0,0,1,2.417.747,1.266,1.266,0,0,1,.249.842,2.086,2.086,0,0,1-.454,1.187,4.728,4.728,0,0,1-1.172,1.135A5.778,5.778,0,0,1,226.743.234a2.357,2.357,0,0,1-2.036-.82A1.356,1.356,0,0,1,224.37-1.377Z" transform="translate(123.31 411.51)"/></g></g></svg>