<svg xmlns="http://www.w3.org/2000/svg" width="180" height="156" viewBox="0 0 180 156"><defs><style>.a{fill:#fff;}.b{fill:none;}</style></defs><g transform="translate(19.996 95.72)"><path class="a" d="M56.06,267.945l-.836,5.6H53.35L56.217,256h2.657l3,17.53H59.917l-.9-5.6Zm2.714-1.713c-.615-3.861-1.057-6.859-1.218-8.5h-.079c-.064,1.353-.69,5.3-1.162,8.5Z" transform="translate(-53.35 -255.768)"/><path class="a" d="M102.874,256v17.541H101V256Z" transform="translate(-83.14 -255.768)"/><path class="a" d="M134,273.541V256h2.223c.945,3.246,3.373,12.433,3.669,13.868h.041c-.1-2.358-.131-4.824-.131-7.68V256h1.758v17.541h-2.151c-.933-3.291-3.445-12.939-3.774-14.333h-.026c.116,2.11.161,4.91.161,8.074v6.259Z" transform="translate(-103.771 -255.768)"/><path class="a" d="M183.654,256v13.625c0,1.447.51,2.433,1.822,2.433s1.8-.93,1.8-2.418V256h1.874v13.572c0,2.71-1.218,4.19-3.718,4.19-2.429,0-3.651-1.361-3.651-4.149V256Z" transform="translate(-133.643 -255.768)"/><path class="a" d="M231,265.37v8.171H229.13V256H232.2c2.624,0,3.928,1.124,3.928,4.033v.8c0,2.38-.84,3.373-1.784,3.692,1.124.412,1.627,1.248,1.627,3.594a46.174,46.174,0,0,0,.172,5.409h-1.81a41.092,41.092,0,0,1-.184-5.27c0-2.268-.319-2.916-2.054-2.916Zm0-1.585h1.147c1.664,0,2.1-.963,2.1-2.834v-.78c0-1.6-.435-2.56-2.193-2.56H231Z" transform="translate(-163.245 -255.768)"/><path class="a" d="M280.865,268.13v.607c0,2.249-.4,4.67-3.572,4.67-3.036,0-3.553-2.151-3.553-4.726v-8.939c0-2.8,1.2-4.352,3.576-4.352,2.942,0,3.471,2.088,3.471,4.385v.682h-1.9v-.821c0-1.391-.214-2.545-1.6-2.545-1.316,0-1.645,1.042-1.645,2.586v9.1c0,1.758.375,2.916,1.7,2.916s1.615-1.188,1.615-2.837v-.75Z" transform="translate(-191.135 -255.386)"/><path class="a" d="M319.48,267.945l-.836,5.6H316.77L319.63,256h2.657l3,17.53h-1.957l-.9-5.6Zm2.714-1.713c-.618-3.861-1.057-6.859-1.214-8.5H320.9c-.064,1.353-.693,5.3-1.166,8.5Z" transform="translate(-218.036 -255.768)"/><path class="a" d="M365.527,268.217v1.016c0,1.649.57,2.534,1.8,2.534s1.75-.911,1.75-2.83c0-2.05-.45-2.849-2.3-4.288s-2.826-2.35-2.826-4.933c0-2.223.667-4.352,3.418-4.337,2.624,0,3.3,1.75,3.3,3.973v.817h-1.855v-.75c0-1.454-.281-2.4-1.5-2.4s-1.5,1.053-1.5,2.429c0,1.627.326,2.249,1.93,3.463,2.436,1.84,3.2,2.864,3.2,5.776,0,2.463-.7,4.708-3.662,4.708-2.83,0-3.628-1.855-3.628-4.164v-1Z" transform="translate(-247.351 -255.38)"/><path class="a" d="M408.717,257.739H405.88V256h7.541v1.728H410.6v15.813h-1.874Z" transform="translate(-273.747 -255.768)"/></g><path class="a" d="M167.431,345.66a.4.4,0,0,1-.154.03.292.292,0,0,1-.191-.12,1.448,1.448,0,0,1-.187-.3,1.983,1.983,0,0,1-.18-.8.7.7,0,0,1,.094-.375l.352-.375a2.733,2.733,0,0,1,.375-.334,8.422,8.422,0,0,1,4.52-1.747c.214,0,.375-.019.5-.019a.7.7,0,0,1,.289.053,1.057,1.057,0,0,1,.214.131,1.5,1.5,0,0,1,.195.184,1.794,1.794,0,0,1,.157.195.615.615,0,0,1,.142.285.685.685,0,0,1-.034.195c-.022.075-.049.157-.079.244s-.064.172-.1.259l-.082.217a17.472,17.472,0,0,1-1.338,2.736c-.172.285-.315.506-.431.66s-.21.281-.289.375-.157.184-.247.274a3.065,3.065,0,0,1-.281.259,2.341,2.341,0,0,1-.311.217,1.335,1.335,0,0,1-.69.206.843.843,0,0,1-.513-.24.69.69,0,0,1-.3-.513c0-.281.277-.693.828-1.237a8.2,8.2,0,0,1,.791-.693,5.454,5.454,0,0,1,.513-.375c.4-.75.641-1.218.731-1.409l.214-.45a1.875,1.875,0,0,0,.157-.42q0-.169-.18-.169a1.605,1.605,0,0,0-.469.086,4.549,4.549,0,0,0-.607.236,7.274,7.274,0,0,0-.675.349c-.232.131-.461.27-.686.42s-.435.3-.641.454-.375.307-.536.453a1.8,1.8,0,0,0-.57.75.431.431,0,0,1-.3.311Z" transform="translate(-104.23 -213.575)"/><path class="a" d="M189.374,347.479q0,.375.337.375a2.574,2.574,0,0,0,1.166-.648l.334-.27a.99.99,0,0,1,.626-.274.154.154,0,0,1,.146.06.281.281,0,0,1,.034.146.547.547,0,0,1-.034.184,1.19,1.19,0,0,1-.09.2,1.719,1.719,0,0,1-.24.375,3.874,3.874,0,0,1-.277.277c-.1.094-.229.2-.375.315s-.3.24-.476.375a5.347,5.347,0,0,1-.525.334,2.106,2.106,0,0,1-.986.349.873.873,0,0,1-.72-.322,1.368,1.368,0,0,1-.277-.81,5.3,5.3,0,0,1-1.443,1.076,1.841,1.841,0,0,1-.787.232,1.818,1.818,0,0,1-.562-.079,1.191,1.191,0,0,1-.424-.232,1.124,1.124,0,0,1-.394-.915,2.624,2.624,0,0,1,.6-1.619,2.247,2.247,0,0,1,.424-.424,1.964,1.964,0,0,1,1.072-.319.4.4,0,0,1,.356.154.289.289,0,0,1,.041.157.581.581,0,0,1-.056.225,2.134,2.134,0,0,1-.131.262c-.052.094-.112.187-.176.289s-.124.191-.176.285a1.191,1.191,0,0,0-.191.48.259.259,0,0,0,.086.214.308.308,0,0,0,.2.067.75.75,0,0,0,.457-.131,3.379,3.379,0,0,0,.375-.3l.356-.349.345-.356a2.421,2.421,0,0,1,.558-.465.45.45,0,0,1,.277-.071.569.569,0,0,1,.176.082,1.2,1.2,0,0,1,.18.142.664.664,0,0,1,.225.356,1.57,1.57,0,0,1,0,.3A2.319,2.319,0,0,0,189.374,347.479Z" transform="translate(-115.288 -216.23)"/><path class="a" d="M204.238,344.963a.427.427,0,0,1,.037.2.468.468,0,0,1-.124.277c.067.067.15.146.251.236a3.663,3.663,0,0,1,.3.292,1.162,1.162,0,0,1,.345.75.922.922,0,0,1-.319.57,1.82,1.82,0,0,1-.217.2,3.748,3.748,0,0,0,.945-.6l.442-.375a2.472,2.472,0,0,1,.517-.375.66.66,0,0,1,.236-.052.454.454,0,0,1,.206.052.184.184,0,0,1,.1.172.686.686,0,0,1-.038.232,1.5,1.5,0,0,1-.09.206,1.389,1.389,0,0,1-.221.281c-.262.247-.521.476-.75.686a5.188,5.188,0,0,1-.772.536,3.748,3.748,0,0,1-1.874.469,1.7,1.7,0,0,1-.993-.292,1.151,1.151,0,0,1-.266-.251.4.4,0,0,1-.09-.206.292.292,0,0,1,.049-.154.936.936,0,0,1,.131-.169,2.29,2.29,0,0,1,.412-.33.929.929,0,0,1,.4-.154.472.472,0,0,1,.2.034.958.958,0,0,1,.124.067.484.484,0,0,0,.217.1c.1,0,.157-.068.157-.21a.847.847,0,0,0-.21-.472l-.172-.225a1.515,1.515,0,0,1-.154-.214,2.223,2.223,0,0,1-.3.285l-.375.311a1.038,1.038,0,0,1-.708.315c-.127,0-.187-.15-.187-.42a.832.832,0,0,1,0-.139c0-.079.09-.172.229-.285a3.8,3.8,0,0,1,.307-.229c.064-.041.12-.079.165-.112l.4-.274a.892.892,0,0,1,.446-.7,1.447,1.447,0,0,1,.843-.3A.4.4,0,0,1,204.238,344.963Z" transform="translate(-125.939 -215.494)"/><path class="a" d="M217.735,343.585q.375,0,.375.259a1.087,1.087,0,0,1-.349.633l-.187.195a6.9,6.9,0,0,1-.783.678,8.155,8.155,0,0,1-.787.525,3.025,3.025,0,0,1-1.436.439,1.364,1.364,0,0,1-.986-.375.914.914,0,0,1-.33-.663,3.582,3.582,0,0,1,.067-.69,5.947,5.947,0,0,1,.176-.675,6.467,6.467,0,0,1,.484-1.124.51.51,0,0,0,.067-.165h-.487a.645.645,0,0,1-.427-.127.375.375,0,0,1-.154-.292.409.409,0,0,1,.06-.24.375.375,0,0,1,.154-.109,1.073,1.073,0,0,1,.375-.052h.918a.575.575,0,0,0,.12-.161l.232-.4a1.335,1.335,0,0,1,.3-.375.517.517,0,0,1,.352-.127,1.453,1.453,0,0,1,.341.038,1.028,1.028,0,0,1,.232.1.326.326,0,0,1,.184.262.5.5,0,0,1-.041.165l-.21.513h1.8c.157,0,.232.079.232.244q0,.573-1.023.573H215.61a.75.75,0,0,0-.157.217l-.169.315a1.3,1.3,0,0,0-.09.18l-.086.184a2.4,2.4,0,0,0-.251.825.66.66,0,0,0,.135.424.427.427,0,0,0,.375.172,1.124,1.124,0,0,0,.439-.09,2.7,2.7,0,0,0,.416-.21,3.956,3.956,0,0,0,.585-.427,3.664,3.664,0,0,1,.349-.3l.266-.184A.633.633,0,0,1,217.735,343.585Z" transform="translate(-133.151 -213.025)"/><path class="a" d="M239.759,342.85a.521.521,0,0,1-.521-.356,3.2,3.2,0,0,0-1.2.266,1.822,1.822,0,0,0-.547.307.472.472,0,0,0-.15.217.142.142,0,0,0,.079.135,1.1,1.1,0,0,0,.244.1c.1.034.229.064.375.1.723.169,1.184.289,1.379.352a2.811,2.811,0,0,1,.866.424.776.776,0,0,1,.274.63.8.8,0,0,1-.2.555,1.989,1.989,0,0,1-.536.4,4.5,4.5,0,0,1-.75.315,7.31,7.31,0,0,1-.866.236c-.3.067-.6.12-.9.165a11.268,11.268,0,0,1-1.48.12,4.363,4.363,0,0,1-1.72-.27.821.821,0,0,1-.375-.51,1.829,1.829,0,0,1-.112-.555c0-.142,0-.225.037-.24a.251.251,0,0,1,.154,0,1.661,1.661,0,0,1,.307.067l.454.124a9.164,9.164,0,0,0,2.249.262,5.876,5.876,0,0,0,1.466-.154c.236-.064.375-.135.375-.214s-.176-.15-.558-.251c-.176-.049-.375-.1-.607-.154q-1.664-.4-2.013-.521a1.5,1.5,0,0,1-.446-.206.8.8,0,0,1-.172-.2.825.825,0,0,1-.124-.409,1.622,1.622,0,0,1,.019-.3,1.073,1.073,0,0,1,.06-.195.51.51,0,0,1,.2-.255,10.727,10.727,0,0,1,2.856-.956,13.268,13.268,0,0,1,2.759-.375.6.6,0,0,1,.33.075.326.326,0,0,1,.165.3.793.793,0,0,1-.1.292.967.967,0,0,1-.184.244,1.2,1.2,0,0,1-.244.187,1.27,1.27,0,0,1-.277.135,1.6,1.6,0,0,1-.566.109Z" transform="translate(-146.056 -213.505)"/><path class="a" d="M252.566,346.611c.082-.034.2-.09.349-.165.907-.469,1.409-.723,1.5-.772l.161-.086c.161-.1.24-.191.225-.251-.026-.127-.1-.18-.206-.157a3.517,3.517,0,0,0-.349.1c-.12.041-.244.09-.375.146a7.7,7.7,0,0,0-.75.349l-1.338.776q-.161.375-.292.731l-.454,1.312a2.211,2.211,0,0,1-.435.813.375.375,0,0,1-.262.116.682.682,0,0,1-.559-.247.96.96,0,0,1-.2-.626,2.8,2.8,0,0,1,.1-.75,4.37,4.37,0,0,1,.27-.75,5.829,5.829,0,0,1,.945-1.428,5.694,5.694,0,0,1,1.2-1.874,3.52,3.52,0,0,1,.948-.78.818.818,0,0,1,.375-.116.352.352,0,0,1,.232.071.218.218,0,0,1,.082.172.723.723,0,0,1-.067.266,2.719,2.719,0,0,1-.172.352c-.075.131-.157.274-.259.42l-.311.461a.18.18,0,0,0-.037.1c0,.049.026.071.086.071a1.123,1.123,0,0,0,.375-.124l.6-.281a3.688,3.688,0,0,1,1.522-.375.974.974,0,0,1,.712.375,1.143,1.143,0,0,1,.307.757,1.124,1.124,0,0,1-.525.99l-.469.311-.521.315-.547.3a3.484,3.484,0,0,1-1.421.476,1.538,1.538,0,0,1-.727-.127.375.375,0,0,1-.225-.349C252.064,346.937,252.229,346.761,252.566,346.611Z" transform="translate(-156.033 -214.406)"/><path class="a" d="M271.826,346.2q.18,0,.18.2a.9.9,0,0,1-.09.345,1.444,1.444,0,0,1-.27.375c-.116.12-.247.244-.4.375s-.326.262-.525.4-.424.281-.663.42a7.01,7.01,0,0,1-.772.375,4.611,4.611,0,0,1-1.754.375,1.919,1.919,0,0,1-1.124-.337,1.023,1.023,0,0,1-.51-.855,1.99,1.99,0,0,1,.855-1.5,5.312,5.312,0,0,1,1.728-.948,3.329,3.329,0,0,1,1.023-.206.963.963,0,0,1,.577.169.573.573,0,0,1,.247.487c0,.319-.251.675-.75,1.064-.079.06-.154.116-.217.157l-.139.09a6.747,6.747,0,0,1-1.147.6.967.967,0,0,0,.442.124,1.256,1.256,0,0,0,.375-.049,3.743,3.743,0,0,0,.375-.139c.139-.064.285-.135.442-.217s.319-.18.48-.281a7.316,7.316,0,0,0,.937-.686,1.457,1.457,0,0,1,.528-.307A.64.64,0,0,1,271.826,346.2Zm-4.172,1.061.206-.1.184-.1a7.57,7.57,0,0,0,.87-.54c.071-.071.1-.116.1-.142a.244.244,0,0,0-.022-.094.308.308,0,0,0-.06-.094.251.251,0,0,0-.195-.1.752.752,0,0,0-.225.037,1.376,1.376,0,0,0-.247.1,1.582,1.582,0,0,0-.24.161,1.451,1.451,0,0,0-.2.2.678.678,0,0,0-.2.412A.967.967,0,0,0,267.654,347.264Z" transform="translate(-166.237 -215.832)"/><path class="a" d="M285.03,346.376c.082,0,.12.067.12.2a1.559,1.559,0,0,1-.491.911l-.214.221a5.5,5.5,0,0,1-1.848,1.3c-.356.135-.615.127-.772,0a1.338,1.338,0,0,1-.307-.6l-.09-.33-.806.495-.465.266a3.047,3.047,0,0,1-1.248.453,1.124,1.124,0,0,1-.888-.412,1.331,1.331,0,0,1-.341-.9,1.237,1.237,0,0,1,.4-.907,5.319,5.319,0,0,1,1.829-1.038,5.727,5.727,0,0,1,1.9-.442c.165,0,.247.079.247.24a.42.42,0,0,1-.064.251.675.675,0,0,1-.266.169l-.476.206a5.064,5.064,0,0,0-1.552.918.375.375,0,0,0-.139.259c0,.082.067.124.2.124a2.822,2.822,0,0,0,.918-.424l.311-.184a2.5,2.5,0,0,1,1.222-.439.54.54,0,0,1,.555.375c.023.067.041.135.064.2a1.446,1.446,0,0,0,.06.18c.045.124.086.187.124.187a.4.4,0,0,0,.157-.056c.067-.037.142-.082.225-.139s.165-.12.255-.187l.457-.375A1.776,1.776,0,0,1,285.03,346.376Z" transform="translate(-173.601 -216.064)"/><path class="a" d="M298.211,345.645a2.032,2.032,0,0,1-1.526-.99l-.454.341a2.376,2.376,0,0,1-.933.5.723.723,0,0,1-.484-.2.375.375,0,0,1-.094-.12,1.181,1.181,0,0,1-.139-.731,4.424,4.424,0,0,1,.131-1.124,5,5,0,0,1,.345-.96,7.445,7.445,0,0,1,1.031-1.529,3.373,3.373,0,0,1,.967-.93,1.638,1.638,0,0,1,.81-.307.551.551,0,0,1,.3.079.251.251,0,0,1,.124.217.566.566,0,0,1-.109.3q-1.244,1.814-1.436,2.118c-.127.2-.221.356-.274.465l-.116.247c-.026.056-.049.116-.071.176a1.03,1.03,0,0,0-.079.307c0,.064.045.094.142.094s.319-.229.693-.686l.506-.626a1.537,1.537,0,0,1,.581-.484,1.308,1.308,0,0,1,.525-.135c.42,0,.63.1.63.307a1.435,1.435,0,0,1-.42.776l-.135.142-.51.469-.334.3a2.345,2.345,0,0,0,.7.588.375.375,0,0,0,.135.038.525.525,0,0,0,.2-.071,3.286,3.286,0,0,0,.322-.18c.12-.075.247-.161.375-.255l1.034-.75a.457.457,0,0,1,.274-.109c.191,0,.285.079.285.236a1.3,1.3,0,0,1-.3.716,2.625,2.625,0,0,1-.172.2l-.244.221a6.05,6.05,0,0,1-1.837,1.256A1.328,1.328,0,0,1,298.211,345.645Z" transform="translate(-184.162 -212.313)"/><path class="a" d="M321,346.281a.429.429,0,0,1,.026-.161.808.808,0,0,1,.083-.157,1.9,1.9,0,0,1,.154-.187.933.933,0,0,1,.229-.18,1.341,1.341,0,0,1,.712-.191.813.813,0,0,1,.622.191.319.319,0,0,1,.064.217.536.536,0,0,1-.116.307,1.256,1.256,0,0,1-.3.292,1.5,1.5,0,0,1-.858.289.6.6,0,0,1-.525-.214.334.334,0,0,1-.086-.206Zm.787-1.233h-.154a.1.1,0,0,1-.071-.1.312.312,0,0,1,.022-.12l.915-2.031.232-.476a5.054,5.054,0,0,1,.311-.566l.109-.131a.63.63,0,0,1,.094-.075.484.484,0,0,1,.251-.071,1.424,1.424,0,0,1,.289.034,2.185,2.185,0,0,1,.307.082c.244.094.375.187.375.289a4.167,4.167,0,0,1-.543,1.252,5.682,5.682,0,0,1-.986,1.413A2.144,2.144,0,0,1,321.787,345.048Z" transform="translate(-200.684 -213.488)"/><g transform="translate(54 12)"><rect class="b" width="72" height="72" rx="10"/><g transform="translate(7.477 7.49)"><path class="a" d="M194,136v6a1.5,1.5,0,0,1-3,0v-6h-3v6a1.5,1.5,0,0,1-3,0v-6h-3v6a1.5,1.5,0,0,1-3,0v-6h-3v.022a12.744,12.744,0,0,0,0,25.442v.022h3v-6a1.5,1.5,0,0,1,3,0v6h3v-6a1.5,1.5,0,0,1,3,0v6h3v-6a1.5,1.5,0,0,1,3,0v6h8.246V136Z" transform="translate(-164.019 -104.516)"/><path class="a" d="M223.227,85.924V70.741c0-10.349-9.4-18.741-20.99-18.741-9.745,0-18.366,3-21.739,3a4.873,4.873,0,0,1-4.5-3,18.366,18.366,0,0,0,.768,3.748,4.978,4.978,0,0,0,4.854,1.5s-2.448,1.5-3.9.858c1.192,2.309,3.19,4.389,6.526,4.389,2.249,0,3.846-1.237,8.246-3a22.669,22.669,0,0,1,7.5-1.5h0a12.744,12.744,0,0,1,12.744,12.744h0v38.231h3a12.744,12.744,0,0,0,7.5-23.047Z" transform="translate(-171.509 -52)"/></g></g><rect class="b" width="180" height="156"/></svg>