<svg xmlns="http://www.w3.org/2000/svg" width="109.771" height="24" viewBox="0 0 109.771 24"><defs><style>.a{fill:#212121;}</style></defs><path class="a" d="M318.112,122.8h1.665l.508,3.154h1.1l-1.69-9.882h-1.5l-1.623,9.882h1.065Zm.8-5.758h.043c.094.935.342,2.616.687,4.792h-1.387C318.521,120.025,318.875,117.8,318.911,117.039Z" transform="translate(-285.547 -115.931)"/><rect class="a" width="1.052" height="9.882" transform="translate(41.117 0.139)"/><path class="a" d="M427.737,122.423c0-1.783-.026-3.362-.091-4.552h.015c.187.787,1.6,6.225,2.129,8.08H431v-9.882h-.991v3.486c0,1.611.016,3,.074,4.33h-.023c-.161-.807-1.536-5.987-2.068-7.816h-1.255v9.882h1Z" transform="translate(-378.67 -115.931)"/><path class="a" d="M495.192,123.757c0,.839-.258,1.364-1.014,1.364s-1.028-.555-1.028-1.372v-7.68H492.1v7.675c0,1.571.689,2.339,2.057,2.339,1.409,0,2.1-.835,2.1-2.363v-7.651h-1.059Z" transform="translate(-433.919 -115.931)"/><path class="a" d="M557.833,121.337h.612c.979,0,1.159.365,1.159,1.645a23.089,23.089,0,0,0,.1,2.969h1.025a26.129,26.129,0,0,1-.1-3.049c0-1.322-.292-1.794-.918-2.026.534-.188,1.006-.738,1.006-2.081v-.452c0-1.634-.73-2.274-2.215-2.274h-1.727v9.882h1.052Zm0-4.375h.594c.99,0,1.236.54,1.236,1.443v.44c0,1.056-.246,1.6-1.185,1.6h-.646Z" transform="translate(-488.595 -115.931)"/><path class="a" d="M619.686,125.363c1.787,0,2.013-1.376,2.013-2.632V122.4h-1.074v.414c0,.931-.14,1.6-.911,1.6-.742,0-.959-.652-.959-1.643v-5.13c0-.872.187-1.458.928-1.458.781,0,.9.651.9,1.434v.464h1.068v-.386c0-1.294-.3-2.472-1.955-2.472-1.338,0-2.017.873-2.017,2.454V122.7C617.682,124.15,617.975,125.363,619.686,125.363Z" transform="translate(-540.075 -115.211)"/><path class="a" d="M677.928,122.8h1.665l.508,3.154h1.1l-1.69-9.882h-1.5l-1.623,9.882h1.065Zm.8-5.758h.043c.094.935.342,2.616.687,4.792h-1.387C678.337,120.025,678.691,117.8,678.727,117.039Z" transform="translate(-589.702 -115.931)"/><path class="a" d="M742.572,125.326c1.667,0,2.064-1.265,2.064-2.655,0-1.641-.435-2.219-1.806-3.256-.906-.686-1.089-1.034-1.089-1.953,0-.775.175-1.369.853-1.369s.836.53.836,1.35v.43h1.045v-.459c0-1.255-.389-2.234-1.86-2.242-1.55-.008-1.926,1.193-1.926,2.445,0,1.456.537,1.955,1.594,2.782a2.516,2.516,0,0,1,1.295,2.417c0,1.083-.28,1.595-.987,1.595s-1.014-.5-1.014-1.428v-.573h-1.052v.568C740.525,124.281,740.977,125.326,742.572,125.326Z" transform="translate(-643.915 -115.174)"/><path class="a" d="M798.192,116.069v.974h1.6v8.908h1.052v-8.908h1.59v-.974Z" transform="translate(-692.661 -115.931)"/><path class="a" d="M326.1,213.267a.864.864,0,0,0,.043-.249.811.811,0,0,0-.183-.362,2.527,2.527,0,0,0-.2-.254,2.11,2.11,0,0,0-.246-.232,1.332,1.332,0,0,0-.273-.169.894.894,0,0,0-.369-.065q-.227,0-.637.024a10.72,10.72,0,0,0-5.768,2.23,2.992,2.992,0,0,0-.458.425l-.449.492a.9.9,0,0,0-.121.5,2.5,2.5,0,0,0,.232,1.019,1.627,1.627,0,0,0,.239.386.355.355,0,0,0,.241.155.476.476,0,0,0,.2-.039.557.557,0,0,0,.367-.42,2.227,2.227,0,0,1,.724-.946q.3-.28.688-.579t.816-.581q.427-.282.874-.536t.862-.444a6.306,6.306,0,0,1,.777-.3,2.124,2.124,0,0,1,.594-.111q.232,0,.232.217a2.332,2.332,0,0,1-.2.536l-.27.574q-.174.362-.932,1.8-.2.121-.657.461a10.243,10.243,0,0,0-1.009.886q-1.057,1.038-1.057,1.579a.889.889,0,0,0,.386.656,1.086,1.086,0,0,0,.657.3,1.727,1.727,0,0,0,.879-.26,3.371,3.371,0,0,0,.4-.278,4.232,4.232,0,0,0,.362-.331q.169-.174.316-.352t.367-.476q.22-.3.548-.842a22.1,22.1,0,0,0,1.709-3.49l.106-.28q.068-.164.125-.331T326.1,213.267Z" transform="translate(-286.276 -196.968)"/><path class="a" d="M391.9,212.964a.837.837,0,0,0-.41.174l-.338.237a5.262,5.262,0,0,0-.449.381,4.958,4.958,0,0,1-.743.546,3.693,3.693,0,0,1-.533.27,1.465,1.465,0,0,1-.558.111.552.552,0,0,1-.456-.217.846.846,0,0,1-.171-.541,3.058,3.058,0,0,1,.323-1.052l.106-.237q.034-.077.116-.227l.217-.4a.867.867,0,0,1,.2-.28l1.767,0q1.308,0,1.308-.734a.269.269,0,0,0-.3-.309l-2.293,0,.27-.656a.6.6,0,0,0,.053-.208.425.425,0,0,0-.237-.338,1.188,1.188,0,0,0-.3-.121,1.671,1.671,0,0,0-.434-.048.678.678,0,0,0-.449.159,1.765,1.765,0,0,0-.379.5l-.294.507a.656.656,0,0,1-.155.208l-1.183,0a1.327,1.327,0,0,0-.483.068.441.441,0,0,0-.193.14.487.487,0,0,0-.077.3.481.481,0,0,0,.193.372.819.819,0,0,0,.546.164h.623a.659.659,0,0,1-.087.212,7.851,7.851,0,0,0-.517,1.176,4.626,4.626,0,0,0-.584.436l-.565.463a4.741,4.741,0,0,1-1.207.767,2.274,2.274,0,0,0,.275-.251,1.188,1.188,0,0,0,.41-.729,1.467,1.467,0,0,0-.444-.951,4.58,4.58,0,0,0-.379-.374q-.2-.171-.321-.3a.594.594,0,0,0,.159-.355.568.568,0,0,0-.048-.253.523.523,0,0,0-.5-.328,1.841,1.841,0,0,0-1.072.386,1.138,1.138,0,0,0-.57.9l-.512.348q-.087.063-.21.142t-.393.292a1.358,1.358,0,0,0-.2.185l-.01.008a3.257,3.257,0,0,1-1.487.825q-.43,0-.43-.487,0-.1.031-.355a2.165,2.165,0,0,0,.022-.389.858.858,0,0,0-.29-.454,1.527,1.527,0,0,0-.227-.181.79.79,0,0,0-.227-.1.59.59,0,0,0-.355.089,3.142,3.142,0,0,0-.712.6l-.439.454-.454.444a4.426,4.426,0,0,1-.478.384,1,1,0,0,1-.584.166.4.4,0,0,1-.261-.087.332.332,0,0,1-.106-.273,1.509,1.509,0,0,1,.241-.611q.1-.178.224-.367t.224-.364a3.324,3.324,0,0,0,.171-.338.732.732,0,0,0,.07-.285.347.347,0,0,0-.053-.2.51.51,0,0,0-.454-.2,2.538,2.538,0,0,0-1.371.405,3.067,3.067,0,0,0-.541.54,3.342,3.342,0,0,0-.768,2.066,1.44,1.44,0,0,0,.5,1.168,1.55,1.55,0,0,0,.541.3,2.118,2.118,0,0,0,1.723-.2,6.813,6.813,0,0,0,1.839-1.376,1.761,1.761,0,0,0,.352,1.033,1.116,1.116,0,0,0,.922.415,2.678,2.678,0,0,0,1.255-.444q.338-.193.671-.427t.608-.459q.275-.224.475-.405a4.507,4.507,0,0,0,.35-.35l.024-.03.029-.023.468-.4a3.079,3.079,0,0,0,.386-.367,1.956,1.956,0,0,0,.193.275q.116.14.222.285a1.076,1.076,0,0,1,.266.6q0,.271-.2.27a.639.639,0,0,1-.28-.135,1.255,1.255,0,0,0-.159-.089.614.614,0,0,0-.253-.041,1.168,1.168,0,0,0-.5.2,2.528,2.528,0,0,0-.283.2,2.6,2.6,0,0,0-.244.222,1.266,1.266,0,0,0-.169.215.385.385,0,0,0-.063.2.514.514,0,0,0,.118.261,1.367,1.367,0,0,0,.34.321,2.163,2.163,0,0,0,1.265.372,4.787,4.787,0,0,0,2.375-.6,6.46,6.46,0,0,0,.982-.683q.127-.107.257-.219c0,.087-.008.173-.008.26a1.168,1.168,0,0,0,.42.845,1.754,1.754,0,0,0,1.26.463,3.841,3.841,0,0,0,1.83-.56,10.047,10.047,0,0,0,1.006-.671,8.393,8.393,0,0,0,1-.864l.237-.246a1.4,1.4,0,0,0,.444-.811Q392.372,212.964,391.9,212.964Z" transform="translate(-332.542 -194.752)"/><path class="a" d="M561.47,210.095a.566.566,0,0,0-.348.135l-1.323.966q-.256.178-.485.321a4.682,4.682,0,0,1-.413.232.73.73,0,0,1-.254.089.416.416,0,0,1-.171-.048,2.935,2.935,0,0,1-.893-.748l.43-.381.647-.6q.116-.116.174-.183a1.838,1.838,0,0,0,.536-.99q0-.391-.806-.391a1.7,1.7,0,0,0-.668.169,2.022,2.022,0,0,0-.741.618l-.647.8q-.715.873-.883.874c-.122,0-.183-.04-.183-.121a1.293,1.293,0,0,1,.1-.391q.043-.116.092-.225t.15-.316a6.643,6.643,0,0,1,.348-.594q.246-.386,1.834-2.7a.713.713,0,0,0,.135-.381.313.313,0,0,0-.157-.275.691.691,0,0,0-.384-.1,2.066,2.066,0,0,0-1.033.391,4.28,4.28,0,0,0-1.231,1.187,9.5,9.5,0,0,0-1.318,1.95,6.352,6.352,0,0,0-.329.841c-.058.045-.117.093-.178.143l-.584.468q-.169.13-.326.239a3.071,3.071,0,0,1-.287.179.477.477,0,0,1-.2.07c-.047,0-.1-.079-.157-.237q-.039-.1-.077-.229t-.082-.253a.683.683,0,0,0-.7-.468,3.223,3.223,0,0,0-1.559.56l-.4.237a3.552,3.552,0,0,1-1.168.541q-.256,0-.256-.159a.471.471,0,0,1,.179-.328,6.453,6.453,0,0,1,1.979-1.173l.608-.261a.879.879,0,0,0,.338-.217.516.516,0,0,0,.082-.319.275.275,0,0,0-.314-.309,7.353,7.353,0,0,0-2.433.565,6.779,6.779,0,0,0-2.331,1.327c-.037.037-.072.074-.105.112-.186.134-.383.268-.595.4s-.41.247-.611.355-.39.2-.567.278a4.264,4.264,0,0,1-.475.179,1.649,1.649,0,0,1-.473.063,1.23,1.23,0,0,1-.567-.159,8.51,8.51,0,0,0,1.467-.758l.174-.116q.126-.082.28-.2.97-.743.97-1.356a.731.731,0,0,0-.319-.623,1.236,1.236,0,0,0-.734-.212,4.229,4.229,0,0,0-1.308.261,6.8,6.8,0,0,0-2.206,1.212c-.031.026-.057.051-.086.077a1.548,1.548,0,0,0-.4-.729,1.235,1.235,0,0,0-.907-.459,4.7,4.7,0,0,0-1.941.459l-.772.357a1.384,1.384,0,0,1-.463.159c-.074,0-.111-.031-.111-.092a.242.242,0,0,1,.048-.13l.4-.584q.188-.285.328-.536a4.092,4.092,0,0,0,.222-.454.941.941,0,0,0,.082-.336.284.284,0,0,0-.1-.222.44.44,0,0,0-.3-.089,1.084,1.084,0,0,0-.478.145,4.65,4.65,0,0,0-1.212.994,7.344,7.344,0,0,0-1.526,2.389,7.749,7.749,0,0,0-.573.726,1.094,1.094,0,0,0,.09-.441,1,1,0,0,0-.347-.8,3.639,3.639,0,0,0-1.106-.541q-.372-.125-1.762-.449-.266-.063-.466-.126a1.358,1.358,0,0,1-.311-.133.174.174,0,0,1-.1-.171.589.589,0,0,1,.191-.28,2.27,2.27,0,0,1,.7-.391,4.081,4.081,0,0,1,1.526-.338.671.671,0,0,0,.666.454,2.14,2.14,0,0,0,1.069-.307,1.686,1.686,0,0,0,.311-.241,1.32,1.32,0,0,0,.234-.309,1.092,1.092,0,0,0,.123-.374.41.41,0,0,0-.212-.381.744.744,0,0,0-.42-.1,16.962,16.962,0,0,0-3.519.473,13.755,13.755,0,0,0-3.645,1.221.644.644,0,0,0-.256.323,1.321,1.321,0,0,0-.075.251,2.127,2.127,0,0,0-.026.384,1.048,1.048,0,0,0,.159.524,1.127,1.127,0,0,0,.22.256,1.917,1.917,0,0,0,.572.266q.439.15,2.568.666.439.1.772.193.734.193.714.323-.029.15-.483.27a7.619,7.619,0,0,1-1.873.2,11.669,11.669,0,0,1-2.848-.338l-.579-.154q-.241-.063-.391-.089a.333.333,0,0,0-.2,0q-.048.029-.048.306a2.322,2.322,0,0,0,.145.707,1.043,1.043,0,0,0,.473.652,5.584,5.584,0,0,0,2.2.343,13.958,13.958,0,0,0,1.888-.155q.565-.082,1.146-.207a10.219,10.219,0,0,0,1.105-.3,6.2,6.2,0,0,0,.948-.4,2.483,2.483,0,0,0,.655-.488,7.039,7.039,0,0,0-.433.8,6,6,0,0,0-.348.953,3.7,3.7,0,0,0-.125.956,1.218,1.218,0,0,0,.261.8.876.876,0,0,0,.714.316.462.462,0,0,0,.333-.15,2.836,2.836,0,0,0,.555-1.038l.584-1.651q.164-.463.372-.932.29-.174,1.709-.99a9.75,9.75,0,0,1,.941-.444q.256-.111.485-.188a4.131,4.131,0,0,1,.442-.123q.212-.046.265.2.024.116-.29.318l-.2.111q-.169.092-1.912.985-.285.145-.444.212-.642.285-.642.676a.493.493,0,0,0,.29.449,2.025,2.025,0,0,0,.929.159,4.4,4.4,0,0,0,1.813-.608l.7-.381q.343-.2.666-.4l.247-.163c0,.026-.005.051-.005.076a1.305,1.305,0,0,0,.647,1.091,2.465,2.465,0,0,0,1.443.43,5.875,5.875,0,0,0,2.235-.473,8.189,8.189,0,0,0,.985-.478c.141-.081.276-.162.406-.243a1.727,1.727,0,0,0,.357.634,1.436,1.436,0,0,0,1.134.526,3.842,3.842,0,0,0,1.593-.579l.594-.338,1.028-.632.116.42a1.656,1.656,0,0,0,.391.763q.3.28.985.024a6.125,6.125,0,0,0,1.837-1.18c0,.039,0,.077,0,.116a1.51,1.51,0,0,0,.179.934.48.48,0,0,0,.121.154.916.916,0,0,0,.618.251,3,3,0,0,0,1.187-.637l.56-.415a2.6,2.6,0,0,0,1.95,1.265,1.616,1.616,0,0,0,.589-.125,7.647,7.647,0,0,0,2.346-1.6l.309-.28a2.41,2.41,0,0,0,.222-.261,1.63,1.63,0,0,0,.381-.912Q561.832,210.095,561.47,210.095Zm-19.342.922-.265.135a1.334,1.334,0,0,1-.034-.343.885.885,0,0,1,.256-.526,1.761,1.761,0,0,1,.258-.254,1.952,1.952,0,0,1,.306-.2,1.851,1.851,0,0,1,.316-.133.988.988,0,0,1,.287-.048.327.327,0,0,1,.246.135.428.428,0,0,1,.077.121.308.308,0,0,1,.029.118q0,.051-.135.181a9.442,9.442,0,0,1-1.11.69Q542.258,210.949,542.127,211.017Z" transform="translate(-461.025 -191.825)"/><path class="a" d="M802.326,211.836a3.01,3.01,0,0,0-.4-.108,1.863,1.863,0,0,0-.367-.041.618.618,0,0,0-.319.092.658.658,0,0,0-.118.1q-.051.053-.14.164a6.092,6.092,0,0,0-.4.724l-.295.608-1.158,2.582a.384.384,0,0,0-.029.152.129.129,0,0,0,.092.123.239.239,0,0,0,.082.024.452.452,0,0,0,.111,0,2.706,2.706,0,0,0,1.448-.647,7.261,7.261,0,0,0,1.255-1.8,5.354,5.354,0,0,0,.7-1.6Q802.789,212.01,802.326,211.836Z" transform="translate(-693.434 -196.757)"/><path class="a" d="M795.867,244.076a1.7,1.7,0,0,0-.907.246,1.257,1.257,0,0,0-.292.229,1.9,1.9,0,0,0-.193.241,1.082,1.082,0,0,0-.109.2.562.562,0,0,0-.034.205.448.448,0,0,0,.111.263.777.777,0,0,0,.671.27,1.9,1.9,0,0,0,1.1-.367,1.558,1.558,0,0,0,.386-.374.687.687,0,0,0,.15-.391.417.417,0,0,0-.082-.278A1.033,1.033,0,0,0,795.867,244.076Z" transform="translate(-689.398 -224.136)"/><path class="a" d="M128.376,202.475a.619.619,0,0,1-1.238,0V200H125.9v2.475a.619.619,0,0,1-1.238,0V200h-1.238v2.475a.619.619,0,1,1-1.238,0V200H120.95v.01a5.259,5.259,0,0,0,0,10.5v.01h1.238v-2.475a.619.619,0,0,1,1.238,0v2.475h1.238v-2.475a.619.619,0,0,1,1.238,0v2.475h1.238v-2.475a.619.619,0,0,1,1.238,0v2.475h3.4V200h-3.4Z" transform="translate(-116 -186.878)"/><path class="a" d="M147.491,130v-6.267c0-4.272-3.878-7.735-8.663-7.735-4.022,0-7.58,1.238-8.972,1.238A2.015,2.015,0,0,1,128,116a7.59,7.59,0,0,0,.317,1.555,2.058,2.058,0,0,0,2,.611s-1.01.613-1.611.355a2.97,2.97,0,0,0,2.694,1.811c.928,0,1.587-.511,3.4-1.238a9.356,9.356,0,0,1,3.094-.619h0a5.259,5.259,0,0,1,5.254,5.254l.005.005v15.779H144.4A5.259,5.259,0,0,0,147.491,130Z" transform="translate(-126.144 -115.872)"/></svg>