<svg id="Layer_1" data-name="Layer 1" xmlns="http://www.w3.org/2000/svg" viewBox="0 0 24 24"><defs><style>.cls-1{fill:none;}.cls-2{fill:#3c424e;}</style></defs><rect class="cls-1" width="24" height="24"/><path class="cls-2" d="M20,21H4a1,1,0,0,1-1-1V16a1,1,0,0,1,2,0v3H19V5H5V8A1,1,0,0,1,3,8V4A1,1,0,0,1,4,3H20a1,1,0,0,1,1,1V20A1,1,0,0,1,20,21Z"/><path class="cls-2" d="M10.54,15.68a.91.91,0,0,1-.62-.26.88.88,0,0,1,0-1.24l1.31-1.3H4.86a.88.88,0,0,1,0-1.75h6.37L9.9,9.8a.87.87,0,0,1,0-1.24.87.87,0,0,1,1.23,0L14,11.39h0a.86.86,0,0,1,.24.55,1.08,1.08,0,0,1,0,.18.89.89,0,0,1-.21.45l-.05.06-2.79,2.79A.87.87,0,0,1,10.54,15.68Z"/></svg>