<svg id="Logo" xmlns="http://www.w3.org/2000/svg" width="150" height="39" viewBox="0 0 150 39">
  <rect id="Boundary" width="150" height="39" fill="none"/>
  <g id="Logo_content" data-name="Logo content" transform="translate(4 4.035)">
    <path id="Path_441" data-name="Path 441" d="M318.562,124.768h2.152l.657,4.077H322.8l-2.186-12.776h-1.937l-2.1,12.776h1.377Zm1.033-7.445h.056c.122,1.208.442,3.382.889,6.195h-1.793C319.091,121.184,319.548,118.31,319.6,117.323Z" transform="translate(-276.46 -115.89)" fill="#fff"/>
    <rect id="Rectangle_117" data-name="Rectangle 117" width="1.36" height="12.776" transform="translate(53.16 0.179)" fill="#fff"/>
    <path id="Path_442" data-name="Path 442" d="M428.029,124.284c0-2.306-.033-4.347-.118-5.885h.019c.242,1.017,2.073,8.048,2.752,10.446h1.568V116.069h-1.281v4.507c0,2.083.021,3.881.1,5.6h-.03c-.209-1.043-1.986-7.741-2.674-10.106h-1.622v12.776h1.29Z" transform="translate(-364.591 -115.89)" fill="#fff"/>
    <path id="Path_443" data-name="Path 443" d="M496.1,126.009c0,1.085-.334,1.763-1.311,1.763-.958,0-1.329-.718-1.329-1.773v-9.93H492.1v9.923c0,2.031.89,3.023,2.66,3.023,1.822,0,2.709-1.08,2.709-3.055v-9.891H496.1Z" transform="translate(-416.879 -115.89)" fill="#fff"/>
    <path id="Path_444" data-name="Path 444" d="M558.141,122.879h.791c1.266,0,1.5.471,1.5,2.126a29.835,29.835,0,0,0,.134,3.839h1.325a33.783,33.783,0,0,1-.125-3.942c0-1.709-.377-2.319-1.187-2.62.69-.243,1.3-.955,1.3-2.69v-.584c0-2.112-.944-2.94-2.864-2.94h-2.232v12.776h1.36Zm0-5.656h.768c1.28,0,1.6.7,1.6,1.866v.569c0,1.365-.318,2.067-1.532,2.067h-.835Z" transform="translate(-468.625 -115.89)" fill="#fff"/>
    <path id="Path_445" data-name="Path 445" d="M620.273,128.334c2.31,0,2.6-1.779,2.6-3.4V124.5h-1.389v.535c0,1.2-.181,2.067-1.177,2.067-.96,0-1.24-.843-1.24-2.125v-6.633c0-1.127.242-1.885,1.2-1.885,1.01,0,1.168.842,1.168,1.853v.6h1.38v-.5c0-1.673-.384-3.2-2.528-3.2-1.73,0-2.608,1.128-2.608,3.173v6.5C617.682,126.766,618.061,128.334,620.273,128.334Z" transform="translate(-517.346 -115.209)" fill="#fff"/>
    <path id="Path_446" data-name="Path 446" d="M678.378,124.768h2.153l.657,4.077h1.424l-2.185-12.776H678.49l-2.1,12.776h1.377Zm1.033-7.445h.056c.122,1.208.442,3.382.888,6.195h-1.793C678.907,121.184,679.364,118.31,679.411,117.323Z" transform="translate(-564.313 -115.89)" fill="#fff"/>
    <path id="Path_447" data-name="Path 447" d="M743.171,128.3c2.156,0,2.669-1.636,2.669-3.432,0-2.121-.562-2.869-2.335-4.209-1.172-.887-1.408-1.337-1.408-2.525,0-1,.226-1.77,1.1-1.77s1.081.685,1.081,1.746v.556h1.351v-.593c0-1.622-.5-2.888-2.4-2.9-2-.01-2.49,1.542-2.49,3.161,0,1.883.694,2.528,2.06,3.6,1.346,1.048,1.674,1.629,1.674,3.124,0,1.4-.362,2.062-1.276,2.062-.9,0-1.311-.643-1.311-1.846v-.741h-1.36v.734C740.525,126.948,741.109,128.3,743.171,128.3Z" transform="translate(-615.62 -115.174)" fill="#fff"/>
    <path id="Path_448" data-name="Path 448" d="M798.192,116.069v1.259h2.067v11.517h1.36V117.328h2.055v-1.259Z" transform="translate(-661.754 -115.89)" fill="#fff"/>
    <path id="Path_449" data-name="Path 449" d="M328.639,213.656a1.117,1.117,0,0,0,.056-.321,1.049,1.049,0,0,0-.237-.468,3.265,3.265,0,0,0-.262-.328,2.728,2.728,0,0,0-.318-.3,1.722,1.722,0,0,0-.353-.218,1.156,1.156,0,0,0-.478-.084q-.293,0-.824.031a13.859,13.859,0,0,0-7.458,2.883,3.873,3.873,0,0,0-.593.549l-.58.637a1.157,1.157,0,0,0-.156.643,3.228,3.228,0,0,0,.3,1.317,2.1,2.1,0,0,0,.309.5.459.459,0,0,0,.312.2.615.615,0,0,0,.253-.05.719.719,0,0,0,.474-.543,2.88,2.88,0,0,1,.936-1.223q.387-.362.889-.749t1.055-.752q.553-.365,1.13-.693t1.114-.574a8.154,8.154,0,0,1,1-.39,2.745,2.745,0,0,1,.768-.143q.3,0,.3.281a3.014,3.014,0,0,1-.262.693l-.349.743q-.225.468-1.2,2.322-.262.156-.849.6a13.245,13.245,0,0,0-1.3,1.145q-1.367,1.342-1.367,2.041a1.149,1.149,0,0,0,.5.849,1.4,1.4,0,0,0,.849.393,2.233,2.233,0,0,0,1.136-.337,4.357,4.357,0,0,0,.512-.359,5.456,5.456,0,0,0,.468-.427q.218-.225.409-.456t.474-.615q.284-.384.708-1.089a28.571,28.571,0,0,0,2.209-4.512l.137-.362q.087-.212.162-.427T328.639,213.656Z" transform="translate(-277.15 -192.584)" fill="#fff"/>
    <path id="Path_450" data-name="Path 450" d="M397.676,214.033a1.082,1.082,0,0,0-.53.225l-.437.306a6.794,6.794,0,0,0-.58.493,6.413,6.413,0,0,1-.961.705,4.774,4.774,0,0,1-.69.349,1.894,1.894,0,0,1-.721.144.713.713,0,0,1-.59-.281,1.094,1.094,0,0,1-.221-.7,3.954,3.954,0,0,1,.418-1.36l.137-.306q.043-.1.15-.293l.281-.518a1.121,1.121,0,0,1,.256-.362l2.284-.006q1.691,0,1.691-.949a.348.348,0,0,0-.387-.4l-2.964.006.349-.849a.77.77,0,0,0,.069-.268.549.549,0,0,0-.306-.437,1.535,1.535,0,0,0-.384-.156,2.159,2.159,0,0,0-.562-.062.877.877,0,0,0-.58.206,2.282,2.282,0,0,0-.49.643l-.381.655a.847.847,0,0,1-.2.268l-1.529-.006a1.716,1.716,0,0,0-.624.087.57.57,0,0,0-.25.181.63.63,0,0,0-.1.393.622.622,0,0,0,.25.481,1.059,1.059,0,0,0,.705.212h.805a.852.852,0,0,1-.112.275,10.154,10.154,0,0,0-.668,1.521,5.982,5.982,0,0,0-.755.564l-.73.6a6.128,6.128,0,0,1-1.56.992,2.948,2.948,0,0,0,.356-.324,1.536,1.536,0,0,0,.531-.942,1.9,1.9,0,0,0-.574-1.229,5.922,5.922,0,0,0-.49-.484q-.253-.222-.415-.39a.768.768,0,0,0,.206-.459.735.735,0,0,0-.063-.327.676.676,0,0,0-.643-.424,2.38,2.38,0,0,0-1.385.5,1.471,1.471,0,0,0-.736,1.167l-.662.449q-.112.081-.271.184t-.509.377a1.751,1.751,0,0,0-.256.239l-.013.01a4.211,4.211,0,0,1-1.922,1.067q-.556,0-.556-.63,0-.125.04-.459a2.8,2.8,0,0,0,.028-.5,1.109,1.109,0,0,0-.374-.587,1.971,1.971,0,0,0-.293-.234,1.02,1.02,0,0,0-.293-.134.763.763,0,0,0-.459.115,4.061,4.061,0,0,0-.92.771l-.568.587-.587.574a5.718,5.718,0,0,1-.618.5,1.3,1.3,0,0,1-.755.215.514.514,0,0,1-.337-.112.429.429,0,0,1-.137-.352,1.951,1.951,0,0,1,.312-.79q.131-.231.29-.474t.29-.471a4.289,4.289,0,0,0,.221-.437.946.946,0,0,0,.091-.368.449.449,0,0,0-.069-.259.659.659,0,0,0-.587-.256,3.281,3.281,0,0,0-1.772.524,3.965,3.965,0,0,0-.7.7,4.321,4.321,0,0,0-.992,2.671,1.862,1.862,0,0,0,.649,1.51,2,2,0,0,0,.7.384,2.738,2.738,0,0,0,2.228-.253,8.808,8.808,0,0,0,2.378-1.779,2.277,2.277,0,0,0,.456,1.336,1.443,1.443,0,0,0,1.192.537,3.463,3.463,0,0,0,1.623-.574q.437-.25.868-.552t.786-.593q.355-.29.615-.524a5.812,5.812,0,0,0,.453-.452l.031-.038.037-.03.605-.512a3.978,3.978,0,0,0,.5-.474,2.528,2.528,0,0,0,.25.356q.15.181.287.368a1.391,1.391,0,0,1,.343.78q0,.35-.256.35a.826.826,0,0,1-.362-.175,1.621,1.621,0,0,0-.206-.115.793.793,0,0,0-.328-.053,1.51,1.51,0,0,0-.652.256,3.277,3.277,0,0,0-.365.256,3.359,3.359,0,0,0-.315.287,1.636,1.636,0,0,0-.219.278.5.5,0,0,0-.081.256.665.665,0,0,0,.153.337,1.768,1.768,0,0,0,.44.415,2.8,2.8,0,0,0,1.635.481,6.189,6.189,0,0,0,3.07-.774,8.354,8.354,0,0,0,1.27-.883q.164-.138.332-.283c-.006.112-.011.224-.011.336a1.511,1.511,0,0,0,.543,1.092,2.267,2.267,0,0,0,1.629.6,4.966,4.966,0,0,0,2.365-.724,12.988,12.988,0,0,0,1.3-.868,10.864,10.864,0,0,0,1.295-1.117l.306-.318a1.811,1.811,0,0,0,.574-1.049Q398.288,214.033,397.676,214.033Z" transform="translate(-320.936 -190.487)" fill="#fff"/>
    <path id="Path_451" data-name="Path 451" d="M572.4,211.338a.732.732,0,0,0-.449.175l-1.71,1.248q-.331.231-.627.415a6.034,6.034,0,0,1-.534.3.943.943,0,0,1-.328.116.538.538,0,0,1-.221-.063,3.8,3.8,0,0,1-1.155-.967l.556-.493.836-.774q.15-.15.225-.237a2.376,2.376,0,0,0,.693-1.279q0-.505-1.042-.506a2.2,2.2,0,0,0-.864.218,2.614,2.614,0,0,0-.958.8l-.836,1.036q-.924,1.129-1.142,1.129-.237,0-.237-.156a1.673,1.673,0,0,1,.131-.505q.056-.15.119-.29t.193-.409a8.565,8.565,0,0,1,.449-.768q.318-.5,2.371-3.5a.923.923,0,0,0,.175-.493.4.4,0,0,0-.2-.356.893.893,0,0,0-.5-.131,2.671,2.671,0,0,0-1.336.505,5.536,5.536,0,0,0-1.591,1.535,12.281,12.281,0,0,0-1.7,2.521,8.223,8.223,0,0,0-.425,1.088c-.075.058-.151.12-.231.185l-.755.605q-.218.169-.421.309a3.968,3.968,0,0,1-.371.231.616.616,0,0,1-.259.091q-.091,0-.2-.306-.05-.131-.1-.3t-.106-.327a.882.882,0,0,0-.911-.606,4.167,4.167,0,0,0-2.016.724l-.518.306a4.591,4.591,0,0,1-1.51.7q-.331,0-.331-.206a.609.609,0,0,1,.231-.425,8.343,8.343,0,0,1,2.559-1.517l.786-.337a1.136,1.136,0,0,0,.437-.281.667.667,0,0,0,.106-.412.356.356,0,0,0-.406-.4,9.507,9.507,0,0,0-3.145.73,8.764,8.764,0,0,0-3.014,1.716c-.048.048-.093.1-.136.145-.24.174-.5.346-.769.517s-.53.319-.789.459-.5.259-.733.359a5.509,5.509,0,0,1-.615.231,2.131,2.131,0,0,1-.612.081,1.59,1.59,0,0,1-.733-.206,11,11,0,0,0,1.9-.98l.225-.15q.162-.106.362-.262,1.254-.961,1.254-1.754a.945.945,0,0,0-.412-.805,1.6,1.6,0,0,0-.949-.275,5.468,5.468,0,0,0-1.691.337,8.8,8.8,0,0,0-2.852,1.566c-.04.033-.073.066-.111.1a2,2,0,0,0-.519-.942,1.6,1.6,0,0,0-1.173-.593,6.082,6.082,0,0,0-2.509.593l-1,.462a1.79,1.79,0,0,1-.6.206c-.1,0-.144-.04-.144-.119a.313.313,0,0,1,.062-.168l.518-.755q.244-.368.424-.693a5.316,5.316,0,0,0,.287-.587,1.215,1.215,0,0,0,.106-.434.367.367,0,0,0-.131-.287.569.569,0,0,0-.387-.115,1.4,1.4,0,0,0-.618.187,6.014,6.014,0,0,0-1.567,1.286,9.493,9.493,0,0,0-1.972,3.089,10.013,10.013,0,0,0-.741.939,1.414,1.414,0,0,0,.117-.57,1.287,1.287,0,0,0-.449-1.036,4.7,4.7,0,0,0-1.429-.7q-.48-.162-2.278-.58-.344-.081-.6-.162a1.755,1.755,0,0,1-.4-.172.225.225,0,0,1-.128-.221.761.761,0,0,1,.246-.362,2.936,2.936,0,0,1,.9-.505,5.276,5.276,0,0,1,1.972-.437.867.867,0,0,0,.861.587,2.767,2.767,0,0,0,1.382-.4,2.182,2.182,0,0,0,.4-.312,1.71,1.71,0,0,0,.3-.4,1.407,1.407,0,0,0,.159-.484.53.53,0,0,0-.275-.493.961.961,0,0,0-.543-.125,21.929,21.929,0,0,0-4.549.611,17.784,17.784,0,0,0-4.712,1.579.832.832,0,0,0-.331.418,1.7,1.7,0,0,0-.1.325,2.746,2.746,0,0,0-.034.5,1.356,1.356,0,0,0,.206.677,1.457,1.457,0,0,0,.284.331,2.477,2.477,0,0,0,.739.343q.568.193,3.32.861.568.131,1,.25.949.25.924.418-.038.193-.624.35a9.851,9.851,0,0,1-2.422.256,15.085,15.085,0,0,1-3.682-.437l-.749-.2q-.312-.081-.505-.116a.431.431,0,0,0-.256,0q-.062.038-.063.4a3,3,0,0,0,.187.915,1.348,1.348,0,0,0,.611.842,7.22,7.22,0,0,0,2.84.443,18.047,18.047,0,0,0,2.44-.2q.73-.106,1.482-.268a13.217,13.217,0,0,0,1.429-.39,8.009,8.009,0,0,0,1.226-.521,3.213,3.213,0,0,0,.846-.631,9.089,9.089,0,0,0-.559,1.03,7.745,7.745,0,0,0-.449,1.233,4.782,4.782,0,0,0-.162,1.236,1.574,1.574,0,0,0,.337,1.036,1.132,1.132,0,0,0,.924.409.6.6,0,0,0,.431-.193,3.666,3.666,0,0,0,.718-1.342l.755-2.134q.212-.6.481-1.2.374-.225,2.209-1.279a12.6,12.6,0,0,1,1.217-.574q.331-.143.627-.243a5.342,5.342,0,0,1,.571-.159q.274-.059.343.259.031.15-.375.412l-.262.144q-.219.119-2.472,1.273-.368.187-.574.275-.83.368-.83.874a.637.637,0,0,0,.374.58,2.618,2.618,0,0,0,1.2.206,5.683,5.683,0,0,0,2.343-.786l.9-.493q.443-.256.861-.518l.319-.211c0,.033-.007.065-.007.1a1.688,1.688,0,0,0,.836,1.41,3.186,3.186,0,0,0,1.866.556,7.6,7.6,0,0,0,2.89-.612,10.581,10.581,0,0,0,1.273-.618c.182-.1.356-.209.524-.314a2.229,2.229,0,0,0,.462.82,1.857,1.857,0,0,0,1.467.68,4.966,4.966,0,0,0,2.06-.749l.768-.437,1.329-.818.15.543a2.141,2.141,0,0,0,.506.986q.387.362,1.273.031a7.919,7.919,0,0,0,2.376-1.526c0,.05,0,.1,0,.15a1.952,1.952,0,0,0,.231,1.208.621.621,0,0,0,.156.2,1.185,1.185,0,0,0,.8.325,3.874,3.874,0,0,0,1.535-.824l.724-.537a3.358,3.358,0,0,0,2.521,1.635,2.09,2.09,0,0,0,.761-.162,9.886,9.886,0,0,0,3.033-2.072l.4-.362a3.126,3.126,0,0,0,.287-.337,2.107,2.107,0,0,0,.493-1.179Q572.863,211.338,572.4,211.338Zm-25.007,1.192-.343.175a1.723,1.723,0,0,1-.044-.443,1.143,1.143,0,0,1,.331-.68,2.277,2.277,0,0,1,.334-.328,2.528,2.528,0,0,1,.4-.262,2.391,2.391,0,0,1,.409-.172,1.278,1.278,0,0,1,.371-.062.423.423,0,0,1,.318.175.555.555,0,0,1,.1.156.4.4,0,0,1,.037.153q0,.066-.175.234a12.2,12.2,0,0,1-1.435.893Q547.557,212.442,547.388,212.53Z" transform="translate(-442.533 -187.716)" fill="#fff"/>
    <path id="Path_452" data-name="Path 452" d="M803.269,211.88a3.9,3.9,0,0,0-.512-.14,2.407,2.407,0,0,0-.474-.053.8.8,0,0,0-.412.118.854.854,0,0,0-.153.125q-.065.069-.181.212a7.88,7.88,0,0,0-.515.936l-.381.786-1.5,3.339a.5.5,0,0,0-.038.2.167.167,0,0,0,.119.159.309.309,0,0,0,.106.031.584.584,0,0,0,.144-.006,3.5,3.5,0,0,0,1.872-.836,9.387,9.387,0,0,0,1.623-2.328,6.921,6.921,0,0,0,.9-2.066Q803.868,212.105,803.269,211.88Z" transform="translate(-662.485 -192.384)" fill="#fff"/>
    <path id="Path_453" data-name="Path 453" d="M796.317,244.076a2.195,2.195,0,0,0-1.173.318,1.627,1.627,0,0,0-.378.3,2.477,2.477,0,0,0-.25.312,1.4,1.4,0,0,0-.14.259.725.725,0,0,0-.044.265.579.579,0,0,0,.144.34,1,1,0,0,0,.867.349,2.462,2.462,0,0,0,1.417-.474,2.014,2.014,0,0,0,.5-.484.889.889,0,0,0,.194-.505.539.539,0,0,0-.106-.359A1.335,1.335,0,0,0,796.317,244.076Z" transform="translate(-658.666 -218.296)" fill="#fff"/>
    <path id="Path_454" data-name="Path 454" d="M132,203.2a.8.8,0,1,1-1.6,0V200h-1.6v3.2a.8.8,0,1,1-1.6,0V200h-1.6v3.2a.8.8,0,0,1-1.6,0V200h-1.6v.013a6.8,6.8,0,0,0,0,13.575v.013H124v-3.2a.8.8,0,0,1,1.6,0v3.2h1.6v-3.2a.8.8,0,0,1,1.6,0v3.2h1.6v-3.2a.8.8,0,0,1,1.6,0v3.2h4.4V200H132Z" transform="translate(-116 -183.035)" fill="#fff"/>
    <path id="Path_455" data-name="Path 455" d="M153.2,134.1V126c0-5.523-5.014-10-11.2-10-5.2,0-9.8,1.6-11.6,1.6A2.6,2.6,0,0,1,128,116a9.812,9.812,0,0,0,.409,2.011A2.66,2.66,0,0,0,131,118.8s-1.306.792-2.083.458A3.84,3.84,0,0,0,132.4,121.6c1.2,0,2.051-.66,4.4-1.6a12.1,12.1,0,0,1,4-.8h0a6.8,6.8,0,0,1,6.793,6.793l.007.007v20.4h1.6a6.8,6.8,0,0,0,4-12.3Z" transform="translate(-125.6 -115.835)" fill="#fff"/>
  </g>
</svg>
