<svg id="pinterest" xmlns="http://www.w3.org/2000/svg" width="30" height="30" viewBox="0 0 30 30">
  <path id="Path_28" data-name="Path 28" d="M15,0A15,15,0,1,0,30,15,15,15,0,0,0,15,0Zm1.726,19.982a3.685,3.685,0,0,1-3.139-1.6s-.746,2.96-.9,3.531a13.689,13.689,0,0,1-2.321,4.2.171.171,0,0,1-.305-.074,14.42,14.42,0,0,1,.039-4.883c.246-1.043,1.652-7,1.652-7a4.947,4.947,0,0,1-.409-2.033c0-1.9,1.1-3.326,2.478-3.326a1.72,1.72,0,0,1,1.732,1.929c0,1.175-.748,2.932-1.133,4.559a1.988,1.988,0,0,0,2.027,2.475c2.435,0,4.073-3.127,4.073-6.832,0-2.816-1.9-4.924-5.346-4.924a6.086,6.086,0,0,0-6.327,6.154,3.706,3.706,0,0,0,.848,2.52.623.623,0,0,1,.185.716c-.062.237-.2.806-.262,1.031a.443.443,0,0,1-.644.322c-1.794-.733-2.631-2.7-2.631-4.909,0-3.65,3.078-8.027,9.183-8.027,4.906,0,8.135,3.55,8.135,7.361C23.659,16.217,20.856,19.982,16.726,19.982Z" fill="#e60023"/>
</svg>
