<svg xmlns="http://www.w3.org/2000/svg" width="131.523" height="44" viewBox="0 0 131.523 44"><defs><style>.a{fill:#212121;}</style></defs><g transform="translate(0 -0.128)"><path class="a" d="M139.158,204.632a1.158,1.158,0,0,1-2.316,0V200h-2.316v4.632a1.158,1.158,0,1,1-2.316,0V200h-2.316v4.632a1.158,1.158,0,1,1-2.316,0V200h-2.316v.018a9.841,9.841,0,0,0,0,19.648v.018h2.316v-4.632a1.158,1.158,0,1,1,2.316,0v4.632h2.316v-4.632a1.158,1.158,0,1,1,2.316,0v4.632h2.316v-4.632a1.158,1.158,0,0,1,2.316,0v4.632h6.368V200h-6.368Z" transform="translate(-116 -175.556)"/><path class="a" d="M164.474,142.2V130.474c0-7.994-7.258-14.474-16.211-14.474-7.526,0-14.184,2.316-16.789,2.316A3.77,3.77,0,0,1,128,116a14.205,14.205,0,0,0,.592,2.91,3.851,3.851,0,0,0,3.75,1.143s-1.89,1.146-3.015.663a5.558,5.558,0,0,0,5.041,3.389c1.737,0,2.969-.956,6.368-2.316a17.507,17.507,0,0,1,5.789-1.158h0a9.842,9.842,0,0,1,9.832,9.832l.01.01V160h2.316a9.841,9.841,0,0,0,5.789-17.8Z" transform="translate(-124.526 -115.872)"/><path class="a" d="M13.613-8.351a1.154,1.154,0,0,1-1.146-.78,7.015,7.015,0,0,0-2.623.581,3.894,3.894,0,0,0-1.2.672,1.013,1.013,0,0,0-.328.481.3.3,0,0,0,.17.295,2.34,2.34,0,0,0,.535.228q.344.108.8.216,2.391.556,3.03.772a6.244,6.244,0,0,1,1.9.93,1.711,1.711,0,0,1,.6,1.378,1.768,1.768,0,0,1-.444,1.22,4.209,4.209,0,0,1-1.175.888,10.706,10.706,0,0,1-1.631.693,17.606,17.606,0,0,1-1.9.519q-1,.216-1.971.357A24.009,24.009,0,0,1,4.989.365,9.6,9.6,0,0,1,1.212-.224,1.794,1.794,0,0,1,.4-1.345,3.986,3.986,0,0,1,.149-2.561q0-.477.083-.527a.569.569,0,0,1,.34,0q.257.046.672.154l1,.266a20.061,20.061,0,0,0,4.9.581,13.086,13.086,0,0,0,3.221-.34q.78-.208.83-.465.033-.224-1.229-.556-.573-.158-1.328-.332Q4.972-4.673,4.217-4.931a3.312,3.312,0,0,1-.984-.457,1.945,1.945,0,0,1-.378-.44,1.8,1.8,0,0,1-.274-.9,3.638,3.638,0,0,1,.046-.66,2.244,2.244,0,0,1,.129-.432,1.105,1.105,0,0,1,.44-.556,23.646,23.646,0,0,1,6.267-2.1,29.16,29.16,0,0,1,6.051-.813,1.278,1.278,0,0,1,.722.166.705.705,0,0,1,.365.656,1.875,1.875,0,0,1-.212.643,2.28,2.28,0,0,1-.4.531,2.915,2.915,0,0,1-.535.415,3.535,3.535,0,0,1-.61.295A3.542,3.542,0,0,1,13.613-8.351ZM26.139-5.686q.813,0,.813.564a2.409,2.409,0,0,1-.764,1.395l-.407.423A14.472,14.472,0,0,1,24.06-1.818,17.281,17.281,0,0,1,22.329-.664,6.6,6.6,0,0,1,19.183.3a3.016,3.016,0,0,1-2.167-.8,2.009,2.009,0,0,1-.722-1.453,7.81,7.81,0,0,1,.149-1.519,12.08,12.08,0,0,1,.39-1.478,14.376,14.376,0,0,1,1.054-2.5,1.133,1.133,0,0,0,.149-.365H16.967a1.407,1.407,0,0,1-.938-.282.827.827,0,0,1-.332-.639.835.835,0,0,1,.133-.523.759.759,0,0,1,.332-.241,2.282,2.282,0,0,1,.83-.116l2.034.008a1.128,1.128,0,0,0,.266-.357l.506-.872a3.035,3.035,0,0,1,.652-.855,1.167,1.167,0,0,1,.772-.274,2.871,2.871,0,0,1,.747.083,2.041,2.041,0,0,1,.51.208.729.729,0,0,1,.407.581,1.016,1.016,0,0,1-.091.357L22.329-9.6l3.943-.008a.462.462,0,0,1,.515.531q0,1.262-2.25,1.262L21.5-7.811a1.485,1.485,0,0,0-.34.481l-.374.689q-.141.257-.2.39l-.183.407a5.265,5.265,0,0,0-.556,1.81,1.455,1.455,0,0,0,.295.93.949.949,0,0,0,.784.374,2.522,2.522,0,0,0,.959-.191,6.347,6.347,0,0,0,.917-.465,8.536,8.536,0,0,0,1.278-.938,9.015,9.015,0,0,1,.772-.656l.581-.407A1.436,1.436,0,0,1,26.139-5.686Zm9.43,1.511q0,.838.739.838a5.6,5.6,0,0,0,2.557-1.419l.73-.6a2.206,2.206,0,0,1,1.378-.6.335.335,0,0,1,.315.129.637.637,0,0,1,.075.324,1.285,1.285,0,0,1-.071.407,2.866,2.866,0,0,1-.2.444,4.139,4.139,0,0,1-.531.813,7.7,7.7,0,0,1-.6.6q-.344.311-.818.7T38.1-1.747q-.573.4-1.154.735a4.607,4.607,0,0,1-2.158.764A1.92,1.92,0,0,1,33.2-.963,3.032,3.032,0,0,1,32.6-2.739,11.72,11.72,0,0,1,29.435-.374a4.065,4.065,0,0,1-1.727.506,4.062,4.062,0,0,1-1.237-.17,2.666,2.666,0,0,1-.93-.51,2.476,2.476,0,0,1-.863-2.009A5.746,5.746,0,0,1,26-6.109a5.279,5.279,0,0,1,.93-.93,4.366,4.366,0,0,1,2.357-.7.876.876,0,0,1,.78.34.6.6,0,0,1,.091.344,1.261,1.261,0,0,1-.12.49,5.755,5.755,0,0,1-.295.581q-.174.3-.386.627t-.386.631a2.594,2.594,0,0,0-.415,1.05.571.571,0,0,0,.183.469.685.685,0,0,0,.448.149,1.725,1.725,0,0,0,1-.286A7.6,7.6,0,0,0,31.012-4l.78-.764.755-.78A5.4,5.4,0,0,1,33.772-6.57a1.016,1.016,0,0,1,.61-.154,1.354,1.354,0,0,1,.39.178,2.634,2.634,0,0,1,.39.311,1.475,1.475,0,0,1,.5.78,3.751,3.751,0,0,1-.037.668A6.078,6.078,0,0,0,35.569-4.175ZM53.706-6.134a.334.334,0,0,1,.374.382,3.394,3.394,0,0,1-.8,1.71A12.855,12.855,0,0,1,50.992-1.9a6.122,6.122,0,0,1-3.32,1.619,1.564,1.564,0,0,1-1.428-.8,4.478,4.478,0,0,1-.473-1.411l-.739.531Q41.985.149,40.483.149a2.476,2.476,0,0,1-2.009-.913,3.032,3.032,0,0,1-.664-1.967,2.472,2.472,0,0,1,.863-1.992,14.431,14.431,0,0,1,4.375-2.432,5.671,5.671,0,0,1,1.345-.39,1.374,1.374,0,0,1,.519.1,2.818,2.818,0,0,1,.469.245q.548.374.548.722a.52.52,0,0,1-.349.457,3.608,3.608,0,0,1-.365.158q-.257.1-.631.274a13.085,13.085,0,0,0-1.959,1.146q-.681.581-.681.926t.481.344a4.358,4.358,0,0,0,1.594-.706l.706-.432a10.379,10.379,0,0,0,1.212-.863l.382-1.245A17.778,17.778,0,0,1,47.887-10.1q1.527-2.93,3.071-2.93a1.68,1.68,0,0,1,.9.208,1.029,1.029,0,0,1,.6.826,3.08,3.08,0,0,1-.166.959,6.1,6.1,0,0,1-.436,1,9.539,9.539,0,0,1-.618.988L49.813-7.172q-.357.457-.631.888A4.376,4.376,0,0,0,48.7-4.507q0,1.063.772,1.063a3.543,3.543,0,0,0,1.585-.921l.979-.83A4.357,4.357,0,0,1,53.4-6.06.9.9,0,0,1,53.706-6.134ZM59.467-9.6a2.338,2.338,0,0,1-.523.328,1.5,1.5,0,0,1-.631.129,1.975,1.975,0,0,1-.672-.116,1.771,1.771,0,0,1-.564-.324,1.441,1.441,0,0,1-.523-1.146q0-1.071,1.793-1.594a3.609,3.609,0,0,1,1-.183,1.5,1.5,0,0,1,.585.087.918.918,0,0,1,.32.228.871.871,0,0,1,.249.577,1.9,1.9,0,0,1-.071.535,2.82,2.82,0,0,1-.2.5,3.762,3.762,0,0,1-.324.515A2.867,2.867,0,0,1,59.467-9.6ZM57.375-.457a8.425,8.425,0,0,1-1.229.519,3.772,3.772,0,0,1-1.175.2,2.908,2.908,0,0,1-1.2-.278,3.835,3.835,0,0,1-1.1-.743,3.154,3.154,0,0,1-1.071-2.308,4.713,4.713,0,0,1,.7-2.374A6.138,6.138,0,0,1,53.93-7.271a3.139,3.139,0,0,1,1.834-.739q1.212,0,1.295.681a4.091,4.091,0,0,1,.025.481,1.859,1.859,0,0,1-.129.627,4.5,4.5,0,0,1-.332.706,7.709,7.709,0,0,1-.448.689q-.245.336-.469.61a7.6,7.6,0,0,1-.689.755q0,.282.423.581a1.254,1.254,0,0,0,.677.282,2.024,2.024,0,0,0,.656-.133,5.068,5.068,0,0,0,.78-.357q.4-.224.822-.515t.826-.6L60.72-5.387a2.784,2.784,0,0,1,1.469-.656.4.4,0,0,1,.344.162.616.616,0,0,1,.12.378,1.328,1.328,0,0,1-.216.594,6.056,6.056,0,0,1-.594.834,12.767,12.767,0,0,1-.884.955q-.506.5-1.1.979t-1.224.917A12.667,12.667,0,0,1,57.375-.457ZM69.527-5.113q0,.448.764.448a3.13,3.13,0,0,0,1.478-.548l.664-.365a1.125,1.125,0,0,1,.535-.174.472.472,0,0,1,.361.141.547.547,0,0,1,.133.39,1.312,1.312,0,0,1-.166.577,3.994,3.994,0,0,1-.457.689,6.255,6.255,0,0,1-.681.714,6.067,6.067,0,0,1-.838.635,3.542,3.542,0,0,1-1.851.623,2.916,2.916,0,0,1-1.444-.307q-.166-.1-.324-.208A8.4,8.4,0,0,1,65.128-.639,7.212,7.212,0,0,1,62,.257a2.607,2.607,0,0,1-2.216-1.1,3.057,3.057,0,0,1-.656-1.818A3.375,3.375,0,0,1,60.546-5.2a9.349,9.349,0,0,1,2.021-1.336,14.586,14.586,0,0,1,1.764-.706,10.16,10.16,0,0,1,3-.523,2.407,2.407,0,0,1,1.067.228,2.473,2.473,0,0,1,.693.461,1.8,1.8,0,0,1,.531,1.336,1.1,1.1,0,0,1-.05.374A.711.711,0,0,0,69.527-5.113Zm-6.79,1.569-.008.025v.008q0,.357.158.465a1,1,0,0,0,.805.12A5.628,5.628,0,0,0,64.5-3.2a7.171,7.171,0,0,0,1.71-1.029,1.211,1.211,0,0,1-.133-.548,1.826,1.826,0,0,1,.523-1.2,4.073,4.073,0,0,0-1.793.623,6.7,6.7,0,0,0-1.868,1.419A.731.731,0,0,0,62.737-3.544Z" transform="translate(58.061 39.786)"/></g></svg>