<svg xmlns="http://www.w3.org/2000/svg" width="70" height="70" viewBox="0 0 70 70"><defs><style>.a{fill:#fff;}.b{fill:#999;}</style></defs><g transform="translate(-629 -1015)"><circle class="a" cx="35" cy="35" r="35" transform="translate(629 1015)"/><path class="b" d="M-4983-5440a34.779,34.779,0,0,1-13.624-2.75,34.883,34.883,0,0,1-11.125-7.5,34.874,34.874,0,0,1-7.5-11.125A34.779,34.779,0,0,1-5018-5475a34.779,34.779,0,0,1,2.75-13.624,34.882,34.882,0,0,1,7.5-11.125,34.882,34.882,0,0,1,11.125-7.5A34.779,34.779,0,0,1-4983-5510a34.774,34.774,0,0,1,13.623,2.75,34.876,34.876,0,0,1,11.125,7.5,34.882,34.882,0,0,1,7.5,11.125A34.779,34.779,0,0,1-4948-5475a34.779,34.779,0,0,1-2.75,13.624,34.874,34.874,0,0,1-7.5,11.125,34.883,34.883,0,0,1-11.125,7.5A34.774,34.774,0,0,1-4983-5440Zm-22.961-39.224a.415.415,0,0,0-.418.246.5.5,0,0,0,.2.531c7.088,5.735,14.761,8.643,22.807,8.643h.007a35.429,35.429,0,0,0,13.149-2.587,35.048,35.048,0,0,0,6.076-3.116c.062-.041.1-.066.119-.077a.654.654,0,0,0,.274-.722.6.6,0,0,0-.625-.428,1.6,1.6,0,0,0-.577.127,40.811,40.811,0,0,1-16.812,3.524,51.715,51.715,0,0,1-16.871-3,44.866,44.866,0,0,1-6.829-3A1.064,1.064,0,0,0-5005.96-5479.225Zm42.114.785c1.007,0,1.569.141,1.823.456.294.365.167.948-.01,1.756l-.039.179a23.343,23.343,0,0,1-1.08,3.2,6.206,6.206,0,0,0-.386,1.1.3.3,0,0,0,.317.256.948.948,0,0,0,.437-.141,10.98,10.98,0,0,0,2.337-3.523c.779-2.307,1.107-3.687.612-4.376-.4-.555-1.312-.663-2.755-.663-.183,0-.388,0-.627.006-1.665.027-3.9.33-5.124,1.616l-.03.032-.009.009a.265.265,0,0,0-.077.284.278.278,0,0,0,.279.147.726.726,0,0,0,.148-.017,22.16,22.16,0,0,1,4.039-.319h.144Z" transform="translate(5647 6525)"/></g></svg>