<svg xmlns="http://www.w3.org/2000/svg" width="70" height="70" viewBox="0 0 70 70"><defs><style>.a{fill:#d9d9d9;}</style></defs><path class="a" d="M227.425,167.745c-.784-.029-1.569-.024-2.353-.018a2.82,2.82,0,0,0-3.083,2.6c-.538,3.135-1.024,6.279-1.611,9.4a1.746,1.746,0,0,0,1.747,2.311c1.19.034,3.572.082,3.573.119h.5c.78,0,.894-.094,1.033-.848.064-.348.143-.692.2-1.041.585-3.429,1.158-6.861,1.757-10.288A1.792,1.792,0,0,0,227.425,167.745Z" transform="translate(-190.203 -144.792)"/><path class="a" d="M35,0A35,35,0,1,0,70,35,35,35,0,0,0,35,0Zm9.443,21.2q-1.048,6-2.11,11.995c-.709,4-1.345,8.008-2.166,11.981-.708,3.43-2.987,5.441-6.349,6.254a7.663,7.663,0,0,1-1.716.236c-3.122.027-6.245.02-9.367.021-.162,0-.324-.025-.566-.045.089-.2.142-.356.218-.494.642-1.16,1.308-2.307,1.925-3.479a1.277,1.277,0,0,1,1.264-.733c2.449,0,4.9.008,7.347-.03A2.409,2.409,0,0,0,35.359,45.2c.23-.684.366-1.4.529-2.107.066-.287.092-.583.15-.967-.252,0-.45.006-.647,0-1.773-.066-3.551-.067-5.317-.216a5.137,5.137,0,0,1-4.773-5.8c.189-1.793.529-3.572.835-5.351.349-2.037.646-4.089,1.125-6.1a7.857,7.857,0,0,1,6.678-6.316,13.209,13.209,0,0,1,2.291-.154c2.711-.021,5.422-.015,8.133-.017.165,0,.329.022.561.039C44.76,19.234,44.615,20.221,44.443,21.2Z"/></svg>