<svg xmlns="http://www.w3.org/2000/svg" width="70" height="70" viewBox="0 0 70 70"><defs><style>.a{fill:#d9d9d9;}</style></defs><path class="a" d="M35,0A35,35,0,1,0,70,35,35,35,0,0,0,35,0ZM20.035,36.333a2.545,2.545,0,0,1-5.09,0v-2.85a2.545,2.545,0,0,1,5.09,0Zm8.8,8.287a2.545,2.545,0,0,1-5.09,0V41.79a2.545,2.545,0,0,1,5.09,0Zm0-10.424a2.545,2.545,0,1,1-5.09,0V25.176a2.545,2.545,0,1,1,5.09,0Zm9.019,18.527a2.545,2.545,0,0,1-5.09,0v-2.83a2.545,2.545,0,0,1,5.09,0Zm0-10.424a2.545,2.545,0,1,1-5.09,0V27.5a2.545,2.545,0,0,1,5.09,0Zm0-22.375a2.545,2.545,0,1,1-5.09,0v-2.83a2.545,2.545,0,1,1,5.09,0Zm9.019,24.7a2.545,2.545,0,0,1-5.09,0V35.6a2.545,2.545,0,0,1,5.09,0Zm0-16.593a2.545,2.545,0,0,1-5.09,0v-2.85a2.545,2.545,0,1,1,5.09,0Zm8.8,8.307a2.545,2.545,0,0,1-5.09,0v-2.85a2.545,2.545,0,0,1,5.09,0Z"/></svg>