<svg id="Group_380" data-name="Group 380" xmlns="http://www.w3.org/2000/svg" width="70" height="70" viewBox="0 0 70 70">
  <path id="Path_728" data-name="Path 728" d="M173.56,147.623c-.265-1.9-.985-3.594-2.794-4.477a7.913,7.913,0,0,0-3.085-.85c-3.127-.109-6.26-.039-9.391-.039v-.122c-2.349,0-4.7-.047-7.047.018a22.439,22.439,0,0,0-4.012.423,4.979,4.979,0,0,0-3.958,3.848,12.008,12.008,0,0,0-.413,2.874c-.057,4.7-.062,9.394-.06,14.091,0,1.267.038,2.539.149,3.8.3,3.407,2.144,5.3,5.527,5.713a20.658,20.658,0,0,0,2.423.16q7.25.026,14.5.008a24.4,24.4,0,0,0,2.747-.17,5.642,5.642,0,0,0,5.407-5.292,15.923,15.923,0,0,0,.168-2.1q.025-7.855.008-15.711A16.145,16.145,0,0,0,173.56,147.623ZM152.394,170.9c-.913.054-1.831.031-2.747.008a4.492,4.492,0,0,1-4.673-4.707c-.021-1.038.175-1.19,1.178-.888,2.6.782,5.129,1.706,7.011,3.789a7,7,0,0,1,.8,1.469A10.321,10.321,0,0,1,152.394,170.9Zm19.192-5.914a14.433,14.433,0,0,1-.171,2.333,4.476,4.476,0,0,1-4.338,3.578c-.97.039-1.943.007-2.915.007v.01c-1,0-2,.031-3-.019a1.227,1.227,0,0,1-.857-.415c-.09-.129.142-.592.34-.8a17.974,17.974,0,0,1,6.971-4.285c1.01-.379,2.042-.7,3.057-1.066C171.323,164.1,171.618,164.324,171.586,164.984Zm-.033-11.152a1.525,1.525,0,0,1-.766.973,26.429,26.429,0,0,0-8.482,7.378,25.138,25.138,0,0,0-3.919,7.761c-.213.71-.53,1.086-1.3.969a1.688,1.688,0,0,0-.485,0c-.771.11-1.086-.193-1.2-.993a24.451,24.451,0,0,0-3.3-9.4,23.208,23.208,0,0,0-6.215-6.844,1.944,1.944,0,0,1-.932-1.881c.083-1.236-.005-2.486.1-3.718a4.067,4.067,0,0,1,3.045-3.682,1.15,1.15,0,0,1,1.538.726,69.972,69.972,0,0,1,7.05,24.185,3.079,3.079,0,0,0,.169.408c.537-1.391,1.035-2.571,1.453-3.779a45,45,0,0,0,2.654-18.849c-.057-.645-.145-1.287-.234-1.928-.074-.533.107-.849.677-.848,1.97,0,3.944-.075,5.908.037a4.375,4.375,0,0,1,4.236,4.387C171.643,150.43,171.627,152.135,171.554,153.832Z" transform="translate(-123.276 -122.688)" fill="#999"/>
  <path id="Path_729" data-name="Path 729" d="M35,0A35,35,0,1,0,70,35,35,35,0,0,0,35,0ZM52.736,34.976c0,3.184.041,6.368-.013,9.551a7.906,7.906,0,0,1-2.929,6.4,7.633,7.633,0,0,1-4.084,1.61,29.843,29.843,0,0,1-3.069.174c-5.775-.009-11.551-.009-17.326-.087a7.7,7.7,0,0,1-7-3.927,8.754,8.754,0,0,1-1.052-4.444c-.036-6.287-.05-12.574.014-18.86.034-3.326,1.379-6,4.538-7.415a8.239,8.239,0,0,1,3.207-.73c6.718-.058,13.444-.2,20.153.051,4.692.177,7.354,3.176,7.531,7.885.123,3.26.024,6.528.024,9.793Z" fill="#999"/>
</svg>
