<svg id="Group_351" data-name="Group 351" xmlns="http://www.w3.org/2000/svg" width="70" height="70" viewBox="0 0 70 70">
  <path id="Path_733" data-name="Path 733" d="M198.511,243.266c-.481-.287-.969-.567-1.472-.811a26.778,26.778,0,0,0-11.957-2.592c-.654.05-1.831.086-2.987.259-1.214.18-2.413.46-3.612.761a1.38,1.38,0,0,0-.941,1.946,1.4,1.4,0,0,0,1.781.711,22.74,22.74,0,0,1,8.876-.711,21.452,21.452,0,0,1,8.912,2.844,1.392,1.392,0,1,0,1.4-2.406Z" transform="translate(-153.151 -207.068)" fill="#999"/>
  <path id="Path_734" data-name="Path 734" d="M201.175,285.61c-1.128-.553-2.233-1.156-3.4-1.594a20.375,20.375,0,0,0-7.684-1.17,31.764,31.764,0,0,0-6.111.768,1.134,1.134,0,0,0-1.005,1.321,1.106,1.106,0,0,0,1.472.855,27.157,27.157,0,0,1,7.691-.675,16.949,16.949,0,0,1,5.336,1.163c.883.366,1.723.819,2.571,1.257a1.109,1.109,0,0,0,1.723-.934A1.027,1.027,0,0,0,201.175,285.61Z" transform="translate(-157.933 -244.17)" fill="#999"/>
  <path id="Path_735" data-name="Path 735" d="M193.21,198.32a27.4,27.4,0,0,0-2.571-1.257,33.862,33.862,0,0,0-13.285-2.219c-.682.05-1.767.1-2.851.215a23.17,23.17,0,0,0-4.74.926,1.673,1.673,0,0,0,.991,3.2,26.122,26.122,0,0,1,6.614-.977,32.469,32.469,0,0,1,6.463.424,22.579,22.579,0,0,1,7.705,2.585,1.677,1.677,0,0,0,2.37-.56A1.649,1.649,0,0,0,193.21,198.32Z" transform="translate(-145.544 -168.205)" fill="#999"/>
  <path id="Path_736" data-name="Path 736" d="M35,0A35,35,0,1,0,70,35,35,35,0,0,0,35,0ZM50.89,44.2a17.169,17.169,0,0,1-12.739,8.581c-7.109.991-12.9-1.508-17.242-7.231a16.4,16.4,0,0,1-3.275-8.38,17.565,17.565,0,0,1,5.515-15.124,16.9,16.9,0,0,1,10.714-4.819,17.541,17.541,0,0,1,15.993,7.181,16.657,16.657,0,0,1,3.354,8.23,20.127,20.127,0,0,1,.014,2.463A.241.241,0,0,1,53.3,35.1c0,.18-.007.359,0,.539A15.529,15.529,0,0,1,50.89,44.2Z" fill="#999"/>
</svg>
