<svg xmlns="http://www.w3.org/2000/svg" width="240" height="208" viewBox="0 0 240 208"><defs><style>.a{fill:#212121;}.b{fill:none;}</style></defs><g transform="translate(26.662 127.627)"><path class="a" d="M56.963,271.927l-1.114,7.461h-2.5L57.173,256h3.543l4,23.373H62.106l-1.2-7.461Zm3.618-2.284c-.82-5.147-1.409-9.145-1.624-11.334h-.1c-.085,1.8-.92,7.067-1.549,11.334Z" transform="translate(-53.35 -255.69)"/><path class="a" d="M103.5,256v23.388H101V256Z" transform="translate(-77.187 -255.69)"/><path class="a" d="M134,279.388V256h2.964c1.259,4.328,4.5,16.577,4.893,18.491h.055c-.135-3.143-.175-6.432-.175-10.24V256h2.344v23.388h-2.869c-1.244-4.388-4.593-17.251-5.033-19.111h-.035c.155,2.814.215,6.547.215,10.765v8.346Z" transform="translate(-93.695 -255.69)"/><path class="a" d="M184.279,256v18.166c0,1.929.68,3.243,2.429,3.243s2.4-1.239,2.4-3.223V256h2.5v18.1c0,3.613-1.624,5.587-4.958,5.587-3.238,0-4.868-1.814-4.868-5.532V256Z" transform="translate(-117.597 -255.69)"/><path class="a" d="M231.629,268.494v10.895h-2.5V256h4.088c3.5,0,5.237,1.5,5.237,5.377v1.069c0,3.173-1.119,4.5-2.379,4.923,1.5.55,2.169,1.664,2.169,4.793a61.569,61.569,0,0,0,.23,7.211h-2.414a54.79,54.79,0,0,1-.245-7.027c0-3.024-.425-3.888-2.739-3.888Zm0-2.114h1.529c2.219,0,2.8-1.284,2.8-3.778v-1.039c0-2.134-.58-3.413-2.924-3.413h-1.4Z" transform="translate(-141.283 -255.69)"/><path class="a" d="M283.24,272.377v.81c0,3-.535,6.227-4.763,6.227-4.048,0-4.738-2.869-4.738-6.3V261.192c0-3.738,1.6-5.8,4.768-5.8,3.923,0,4.628,2.784,4.628,5.847v.91h-2.529v-1.094c0-1.854-.285-3.393-2.134-3.393-1.754,0-2.194,1.389-2.194,3.448v12.134c0,2.344.5,3.888,2.264,3.888s2.154-1.584,2.154-3.783v-1Z" transform="translate(-163.599 -255.385)"/><path class="a" d="M320.383,271.927l-1.114,7.461h-2.5L320.583,256h3.543l4,23.373h-2.609l-1.2-7.461ZM324,269.643c-.825-5.147-1.409-9.145-1.619-11.334h-.1c-.085,1.8-.925,7.067-1.554,11.334Z" transform="translate(-185.125 -255.69)"/><path class="a" d="M366.149,272.5v1.354c0,2.2.76,3.378,2.4,3.378s2.334-1.214,2.334-3.773c0-2.734-.6-3.8-3.064-5.717s-3.768-3.133-3.768-6.577c0-2.964.89-5.8,4.558-5.782,3.5,0,4.4,2.334,4.4,5.3v1.089h-2.474v-1c0-1.939-.375-3.193-2-3.193s-2,1.4-2,3.238c0,2.169.435,3,2.574,4.618,3.248,2.454,4.273,3.818,4.273,7.7,0,3.283-.94,6.277-4.883,6.277-3.773,0-4.838-2.474-4.838-5.552v-1.339Z" transform="translate(-208.582 -255.38)"/><path class="a" d="M409.663,258.319H405.88V256h10.055v2.3h-3.758v21.085h-2.5Z" transform="translate(-229.702 -255.69)"/></g><path class="a" d="M167.669,347.007a.535.535,0,0,1-.2.04.389.389,0,0,1-.255-.16,1.932,1.932,0,0,1-.25-.4,2.644,2.644,0,0,1-.24-1.065.93.93,0,0,1,.125-.5l.47-.5a3.644,3.644,0,0,1,.5-.445,11.229,11.229,0,0,1,6.027-2.329c.285,0,.5-.025.665-.025a.93.93,0,0,1,.385.07,1.408,1.408,0,0,1,.285.175,2,2,0,0,1,.26.245,2.393,2.393,0,0,1,.21.26.819.819,0,0,1,.19.38.914.914,0,0,1-.045.26c-.03.1-.065.21-.1.325s-.085.23-.13.345l-.11.29a23.3,23.3,0,0,1-1.784,3.648c-.23.38-.42.675-.575.88s-.28.375-.385.5-.21.245-.33.365a4.089,4.089,0,0,1-.375.345,3.122,3.122,0,0,1-.415.29,1.78,1.78,0,0,1-.92.275,1.125,1.125,0,0,1-.685-.32.919.919,0,0,1-.4-.685c0-.375.37-.925,1.1-1.649a10.936,10.936,0,0,1,1.055-.925,7.276,7.276,0,0,1,.685-.5c.53-1,.855-1.624.975-1.879l.285-.6a2.5,2.5,0,0,0,.21-.56q0-.225-.24-.225a2.141,2.141,0,0,0-.625.115,6.066,6.066,0,0,0-.81.315,9.7,9.7,0,0,0-.9.465c-.31.175-.615.36-.915.56s-.58.4-.855.6-.5.41-.715.6a2.393,2.393,0,0,0-.76,1,.575.575,0,0,1-.4.415Z" transform="translate(-83.401 -170.894)"/><path class="a" d="M191.03,348.016q0,.5.45.5a3.433,3.433,0,0,0,1.554-.865l.445-.36a1.32,1.32,0,0,1,.835-.365.2.2,0,0,1,.195.08.375.375,0,0,1,.045.195.729.729,0,0,1-.045.245,1.588,1.588,0,0,1-.12.27,2.293,2.293,0,0,1-.32.5,5.156,5.156,0,0,1-.37.37c-.135.125-.3.265-.5.42s-.4.32-.635.5a7.133,7.133,0,0,1-.7.445,2.809,2.809,0,0,1-1.314.465,1.165,1.165,0,0,1-.96-.43,1.824,1.824,0,0,1-.37-1.079,7.071,7.071,0,0,1-1.924,1.434,2.454,2.454,0,0,1-1.049.31,2.425,2.425,0,0,1-.75-.1,1.589,1.589,0,0,1-.565-.31,1.5,1.5,0,0,1-.525-1.219,3.5,3.5,0,0,1,.8-2.159,3,3,0,0,1,.565-.565,2.619,2.619,0,0,1,1.429-.425.535.535,0,0,1,.475.2.385.385,0,0,1,.055.21.775.775,0,0,1-.075.3,2.851,2.851,0,0,1-.175.35c-.07.125-.15.25-.235.385s-.165.255-.235.38a1.589,1.589,0,0,0-.255.64.345.345,0,0,0,.115.285.41.41,0,0,0,.27.09,1,1,0,0,0,.61-.175,4.5,4.5,0,0,0,.5-.4l.475-.465.46-.475a3.228,3.228,0,0,1,.745-.62.6.6,0,0,1,.37-.095.761.761,0,0,1,.235.11,1.6,1.6,0,0,1,.24.19.885.885,0,0,1,.3.475,2.089,2.089,0,0,1,0,.4A3.093,3.093,0,0,0,191.03,348.016Z" transform="translate(-92.248 -173.018)"/><path class="a" d="M205.169,345.054a.57.57,0,0,1,.05.265.624.624,0,0,1-.165.37c.09.09.2.195.335.315a4.883,4.883,0,0,1,.4.39,1.549,1.549,0,0,1,.46,1,1.229,1.229,0,0,1-.425.76,2.429,2.429,0,0,1-.29.265,5,5,0,0,0,1.259-.8l.59-.5a3.294,3.294,0,0,1,.69-.5.881.881,0,0,1,.315-.07.605.605,0,0,1,.275.07.245.245,0,0,1,.135.23.915.915,0,0,1-.05.31,2,2,0,0,1-.12.275,1.851,1.851,0,0,1-.295.375c-.35.33-.695.635-1,.915a6.918,6.918,0,0,1-1.029.715,5,5,0,0,1-2.5.625,2.264,2.264,0,0,1-1.324-.39,1.536,1.536,0,0,1-.355-.335.535.535,0,0,1-.12-.275.39.39,0,0,1,.065-.2,1.25,1.25,0,0,1,.175-.225,2.925,2.925,0,0,1,.255-.23,2.89,2.89,0,0,1,.295-.21,1.239,1.239,0,0,1,.53-.2.629.629,0,0,1,.265.045,1.28,1.28,0,0,1,.165.09.645.645,0,0,0,.29.14c.14,0,.21-.09.21-.28a1.129,1.129,0,0,0-.28-.63l-.23-.3a2.02,2.02,0,0,1-.2-.285,2.962,2.962,0,0,1-.4.38l-.5.415a1.384,1.384,0,0,1-.945.42c-.17,0-.25-.2-.25-.56a1.107,1.107,0,0,1,0-.185c0-.1.12-.23.3-.38a5.063,5.063,0,0,1,.41-.3c.085-.055.16-.1.22-.15l.535-.365a1.189,1.189,0,0,1,.595-.94,1.929,1.929,0,0,1,1.124-.4A.54.54,0,0,1,205.169,345.054Z" transform="translate(-100.771 -172.43)"/><path class="a" d="M219.321,344.533q.5,0,.5.345a1.449,1.449,0,0,1-.465.845l-.25.26a9.188,9.188,0,0,1-1.044.9,10.866,10.866,0,0,1-1.049.7,4.033,4.033,0,0,1-1.914.585,1.819,1.819,0,0,1-1.314-.5,1.219,1.219,0,0,1-.44-.884,4.777,4.777,0,0,1,.09-.92,7.933,7.933,0,0,1,.235-.9,8.623,8.623,0,0,1,.645-1.5.681.681,0,0,0,.09-.22h-.65a.859.859,0,0,1-.57-.17.5.5,0,0,1-.2-.39.545.545,0,0,1,.08-.32.5.5,0,0,1,.2-.145,1.43,1.43,0,0,1,.5-.07h1.224a.766.766,0,0,0,.16-.215l.31-.53a1.78,1.78,0,0,1,.395-.5.69.69,0,0,1,.47-.17,1.938,1.938,0,0,1,.455.05,1.371,1.371,0,0,1,.31.13.435.435,0,0,1,.245.35.665.665,0,0,1-.055.22l-.28.685h2.394c.21,0,.31.1.31.325q0,.765-1.364.765h-1.849a1,1,0,0,0-.21.29l-.225.42a1.73,1.73,0,0,0-.12.24l-.115.245a3.2,3.2,0,0,0-.335,1.1.879.879,0,0,0,.18.565.57.57,0,0,0,.5.23,1.5,1.5,0,0,0,.585-.12,3.607,3.607,0,0,0,.555-.28,5.277,5.277,0,0,0,.78-.57,4.886,4.886,0,0,1,.465-.4l.355-.245A.845.845,0,0,1,219.321,344.533Z" transform="translate(-106.541 -170.454)"/><path class="a" d="M241.806,343.3a.7.7,0,0,1-.695-.475,4.264,4.264,0,0,0-1.594.355,2.43,2.43,0,0,0-.73.41.629.629,0,0,0-.2.29.19.19,0,0,0,.1.18,1.46,1.46,0,0,0,.325.14c.14.045.3.085.5.13.965.225,1.579.385,1.839.47a3.748,3.748,0,0,1,1.154.565,1.034,1.034,0,0,1,.365.84,1.069,1.069,0,0,1-.27.74,2.653,2.653,0,0,1-.715.54,5.994,5.994,0,0,1-1,.42,9.737,9.737,0,0,1-1.154.315c-.4.09-.8.16-1.2.22a15.015,15.015,0,0,1-1.974.16,5.817,5.817,0,0,1-2.294-.36,1.094,1.094,0,0,1-.5-.68,2.439,2.439,0,0,1-.15-.74c0-.19,0-.3.05-.32a.335.335,0,0,1,.2,0,2.215,2.215,0,0,1,.41.09l.6.165a12.222,12.222,0,0,0,3,.35,7.833,7.833,0,0,0,1.954-.2c.315-.085.5-.18.5-.285s-.235-.2-.745-.335c-.235-.065-.5-.13-.81-.2q-2.219-.54-2.684-.695a2,2,0,0,1-.595-.275,1.064,1.064,0,0,1-.23-.27,1.1,1.1,0,0,1-.165-.545,2.163,2.163,0,0,1,.025-.4,1.43,1.43,0,0,1,.08-.26.68.68,0,0,1,.265-.34,14.3,14.3,0,0,1,3.808-1.274,17.69,17.69,0,0,1,3.678-.5.8.8,0,0,1,.44.1.435.435,0,0,1,.22.4,1.058,1.058,0,0,1-.13.39,1.29,1.29,0,0,1-.245.325,1.6,1.6,0,0,1-.325.25,1.692,1.692,0,0,1-.37.18,2.129,2.129,0,0,1-.755.145Z" transform="translate(-116.868 -170.838)"/><path class="a" d="M253.562,347.832c.11-.045.265-.12.465-.22,1.209-.625,1.879-.965,2-1.029l.215-.115c.215-.14.32-.255.3-.335-.035-.17-.13-.24-.275-.21a4.662,4.662,0,0,0-.465.13c-.16.055-.325.12-.5.195a10.268,10.268,0,0,0-1,.465l-1.784,1.034q-.215.5-.39.975l-.6,1.749a2.949,2.949,0,0,1-.58,1.084.5.5,0,0,1-.35.155.91.91,0,0,1-.745-.33,1.279,1.279,0,0,1-.27-.835,3.733,3.733,0,0,1,.13-1,5.827,5.827,0,0,1,.36-1,7.772,7.772,0,0,1,1.259-1.9,7.592,7.592,0,0,1,1.594-2.5,4.693,4.693,0,0,1,1.264-1.039,1.089,1.089,0,0,1,.5-.155.469.469,0,0,1,.31.095.29.29,0,0,1,.11.23.964.964,0,0,1-.09.355,3.63,3.63,0,0,1-.23.47c-.1.175-.21.365-.345.56l-.415.615a.24.24,0,0,0-.05.135c0,.065.035.095.115.095a1.5,1.5,0,0,0,.5-.165l.8-.375a4.918,4.918,0,0,1,2.029-.5,1.3,1.3,0,0,1,.95.5,1.524,1.524,0,0,1,.41,1.01,1.5,1.5,0,0,1-.7,1.319l-.625.415-.695.42-.73.4a4.644,4.644,0,0,1-1.894.635,2.05,2.05,0,0,1-.97-.17.5.5,0,0,1-.3-.465C252.892,348.267,253.112,348.032,253.562,347.832Z" transform="translate(-124.851 -171.559)"/><path class="a" d="M273.8,346.529q.24,0,.24.27a1.206,1.206,0,0,1-.12.46,1.925,1.925,0,0,1-.36.5c-.155.16-.33.325-.53.5s-.435.35-.7.54-.565.375-.885.56a9.355,9.355,0,0,1-1.03.5,6.147,6.147,0,0,1-2.339.5,2.559,2.559,0,0,1-1.5-.45,1.364,1.364,0,0,1-.68-1.139,2.654,2.654,0,0,1,1.139-2,7.082,7.082,0,0,1,2.3-1.264,4.438,4.438,0,0,1,1.364-.275,1.284,1.284,0,0,1,.77.225.764.764,0,0,1,.33.65c0,.425-.335.9-1,1.419-.1.08-.2.155-.29.21l-.185.12a8.995,8.995,0,0,1-1.529.795,1.289,1.289,0,0,0,.59.165,1.674,1.674,0,0,0,.5-.065,4.989,4.989,0,0,0,.5-.185c.185-.085.38-.18.59-.29s.425-.24.64-.375a9.75,9.75,0,0,0,1.249-.914,1.943,1.943,0,0,1,.7-.41A.852.852,0,0,1,273.8,346.529Zm-5.562,1.414.275-.14.245-.13a10.092,10.092,0,0,0,1.159-.72c.095-.095.14-.155.14-.19a.325.325,0,0,0-.03-.125.41.41,0,0,0-.08-.125.335.335,0,0,0-.26-.14,1,1,0,0,0-.3.05,1.834,1.834,0,0,0-.33.135,2.11,2.11,0,0,0-.32.215,1.933,1.933,0,0,0-.27.265.9.9,0,0,0-.265.55A1.288,1.288,0,0,0,268.239,347.943Z" transform="translate(-133.016 -172.7)"/><path class="a" d="M287.48,346.634c.11,0,.16.09.16.27a2.079,2.079,0,0,1-.655,1.214l-.285.295a7.335,7.335,0,0,1-2.464,1.739c-.475.18-.82.17-1.029,0a1.784,1.784,0,0,1-.41-.795l-.12-.44-1.074.66-.62.355a4.063,4.063,0,0,1-1.664.6,1.5,1.5,0,0,1-1.184-.55,1.774,1.774,0,0,1-.455-1.2,1.649,1.649,0,0,1,.54-1.209,7.092,7.092,0,0,1,2.439-1.384,7.637,7.637,0,0,1,2.539-.59c.22,0,.33.1.33.32a.56.56,0,0,1-.085.335.9.9,0,0,1-.355.225l-.635.275a6.753,6.753,0,0,0-2.069,1.224.5.5,0,0,0-.185.345c0,.11.09.165.265.165a3.762,3.762,0,0,0,1.224-.565l.415-.245a3.328,3.328,0,0,1,1.629-.585.72.72,0,0,1,.74.5c.03.09.055.18.085.265a1.922,1.922,0,0,0,.08.24c.06.165.115.25.165.25a.529.529,0,0,0,.21-.075c.09-.05.19-.11.3-.185s.22-.16.34-.25l.61-.5A2.368,2.368,0,0,1,287.48,346.634Z" transform="translate(-138.909 -172.885)"/><path class="a" d="M299.424,347.661a2.709,2.709,0,0,1-2.034-1.319l-.6.455a3.168,3.168,0,0,1-1.244.67.965.965,0,0,1-.645-.265.5.5,0,0,1-.125-.16,1.574,1.574,0,0,1-.185-.975,5.9,5.9,0,0,1,.175-1.5,6.67,6.67,0,0,1,.46-1.279,9.925,9.925,0,0,1,1.374-2.039,4.5,4.5,0,0,1,1.289-1.239,2.184,2.184,0,0,1,1.079-.41.734.734,0,0,1,.4.1.335.335,0,0,1,.165.29.755.755,0,0,1-.145.4q-1.659,2.419-1.914,2.824c-.17.27-.295.475-.365.62l-.155.33c-.035.075-.065.155-.095.235a1.374,1.374,0,0,0-.1.41c0,.085.06.125.19.125s.425-.3.925-.915l.675-.835a2.049,2.049,0,0,1,.775-.645,1.744,1.744,0,0,1,.7-.18c.56,0,.84.14.84.41a1.914,1.914,0,0,1-.56,1.034l-.18.19-.68.625-.445.4a3.128,3.128,0,0,0,.93.785.5.5,0,0,0,.18.05.7.7,0,0,0,.265-.095,4.383,4.383,0,0,0,.43-.24c.16-.1.33-.215.5-.34l1.379-1a.61.61,0,0,1,.365-.145c.255,0,.38.1.38.315a1.729,1.729,0,0,1-.4.955,3.5,3.5,0,0,1-.23.27l-.325.295a8.067,8.067,0,0,1-2.449,1.674A1.77,1.77,0,0,1,299.424,347.661Z" transform="translate(-147.359 -169.884)"/><path class="a" d="M321,347.882a.57.57,0,0,1,.035-.215,1.076,1.076,0,0,1,.11-.21,2.53,2.53,0,0,1,.2-.25,1.244,1.244,0,0,1,.3-.24,1.789,1.789,0,0,1,.95-.255,1.084,1.084,0,0,1,.83.255.425.425,0,0,1,.085.29.715.715,0,0,1-.155.41,1.675,1.675,0,0,1-.4.39,2,2,0,0,1-1.144.385.8.8,0,0,1-.7-.285.445.445,0,0,1-.115-.275Zm1.049-1.644h-.2a.135.135,0,0,1-.095-.13.415.415,0,0,1,.03-.16L323,343.239l.31-.635a6.729,6.729,0,0,1,.415-.755l.145-.175a.846.846,0,0,1,.125-.1.645.645,0,0,1,.335-.095,1.9,1.9,0,0,1,.385.045,2.919,2.919,0,0,1,.41.11c.325.125.5.25.5.385a5.556,5.556,0,0,1-.725,1.669,7.576,7.576,0,0,1-1.314,1.884A2.859,2.859,0,0,1,322.049,346.238Z" transform="translate(-160.579 -170.824)"/><g transform="translate(71.964 15.992)"><rect class="b" width="96" height="96" rx="10" transform="translate(0.036 0.008)"/><g transform="translate(10.005 9.995)"><path class="a" d="M203.99,136v8a2,2,0,0,1-4,0v-8h-4v8a2,2,0,0,1-4,0v-8h-4v8a2,2,0,0,1-4,0v-8h-4v.03a16.992,16.992,0,0,0,0,33.923v.03h4v-8a2,2,0,0,1,4,0v8h4v-8a2,2,0,0,1,4,0v8h4v-8a2,2,0,0,1,4,0v8h10.995V136Z" transform="translate(-164.019 -94.021)"/><path class="a" d="M238.969,97.233V76.988c0-13.8-12.529-24.988-27.986-24.988-12.994,0-24.488,4-28.986,4a6.5,6.5,0,0,1-6-4,24.487,24.487,0,0,0,1.024,5,6.637,6.637,0,0,0,6.472,2s-3.263,2-5.2,1.144c1.589,3.078,4.253,5.852,8.7,5.852,3,0,5.127-1.649,10.995-4a30.225,30.225,0,0,1,10-2h0a16.992,16.992,0,0,1,16.992,16.992h0v50.975h4a16.992,16.992,0,0,0,10-30.73Z" transform="translate(-170.012 -52)"/></g></g><rect class="b" width="240" height="208"/></svg>