<svg xmlns="http://www.w3.org/2000/svg" xmlns:xlink="http://www.w3.org/1999/xlink" width="30" height="30" viewBox="0 0 30 30">
  <defs>
    <clipPath id="clip-path">
      <circle id="Ellipse_4" data-name="Ellipse 4" cx="15" cy="15" r="15" transform="translate(3807 1639)" fill="#fff"/>
    </clipPath>
    <radialGradient id="radial-gradient" cx="0.372" cy="1.001" r="1.247" gradientUnits="objectBoundingBox">
      <stop offset="0" stop-color="#fd5"/>
      <stop offset="0.328" stop-color="#ff543f"/>
      <stop offset="0.348" stop-color="#fc5245"/>
      <stop offset="0.504" stop-color="#e64771"/>
      <stop offset="0.643" stop-color="#d53e91"/>
      <stop offset="0.761" stop-color="#cc39a4"/>
      <stop offset="0.841" stop-color="#c837ab"/>
    </radialGradient>
    <radialGradient id="radial-gradient-2" cx="0.161" cy="-0.012" r="0.828" gradientTransform="translate(0 -0.004) scale(1 0.666)" gradientUnits="objectBoundingBox">
      <stop offset="0" stop-color="#4168c9"/>
      <stop offset="0.999" stop-color="#4168c9" stop-opacity="0"/>
    </radialGradient>
  </defs>
  <g id="Mask_Group_1" data-name="Mask Group 1" transform="translate(-3807 -1639)" clip-path="url(#clip-path)">
    <g id="icons8-instagram" transform="translate(3801.01 1633.01)">
      <path id="Path_33" data-name="Path 33" d="M29.334,35.974l-16.658.016a6.683,6.683,0,0,1-6.67-6.656L5.99,12.676a6.683,6.683,0,0,1,6.656-6.67L29.3,5.99a6.683,6.683,0,0,1,6.67,6.656L35.99,29.3A6.682,6.682,0,0,1,29.334,35.974Z" transform="translate(0)" fill="url(#radial-gradient)"/>
      <path id="Path_34" data-name="Path 34" d="M29.334,35.974l-16.658.016a6.683,6.683,0,0,1-6.67-6.656L5.99,12.676a6.683,6.683,0,0,1,6.656-6.67L29.3,5.99a6.683,6.683,0,0,1,6.67,6.656L35.99,29.3A6.682,6.682,0,0,1,29.334,35.974Z" transform="translate(0)" fill="url(#radial-gradient-2)"/>
      <path id="Path_35" data-name="Path 35" d="M24,31a7,7,0,1,1,7-7A7.008,7.008,0,0,1,24,31Zm0-12a5,5,0,1,0,5,5A5.006,5.006,0,0,0,24,19Z" transform="translate(-3.01 -3.01)" fill="#fff"/>
      <circle id="Ellipse_3" data-name="Ellipse 3" cx="1.5" cy="1.5" r="1.5" transform="translate(25.623 13.358)" fill="#fff"/>
      <path id="Path_36" data-name="Path 36" d="M25.6,30.981H16.379A5.386,5.386,0,0,1,11,25.6V16.379A5.386,5.386,0,0,1,16.379,11H25.6a5.386,5.386,0,0,1,5.379,5.379V25.6A5.386,5.386,0,0,1,25.6,30.981ZM16.379,12.537a3.847,3.847,0,0,0-3.842,3.842V25.6a3.847,3.847,0,0,0,3.842,3.842H25.6A3.847,3.847,0,0,0,29.444,25.6V16.379A3.847,3.847,0,0,0,25.6,12.537Z" fill="#fff"/>
    </g>
  </g>
</svg>
