<svg xmlns="http://www.w3.org/2000/svg" width="197.461" height="40" viewBox="0 0 197.461 40">
  <g id="Group_7" data-name="Group 7" transform="translate(-230 -20)">
    <g id="Group_3" data-name="Group 3" transform="translate(176 8)">
      <rect id="Rectangle_26" data-name="Rectangle 26" width="40" height="40" rx="10" transform="translate(54 12)" fill="none"/>
      <g id="Group_1" data-name="Group 1" transform="translate(61.507 19.5)">
        <path id="Path_20" data-name="Path 20" d="M177.171,136v2.632a.658.658,0,1,1-1.316,0V136H174.54v2.632a.658.658,0,1,1-1.316,0V136h-1.316v2.632a.658.658,0,1,1-1.316,0V136h-1.316v.01a5.592,5.592,0,0,0,0,11.164v.01h1.316v-2.632a.658.658,0,1,1,1.316,0v2.632h1.316v-2.632a.658.658,0,1,1,1.316,0v2.632h1.316v-2.632a.658.658,0,1,1,1.316,0v2.632h3.618V136Z" transform="translate(-164.019 -122.184)" fill="#212121"/>
        <path id="Path_21" data-name="Path 21" d="M196.719,66.887V60.224c0-4.541-4.122-8.224-9.209-8.224-4.275,0-8.057,1.316-9.537,1.316A2.138,2.138,0,0,1,176,52a8.061,8.061,0,0,0,.337,1.645,2.183,2.183,0,0,0,2.129.658s-1.074.658-1.712.377a3.157,3.157,0,0,0,2.863,1.926c.987,0,1.687-.543,3.618-1.316a9.943,9.943,0,0,1,3.289-.658h0a5.592,5.592,0,0,1,5.591,5.592h0V77h1.316a5.592,5.592,0,0,0,3.289-10.113Z" transform="translate(-174.03 -52)" fill="#212121"/>
      </g>
    </g>
    <g id="Group_6" data-name="Group 6" transform="translate(254 -55.767)">
      <path id="Path_1" data-name="Path 1" d="M55.274,264.483l-.594,3.974H53.35L55.386,256h1.887L59.4,268.449H58.013l-.641-3.974Zm1.927-1.216c-.437-2.742-.751-4.871-.865-6.037h-.056c-.045.961-.49,3.764-.825,6.037Z" transform="translate(-33.344 -160.067)" fill="#212121"/>
      <path id="Path_2" data-name="Path 2" d="M102.331,256v12.457H101V256Z" transform="translate(-68.311 -160.067)" fill="#212121"/>
      <path id="Path_3" data-name="Path 3" d="M134,268.457V256h1.578c.671,2.305,2.4,8.829,2.606,9.848h.029c-.072-1.674-.093-3.426-.093-5.454V256h1.248v12.457h-1.528c-.663-2.337-2.446-9.188-2.68-10.178h-.019c.083,1.5.114,3.487.114,5.733v4.445Z" transform="translate(-92.527 -160.067)" fill="#212121"/>
      <path id="Path_4" data-name="Path 4" d="M183.111,256v9.675c0,1.027.362,1.727,1.294,1.727s1.278-.66,1.278-1.717V256h1.331v9.638c0,1.924-.865,2.976-2.64,2.976-1.725,0-2.592-.966-2.592-2.947V256Z" transform="translate(-127.589 -160.067)" fill="#212121"/>
      <path id="Path_5" data-name="Path 5" d="M230.461,262.654v5.8H229.13V256h2.177c1.863,0,2.789.8,2.789,2.864v.57c0,1.69-.6,2.4-1.267,2.622.8.293,1.155.886,1.155,2.553a32.791,32.791,0,0,0,.122,3.841h-1.286a29.181,29.181,0,0,1-.13-3.742c0-1.61-.226-2.071-1.459-2.071Zm0-1.126h.814c1.182,0,1.491-.684,1.491-2.012v-.554c0-1.137-.309-1.818-1.557-1.818h-.748Z" transform="translate(-162.336 -160.067)" fill="#212121"/>
      <path id="Path_6" data-name="Path 6" d="M278.8,264.437v.431c0,1.6-.285,3.316-2.537,3.316-2.156,0-2.523-1.528-2.523-3.356V258.48c0-1.991.854-3.09,2.539-3.09,2.089,0,2.465,1.483,2.465,3.114v.484H277.4v-.583c0-.987-.152-1.807-1.137-1.807-.934,0-1.169.74-1.169,1.837V264.9c0,1.248.266,2.071,1.206,2.071s1.147-.844,1.147-2.015v-.532Z" transform="translate(-195.072 -159.62)" fill="#212121"/>
      <path id="Path_7" data-name="Path 7" d="M318.694,264.483l-.594,3.974H316.77L318.8,256h1.887l2.129,12.449h-1.389l-.639-3.974Zm1.927-1.216c-.439-2.742-.751-4.871-.862-6.037h-.053c-.045.961-.492,3.764-.828,6.037Z" transform="translate(-226.649 -160.067)" fill="#212121"/>
      <path id="Path_8" data-name="Path 8" d="M364.986,264.5v.721c0,1.171.4,1.8,1.278,1.8s1.243-.647,1.243-2.01c0-1.456-.319-2.023-1.632-3.045s-2.007-1.669-2.007-3.5c0-1.578.474-3.09,2.427-3.08,1.863,0,2.342,1.243,2.342,2.821v.58H367.32v-.532c0-1.033-.2-1.7-1.065-1.7s-1.065.748-1.065,1.725c0,1.155.232,1.6,1.371,2.459,1.73,1.307,2.276,2.034,2.276,4.1,0,1.749-.5,3.343-2.6,3.343-2.01,0-2.577-1.318-2.577-2.957v-.713Z" transform="translate(-261.058 -159.612)" fill="#212121"/>
      <path id="Path_9" data-name="Path 9" d="M407.895,257.235H405.88V256h5.355v1.227h-2v11.23H407.9Z" transform="translate(-292.041 -160.067)" fill="#212121"/>
    </g>
    <path id="Path_38" data-name="Path 38" d="M7.391-4.75q0-.234-.328-.234a2.373,2.373,0,0,0-.719.125q-.391.125-.859.328t-.977.461q-.508.258-.977.523a10.683,10.683,0,0,0-1.371.871q-.363.3-.594.527t-.457.414A1.552,1.552,0,0,1,.3-1.3a1.285,1.285,0,0,1-.492-.09,1.346,1.346,0,0,1-.4-.254,1.257,1.257,0,0,1-.422-.945q0-.969,1.711-3.8.734-1.219,1.422-2.145a15.815,15.815,0,0,1,1.32-1.578,12.171,12.171,0,0,1,1.211-1.105,3.517,3.517,0,0,1,1.891-.93A.431.431,0,0,1,6.883-12a.472.472,0,0,1,.133.32,1.594,1.594,0,0,1-.246.809q-.246.418-.652,1.051L4.453-7.3a11.537,11.537,0,0,0-.816,1.348,1.012,1.012,0,0,0-.035.207q0,.062.086.063a1.978,1.978,0,0,0,.484-.18l1-.453A9.743,9.743,0,0,1,8.82-7.3a1.585,1.585,0,0,1,1.32.727A2.455,2.455,0,0,1,10.633-5.1a3.465,3.465,0,0,1-.242,1.359,2.031,2.031,0,0,1-.715.9q-.473.328-.941.609l-1,.594A10.14,10.14,0,0,1,3.617-.055q-1.773,0-1.773-.922a.786.786,0,0,1,.484-.742Q6.789-4.133,6.984-4.258,7.391-4.516,7.391-4.75Zm12.469-.766q.5,0,.5.414a2.018,2.018,0,0,1-.609,1.211,18.459,18.459,0,0,1-2.375,2.281A6.7,6.7,0,0,1,13.4.172,2.458,2.458,0,0,1,11.336-.922,5.071,5.071,0,0,1,10.5-3.984q0-2.523,2.461-5.578A9.61,9.61,0,0,1,15.906-12.2a1.63,1.63,0,0,1,.66-.219,1.158,1.158,0,0,1,.422.074,1.322,1.322,0,0,1,.355.207.976.976,0,0,1,.383.773,2.958,2.958,0,0,1-.25,1.074,7.161,7.161,0,0,1-.727,1.324,13.034,13.034,0,0,1-2.727,2.859,4.367,4.367,0,0,0-.445,2.047,1.705,1.705,0,0,0,.344,1.016.979.979,0,0,0,.773.477,5.317,5.317,0,0,0,2.211-1.2L18.3-4.836A2.6,2.6,0,0,1,19.859-5.516Zm7.023.7q0,.422.719.422a2.946,2.946,0,0,0,1.391-.516l.625-.344a1.059,1.059,0,0,1,.5-.164.444.444,0,0,1,.34.133.514.514,0,0,1,.125.367,1.235,1.235,0,0,1-.156.543,3.759,3.759,0,0,1-.43.648,5.887,5.887,0,0,1-.641.672,5.71,5.71,0,0,1-.789.6,3.334,3.334,0,0,1-1.742.586,2.744,2.744,0,0,1-1.359-.289q-.156-.094-.3-.2A7.9,7.9,0,0,1,22.742-.6,6.788,6.788,0,0,1,19.8.242,2.453,2.453,0,0,1,17.711-.8a2.877,2.877,0,0,1-.617-1.711A3.177,3.177,0,0,1,18.43-4.891a8.8,8.8,0,0,1,1.9-1.258,13.728,13.728,0,0,1,1.66-.664A9.563,9.563,0,0,1,24.82-7.3a2.265,2.265,0,0,1,1,.215,2.327,2.327,0,0,1,.652.434,1.689,1.689,0,0,1,.5,1.258,1.039,1.039,0,0,1-.047.352A.669.669,0,0,0,26.883-4.812ZM20.492-3.336l-.008.023V-3.3q0,.336.148.438a.94.94,0,0,0,.758.113,5.3,5.3,0,0,0,.758-.262,6.749,6.749,0,0,0,1.609-.969,1.14,1.14,0,0,1-.125-.516,1.718,1.718,0,0,1,.492-1.125,3.834,3.834,0,0,0-1.687.586A6.306,6.306,0,0,0,20.68-3.7.688.688,0,0,0,20.492-3.336ZM33.7-5.2a9.712,9.712,0,0,0-1,.617,7.3,7.3,0,0,0-.844.688.952.952,0,0,0-.367.609q0,.258.414.258a2.108,2.108,0,0,0,.844-.281l1.7-.9a4.008,4.008,0,0,0,.836-.57l.555-.484A1.834,1.834,0,0,1,37.078-5.8a.933.933,0,0,1,.672.375,1.147,1.147,0,0,1,.336.766,7.721,7.721,0,0,1-.734,2.656L38.6-3.031,41.18-5.039a1.253,1.253,0,0,1,.688-.312q.594,0,.594.57A2.668,2.668,0,0,1,41.7-3.273a6.624,6.624,0,0,1-1,.945L36.367.953q-.43.344-.68.57A9.318,9.318,0,0,1,33.7,3.938a4.258,4.258,0,0,1-2.562,1.094,1.261,1.261,0,0,1-.867-.3.769.769,0,0,1-.3-.6,1.655,1.655,0,0,1,.172-.691A3.945,3.945,0,0,1,30.6,2.7a7.708,7.708,0,0,1,.656-.742q.367-.367.781-.711,1.094-.867,1.555-1.2l.766-.555a14.343,14.343,0,0,0,.781-2.078A12.607,12.607,0,0,1,31.93-.5a3.627,3.627,0,0,1-1.414.383,2.273,2.273,0,0,1-1.031-.234,2.614,2.614,0,0,1-.8-.617,2.769,2.769,0,0,1-.7-1.867A2.421,2.421,0,0,1,28.82-4.7a10.817,10.817,0,0,1,3.563-1.984,11.218,11.218,0,0,1,3.758-.82.445.445,0,0,1,.508.5.912.912,0,0,1-.129.527,1.3,1.3,0,0,1-.617.355q-.488.172-1.078.406A11.358,11.358,0,0,0,33.7-5.2Z" transform="translate(385 51)" fill="#212121"/>
  </g>
</svg>
