<svg xmlns="http://www.w3.org/2000/svg" width="59" height="24" viewBox="0 0 59 24"><defs><style>.a,.c{fill:#212121;}.a{font-size:16px;font-family:AcuminProExtraCond-Black, Acumin Pro ExtraCondensed;font-weight:800;letter-spacing:0.02em;}.b{fill:none;}</style></defs><g transform="translate(-874 -674)"><text class="a" transform="translate(874 692)"><tspan x="0" y="0">NEXT</tspan></text><g transform="translate(909 674)"><rect class="b" width="24" height="24"/><path class="c" d="M2,11h13.29l-4.24-4.21a1,1,0,0,1,1.39-1.39l5.9,5.9a1,1,0,0,1,.2,1.07.9.9,0,0,1-.17.26v.06h0l-5.9,5.9a.976.976,0,1,1-1.38-1.38L15.285,13H2a1,1,0,0,1,0-2Z" transform="translate(4.375)"/><circle class="c" cx="1.47" cy="1.47" r="1.47" transform="translate(1 10.53)"/></g></g></svg>