<svg xmlns="http://www.w3.org/2000/svg" width="18" height="18" viewBox="0 0 18 18"><defs><style>.a{fill:none;}</style></defs><g transform="translate(-2886 3440)"><rect class="a" width="18" height="18" transform="translate(2886 -3440)"/><g transform="translate(2889 -3438)"><g transform="translate(0)"><path d="M26.359,8.819a2.382,2.382,0,0,0-1.917.976L20.675,7.866A2.255,2.255,0,0,0,20.6,6.3l3.943-2.373a2.378,2.378,0,1,0-.579-1.542,2.369,2.369,0,0,0,.166.86L20.18,5.63a2.387,2.387,0,1,0,.15,2.955l3.755,1.923a2.358,2.358,0,0,0-.117.7,2.391,2.391,0,1,0,2.391-2.391Z" transform="translate(-16)"/></g></g></g></svg>