<svg id="Layer_1" data-name="Layer 1" xmlns="http://www.w3.org/2000/svg" viewBox="0 0 512 512"><defs><style>.cls-1{fill:#212121;}.cls-2{fill:#fff;}</style></defs><rect class="cls-1" y="0.03" width="512" height="512"/><path class="cls-2" d="M264,272v32a8,8,0,0,1-16,0V272H232v32a8,8,0,0,1-16,0V272H200v32a8,8,0,0,1-16,0V272H168v.13a68,68,0,0,0,0,135.75V408h16V376a8,8,0,0,1,16,0v32h16V376a8,8,0,0,1,16,0v32h16V376a8,8,0,0,1,16,0v32h44V272Z"/><path class="cls-2" d="M380,285.05V204c0-55.23-50.14-100-112-100-52,0-98,16-116,16s-24-16-24-16a98.42,98.42,0,0,0,4.09,20.11C133,125.21,142.8,135.83,158,132c0,0-13.06,7.92-20.83,4.59,6.36,12.31,17,23.41,34.83,23.41,12,0,20.51-6.6,44-16a121,121,0,0,1,40-8h0A68,68,0,0,1,323.93,204l.07.06V408h16a68,68,0,0,0,40-123Z"/></svg>